<svg xmlns="http://www.w3.org/2000/svg" viewBox="0 0 1000 1000">
    <defs>
        <pattern id="brickPattern" width="54" height="48" patternUnits="userSpaceOnUse">
            <rect width="100%" height="100" class="mortar" />
            <rect width="50" height="20" x="0" y="0" fill="#b00" />
            <rect width="25" height="20" x="0" y="24" fill="#b00" /> <!-- part end -->
            <rect width="25" height="20" x="29" y="24" fill="#b00" /> <!-- part start -->
        </pattern>
        <style>
            .ground {
                fill: #073605;
            }
            .fence {
                fill: #480d0d;
            }
            .front {
                fill: url(#brickPattern);
            }
            .mortar {
                fill: #bbb;
            }
            .side {
                fill: url(#brickPattern);
                filter: brightness(0.7);
                transform: skew(0deg, -40deg);
            }
            .back-roof {
                fill: #901900;
            }
            .front-roof {
                fill: #a62f20;
            }
            .path {
                fill: brown;
                transform: skew(-40deg);
            }
            .front-window {
                fill: white;
                height: 50px;
                width: 100px;
            }
            .tree-branches {
                fill: darkgreen;
                stroke: #38682d;
                stroke-width: 5px;
            }
            .tree-trunk {
                fill: brown;
                stroke: #552222;
                stroke-width: 5px;
            }
            .grass {
                fill: green;
                transform: skew(-40deg);
            }
        </style>
    </defs>
    <title>Talihouse</title>
    <rect class="ground" height="500" width="1000" y="500" />
    <rect class="grass" x="700" y="500" width="600" height="400" />
    <rect class="fence" height="20" y="480" width="1000" />
    <rect class="front" width="500" height="300" x="100" y="450" />
    <rect class="door" width="50" height="100" fill="black" x="330" y="650" />
    <polygon class="back-roof" points="600,450 550,350 650,280 700,366" />
    <polygon class="front-roof" points="600,450 550,350 150,350 100,450" />
    <rect class="side" width="100" height="300" x="600" y="955" />
    <rect class="path" x="950" y="750" width="80" height="100" />
    <rect class="path" x="700" y="810" width="250" height="40" />
    <g class="front-windows">
        <rect class="front-window" x="150" y="650" />
        <rect class="front-window" x="150" y="500" />
        <rect class="front-window" x="450" y="500" />
        <rect class="front-window" x="450" y="650" />
    </g>
</svg>