<svg id="Layer_1" data-name="Layer 1" xmlns="http://www.w3.org/2000/svg" viewBox="0 0 122.88 99.29" height="200">
    <defs>
        <style>
            @keyframes rotateCoins {
                from {
                    transform: scale(0.025) translate(-1800px, -2900px) rotate(0deg);
                }
                to {
                    transform: scale(0.025) translate(-1800px, -2900px) rotate(360deg);
                }
            }
            .path{
                fill:#fff;
                fill-rule:evenodd;
            }
            .coin {
                animation: rotateCoins 6s infinite linear;
                transform: scale(0.025);
                transform-origin: right bottom;
                fill: white;
            }
            .coin2 {
                animation-delay: -2s;
            }
            .coin3 {
                animation-delay: -4s;
            }
            @media (prefers-reduced-motion) {
                .coin {
                    animation-play-state: paused;
                }
            }
        </style>
    </defs>
    <title>added-value</title>
    <circle/>
    <path class="path"
          d="M0,44.28H21.67V89.89H0V44.28ZM84.27,21m-57.44,65V48H44c7.27,1.3,14.54,5.24,21.8,9.81H79.1c6,.36,9.19,6.48,3.32,10.49-4.66,3.43-10.83,3.23-17.14,2.67-4.36-.22-4.55,5.63,0,5.65,1.58.13,3.29-.25,4.79-.25,7.88,0,14.37-1.51,18.34-7.74l2-4.65,19.82-9.82c9.91-3.26,17,7.1,9.65,14.32a260.22,260.22,0,0,1-44.11,26c-10.94,6.65-21.87,6.42-32.79,0L26.83,86.06Z"/>
    <path class="coin"
          d="M512 64C264.6 64 64 264.6 64 512s200.6 448 448 448 448-200.6 448-448S759.4 64 512 64zm0 820c-205.4 0-372-166.6-372-372s166.6-372 372-372 372 166.6 372 372-166.6 372-372 372zm47.7-395.2l-25.4-5.9V348.6c38 5.2 61.5 29 65.5 58.2.5 4 3.9 6.9 7.9 6.9h44.9c4.7 0 8.4-4.1 8-8.8-6.1-62.3-57.4-102.3-125.9-109.2V263c0-4.4-3.6-8-8-8h-28.1c-4.4 0-8 3.6-8 8v33c-70.8 6.9-126.2 46-126.2 119 0 67.6 49.8 100.2 102.1 112.7l24.7 6.3v142.7c-44.2-5.9-69-29.5-74.1-61.3-.6-3.8-4-6.6-7.9-6.6H363c-4.7 0-8.4 4-8 8.7 4.5 55 46.2 105.6 135.2 112.1V761c0 4.4 3.6 8 8 8h28.4c4.4 0 8-3.6 8-8.1l-.2-31.7c78.3-6.9 134.3-48.8 134.3-124-.1-69.4-44.2-100.4-109-116.4zm-68.6-16.2c-5.6-1.6-10.3-3.1-15-5-33.8-12.2-49.5-31.9-49.5-57.3 0-36.3 27.5-57 64.5-61.7v124zM534.3 677V543.3c3.1.9 5.9 1.6 8.8 2.2 47.3 14.4 63.2 34.4 63.2 65.1 0 39.1-29.4 62.6-72 66.4z"/>
    <path class="coin coin2"
          d="M512 64C264.6 64 64 264.6 64 512s200.6 448 448 448 448-200.6 448-448S759.4 64 512 64zm0 820c-205.4 0-372-166.6-372-372s166.6-372 372-372 372 166.6 372 372-166.6 372-372 372zm47.7-395.2l-25.4-5.9V348.6c38 5.2 61.5 29 65.5 58.2.5 4 3.9 6.9 7.9 6.9h44.9c4.7 0 8.4-4.1 8-8.8-6.1-62.3-57.4-102.3-125.9-109.2V263c0-4.4-3.6-8-8-8h-28.1c-4.4 0-8 3.6-8 8v33c-70.8 6.9-126.2 46-126.2 119 0 67.6 49.8 100.2 102.1 112.7l24.7 6.3v142.7c-44.2-5.9-69-29.5-74.1-61.3-.6-3.8-4-6.6-7.9-6.6H363c-4.7 0-8.4 4-8 8.7 4.5 55 46.2 105.6 135.2 112.1V761c0 4.4 3.6 8 8 8h28.4c4.4 0 8-3.6 8-8.1l-.2-31.7c78.3-6.9 134.3-48.8 134.3-124-.1-69.4-44.2-100.4-109-116.4zm-68.6-16.2c-5.6-1.6-10.3-3.1-15-5-33.8-12.2-49.5-31.9-49.5-57.3 0-36.3 27.5-57 64.5-61.7v124zM534.3 677V543.3c3.1.9 5.9 1.6 8.8 2.2 47.3 14.4 63.2 34.4 63.2 65.1 0 39.1-29.4 62.6-72 66.4z"/>
    <path class="coin coin3"
          d="M512 64C264.6 64 64 264.6 64 512s200.6 448 448 448 448-200.6 448-448S759.4 64 512 64zm0 820c-205.4 0-372-166.6-372-372s166.6-372 372-372 372 166.6 372 372-166.6 372-372 372zm47.7-395.2l-25.4-5.9V348.6c38 5.2 61.5 29 65.5 58.2.5 4 3.9 6.9 7.9 6.9h44.9c4.7 0 8.4-4.1 8-8.8-6.1-62.3-57.4-102.3-125.9-109.2V263c0-4.4-3.6-8-8-8h-28.1c-4.4 0-8 3.6-8 8v33c-70.8 6.9-126.2 46-126.2 119 0 67.6 49.8 100.2 102.1 112.7l24.7 6.3v142.7c-44.2-5.9-69-29.5-74.1-61.3-.6-3.8-4-6.6-7.9-6.6H363c-4.7 0-8.4 4-8 8.7 4.5 55 46.2 105.6 135.2 112.1V761c0 4.4 3.6 8 8 8h28.4c4.4 0 8-3.6 8-8.1l-.2-31.7c78.3-6.9 134.3-48.8 134.3-124-.1-69.4-44.2-100.4-109-116.4zm-68.6-16.2c-5.6-1.6-10.3-3.1-15-5-33.8-12.2-49.5-31.9-49.5-57.3 0-36.3 27.5-57 64.5-61.7v124zM534.3 677V543.3c3.1.9 5.9 1.6 8.8 2.2 47.3 14.4 63.2 34.4 63.2 65.1 0 39.1-29.4 62.6-72 66.4z"/>
</svg>