<svg width="404.04" height="247" xmlns="http://www.w3.org/2000/svg">
    <path d="m274.328 199.454-9.122-9.504c-2.808-2.916-3.309-8.07-1.149-11.501 11.43-17.45 27.282-41.796 27.282-41.796v-.025l2.043-3.065c4.371-6.695 3.31-17.312-2.38-23.829l-7.39-8.472c-2.814-3.228-6.348-5.051-9.953-5.133-3.606-.082-6.94 1.63-9.244 4.831l-31.664 44.048a6.093 6.093 0 0 1-4.749 2.666 6.803 6.803 0 0 1-5.23-2.252l-11.066-11.516c-3.141-3.28-3.575-8.713-1.022-12.084l33.43-43.634c2.437-3.176 3.535-7.482 3.1-12.134a22.251 22.251 0 0 0-5.336-12.573l-8.172-9.346c-3.059-3.545-6.986-5.71-11.04-6.088a11.92 11.92 0 0 0-10.46 4.219l-3.84 4.535-9.806 11.531-22.808 26.812c-2.809 3.31-7.865 3.166-11.27-.368l-11.17-11.628a10.347 10.347 0 0 1-2.86-6.41 8.171 8.171 0 0 1 1.946-6.128l37.582-41.275 13.171-14.473A22.032 22.032 0 0 1 209.535 0c-.071.04-.158.061-.235.107a14.203 14.203 0 0 0-1.905 1.083h-.04a.27.27 0 0 1-.052.03c-8.406 5.807-50.14 34.493-63.183 43.466a19.3 19.3 0 0 0-1.635 1.236 20.617 20.617 0 0 0-3.207 2.732L127.992 60.6 96.395 93.969a6.414 6.414 0 0 0-1.675 4.8 7.426 7.426 0 0 0 2.257 4.878l8.957 8.717a6.568 6.568 0 0 0 7.441 1.405c1.614-.639 9.433-4.122 18.963-8.401L109.54 131.06c-10.214 11.511-9.116 30.04 2.497 40.784l24.703 22.936a24.202 24.202 0 0 0 14.243 6.435c.455.056 2.007.107 2.232.107h124.05c.586 0 1.123 0 1.613-.03a5.618 5.618 0 0 1-4.55-1.85m-16.394-27.735-11.184 16.77c-4.831 7.238-11.869 11.747-19.918 12.666-8.17.91-16.311-2.073-22.833-8.457l-30.754-30.167c-14.555-14.274-16.307-38.614-3.994-53.399l36.091-43.333L218.78 49.65a5.413 5.413 0 0 1 4.724-1.956 7.66 7.66 0 0 1 5.06 2.727l8.264 9.382a10.214 10.214 0 0 1 2.456 5.766 7.855 7.855 0 0 1-1.435 5.546l-34.079 43.496c-5.817 7.426-4.836 19.53 2.196 26.766l11.236 11.552c3.304 3.391 7.43 5.107 11.618 4.882 4.188-.224 7.809-2.37 10.362-5.99l31.153-44.16a4.984 4.984 0 0 1 4.172-2.237 6.261 6.261 0 0 1 4.56 2.293l7.483 8.503c2.625 2.983 3.115 7.86 1.082 10.909l-29.62 44.476a1.15 1.15 0 0 1-.057.113M26.01 238.236c0 2.104 0 2.104-1.66 2.35-.842.117-5.066.306-7.61.306-3.191 0-6.455-.102-7.997-.276-1.542-.173-1.629-.439-1.782-1.343-.133-1.052-.363-4.78-.363-6.73 0-5 .71-5.808.736-5.843.393-.281 2.18-.751 9.754-.751 5.863 0 7.615.45 7.982.567.618.24.766.29.792 2.083v2.426h6.358l-.025-1.634c-.067-3.983-.18-5.454-1.839-7.022-2.017-1.936-4.831-2.472-13.13-2.472-2.043 0-5.388.072-6.981.179-3.688.21-5.618.51-7.273 1.741C.47 223.722 0 227.487 0 233.778c0 6.292.643 9.167 2.477 10.847 2.175 2.002 5.388 2.309 15.28 2.309 7.752 0 10.674-.302 12.68-2.09 1.732-1.582 1.88-3.196 2.044-7.619l.066-1.675h-6.44zm38.338-10.898a42.899 42.899 0 0 1 .342 6.24 39.666 39.666 0 0 1-.372 5.7c-.169.792-.435 1.022-1.252 1.17a64.251 64.251 0 0 1-8.59.444c-1.603 0-5.77-.102-7.093-.179-2.16-.138-3.12-.316-3.417-.597-.414-.45-.623-2.804-.623-7.033 0-5.224.567-6.184.74-6.363.894-.771 6.793-.771 8.739-.771 6.322 0 8.202.061 10.045.332 1.338.194 1.41.628 1.481 1.057m4.438-5.107c-2.14-2.012-5.367-2.35-14.013-2.35-2.202 0-6.573.108-8.115.18-3.315.209-5.107.51-6.844 1.73-2.615 1.921-3.095 5.384-3.095 11.517 0 4.086.169 6.343.603 7.977a6.9 6.9 0 0 0 5.342 5.046c1.992.403 6.195.592 13.212.592 8.268 0 11.19-.51 13.068-2.4 1.762-1.782 2.385-4.678 2.385-11.031 0-1.88-.122-4.341-.27-5.572-.26-2.477-.746-4.295-2.273-5.689m14.147 3.718h12.292c2.727 0 3.774 0 4.484.056 2.288.153 2.845.577 3.166.925.322.347 1.14 1.73 1.14 6.327 0 6.782-1.666 7.15-2.554 7.36-1.21.27-1.226.275-6.052.275H82.933Zm12.364-5.98H76.365v26.893h19.192c7.15 0 9.555-.306 11.869-2.344 2.313-2.038 3.212-5.327 3.212-11.113 0-5.321-.409-8.431-2.645-10.694-2.39-2.39-4.99-2.742-12.696-2.742m26.847 16h20.326v-5.98h-20.326v-4.04h21.235v-5.98h-27.797v26.893h27.828v-5.97h-21.266zm47.48 2.83-12.763-18.83h-9.167v26.893h6.568v-19.3l13.176 19.3h4.402l12.941-19.161v19.161h6.563V219.97h-9.198zm38.43-2.917 5.745-9.545 5.69 9.545zm2.089-15.913-16.154 26.893h7.548l2.983-4.995h18.462l2.972 4.995h7.466l-16.112-26.893zm46.433 10.546-8.54-.031a29.845 29.845 0 0 1-5.668-.444c-.878-.245-.955-.26-.955-1.783 0-1.522 0-2.451 9.805-2.451 4.137 0 5.761.373 6.272.51.965.307.965.307.965 2.273l6.568-.025c-.046-3.12-.44-4.995-2.518-6.547-2.079-1.553-5.071-2.135-11.133-2.135-2.283 0-5.802.133-7.82.368-2.823.311-4.565.71-6.276 2.042-1.144.879-2.502 2.62-2.502 5.925 0 7.236 5.403 8.212 10.679 8.212 11.812 0 12.052 0 13.028.316.388.118.689.225.689 1.88 0 1.654-.669 1.848-1.15 1.95-1.286.286-4.524.511-7.706.511-6.577 0-8.125-.306-8.794-.551-.112-.205-.199-.935-.214-2.636l-6.44-.153a14.6 14.6 0 0 0-.056 1.21c0 2.942.51 5.077 3.105 6.64 1.879 1.072 4.172 1.384 10.254 1.384 7.855 0 11.578-.363 13.79-1.369 2.553-1.236 3.84-3.575 3.84-7.196 0-2.18-.45-3.784-1.405-5.03-1.71-2.355-4.274-2.835-7.829-2.835m12.232-4.601h12.614v20.913h6.573V225.95h12.527v-5.98h-31.714zm42.306 10.02h20.341v-5.98h-20.341v-4.04h21.235v-5.98h-27.792v26.893h27.828v-5.97h-21.271zm32.128-10.02h10.684c5.393 0 7.043.117 7.706.567.092.097.475.705.475 2.165a7.426 7.426 0 0 1-.311 2.304c-.301.51-1.839.78-4.847.78h-13.707zm24.514-2.237c-1.022-1.91-3.013-3.136-5.536-3.447-1.813-.23-1.936-.23-8.304-.296h-17.247v26.893h6.573v-9.116h10.684c5.306.03 5.306.03 6.394.2.965.127 1.205.546 1.297 1.286.133.869.123.9.123 3.754v3.876h6.578v-4.98c0-3.845-.082-5.295-1.533-6.776 1.61-1.328 1.982-3.401 1.982-6.394 0-2.165-.28-3.606-.986-5m34.902 9.632c-1.722-2.344-4.275-2.83-7.84-2.83l-8.534-.035c-3.36-.036-4.953-.27-5.668-.44-.889-.244-.955-.265-.955-1.787 0-1.624 0-2.446 9.8-2.446 3.983 0 5.618.332 6.266.51.986.307.986.307.986 2.268h6.557c-.056-3.125-.454-5.01-2.522-6.547-2.069-1.537-5.067-2.135-11.144-2.135-2.262 0-5.796.128-7.814.368-2.829.312-4.596.72-6.26 2.043-1.15.873-2.508 2.62-2.508 5.919 0 7.2 5.393 8.222 10.678 8.222 11.808 0 12.048 0 13.033.312.378.117.685.235.685 1.879 0 1.644-.67 1.854-1.144 1.956a48.057 48.057 0 0 1-7.707.51c-6.588 0-8.14-.306-8.789-.55-.128-.19-.199-.935-.225-2.636l-6.45.03c-.04.486-.046.95-.046 1.022 0 2.947.511 5.076 3.11 6.64 1.839 1.056 4.234 1.383 10.214 1.383 7.87 0 11.593-.357 13.79-1.369 2.594-1.246 3.855-3.6 3.855-7.195 0-2.176-.45-3.77-1.4-5.036" fill="white" style="stroke-width:.5107"/>
</svg>