<?xml version="1.0" encoding="UTF-8"?>
<svg id="Layer_1" xmlns="http://www.w3.org/2000/svg" viewBox="0 0 1479.62 1254.52" fill="#fff" height="46" width="42">
    <path d="M684.08,459.74l-.1.26c16.33,9.02,90.62,3.98,90.62,3.98-1.87-2.14-4.38-5.53-5.91-10.17-5.67-17.17,7.31-35.44,12.39-42.86,15.82-23.11,38.44-62.51,68.01-115.78-.59,12.35-3.71,75.34-12.32,124.33-2.02,11.52-5.55,29.08-19.97,39.34-6.99,4.97-14.36,6.66-19.39,7.32,10.04,2.17,41.35,9.07,41.35,9.07,11.85-14.38,21.23-30.64,27.64-48.14,3.25-8.86,6.7-18.7,9.48-27.6,10.1-32.36,16.16-50.61,21.99-66.53,5.65-15.41,8.44-23.13,11.01-28.53,7.45-15.6,21.7-38.26,51.04-60.73-7.59-1.06-19.69-1.76-33.83,1.78-10.3,2.58-18.39,6.58-24.02,9.96,1.32-8.57,3.95-18.34,9-28.34,18.11-35.82,41.22-56.53,77.16-63.35,7.7-1.46,15.53-2.07,23.36-2.07h195.92l-233.56,465.78,233.56,464.8-267.26.36,80.16,161.3h459.2l-314.91-626.95L1479.28,0h-476.93c-29.76,0-75.77,10.3-98.8,29.15-.77-6.88-1.54-13.76-2.3-20.64-11,6.91-26.86,18.68-41.56,37.31-13.4,16.98-20.94,33.46-25.22,45.13-1.82-8.43-3.65-16.86-5.47-25.29-10.63,10.22-23.94,25.13-35.89,45.34-13.55,22.91-20.41,44.26-24.06,59.65-3.65-5.1-7.69-11.97-10.47-20.84-7.06-22.56-1.05-42.2,1.7-49.7-23.45,23.79-31.96,45.54-35.43,60.9-5.59,24.76,2.71,29.54-2.65,64.77-4.93,32.41-11.74,37.23-12.95,63.62-.5,10.91,6.39,31.21,6.89,44.97.79,21.75-3.49,43.31-9.86,64.41l-29.92-29.89,10.4,38.87c4.6,17.19,3.66,35.38-2.68,52ZM771.89,203.15c4.95,24.83,9.9,49.68,14.85,74.52-5.13,3.23-11.15,7.61-17.29,13.46-7.4,7.06-12.72,14.12-16.44,19.9-10.82-25.34,18.88-107.88,18.88-107.88Z"/>
    <path d="M.33,1253.81l272.95.72h248.41c19.58,0,39.05-2.89,57.79-8.59l.23-.07-23.5-19.58c14.56-3.75,31.54-9.5,49.59-18.48,37.2-18.52,62.64-42.7,78.22-60.4-10.68-1.17-21.36-2.34-32.05-3.5,10.08-10.91,21.26-24.85,31.71-42.09,17-28.03,25.86-54.51,30.7-74.33-10.63,3.64-21.27,7.29-31.9,10.93,0,0,19.29-59.09,19.72-89.89.82-58.74-16.82-79.64-16.58-144.02.18-49.32,11.65-86.66,17.04-103.72,25.63-81.15,72.7-126.88,70.67-128.47-2.77-2.16-107.11,70.9-144.67,198.92-30.22,102.97.82,144.27-38.93,227.85-3.47,7.29-6.54,12.52-7.95,14.77-24.34,38.8-64.09,54.59-82.96,61.79,0,0-62.93,17.31-181.78,17.23-.77,0-5.6,0-10.16,0-14.87,0-26.97,0-35.11,0,77.86-155.03,155.73-310.07,233.59-465.1l-233.26-465.12h267.44L458.83.98H0l314.67,626.41L.33,1253.81Z"/>
</svg>