<?xml version="1.0" standalone="no"?>
<!DOCTYPE svg PUBLIC "-//W3C//DTD SVG 20010904//EN"
 "http://www.w3.org/TR/2001/REC-SVG-20010904/DTD/svg10.dtd">
<svg version="1.0" xmlns="http://www.w3.org/2000/svg"
 width="660.000000pt" height="690.000000pt" viewBox="0 0 660.000000 690.000000"
 preserveAspectRatio="xMidYMid meet">

<g transform="translate(0.000000,690.000000) scale(0.100000,-0.100000)" stroke="none">
<path fill="none" d="M0 3450 l0 -3450 3300 0 3300 0 0 3450 0 3450 -3300 0 -3300 0 0
-3450z m3590 2670 c816 -71 1535 -505 1985 -1199 206 -317 338 -684 396 -1096
20 -136 17 -523 -4 -665 -38 -253 -91 -450 -179 -660 -131 -312 -305 -575
-542 -819 -396 -406 -888 -665 -1446 -760 -414 -70 -840 -39 -1239 91 -902
293 -1568 1036 -1765 1968 -52 248 -65 611 -32 860 189 1401 1429 2401 2826
2280z"/>
<path fill="white" d="M3130 5924 c-25 -3 -99 -14 -165 -25 -686 -114 -1285 -514 -1656
-1104 -371 -590 -468 -1312 -268 -1987 124 -418 379 -821 701 -1105 617 -545
1429 -746 2218 -548 482 121 928 396 1247 769 159 186 303 418 397 639 185
435 237 915 150 1393 -68 374 -251 771 -499 1079 -144 178 -377 387 -580 518
-208 134 -496 257 -730 312 -211 49 -276 57 -525 60 -135 1 -265 1 -290 -1z
m458 -455 c766 -83 1428 -627 1660 -1364 282 -898 -104 -1869 -926 -2326 -399
-221 -887 -298 -1329 -209 -216 43 -393 199 -471 414 -22 61 -26 87 -26 191 0
105 4 130 28 200 29 85 89 198 134 253 l27 33 -3 -146 c-4 -134 -2 -152 22
-228 59 -192 202 -338 409 -422 123 -50 221 -67 377 -67 105 0 156 5 230 22
440 104 690 415 771 960 9 61 13 266 14 730 1 547 4 663 18 763 24 170 44 279
70 385 13 50 20 92 15 92 -4 0 -67 -13 -140 -30 -297 -66 -514 -84 -948 -79
-701 8 -847 3 -1030 -37 -154 -34 -338 -111 -449 -187 -315 -215 -462 -653
-354 -1062 22 -85 94 -230 148 -297 86 -109 210 -189 346 -222 72 -18 240 -21
304 -6 22 5 41 7 43 5 8 -7 -112 -88 -188 -125 -199 -100 -393 -104 -579 -13
-56 28 -97 58 -157 118 -159 158 -207 318 -207 690 0 271 38 483 129 718 164
425 505 811 904 1024 221 118 495 202 740 226 81 8 328 6 418 -4z"/>
</g>
</svg>
