<?xml version="1.0" encoding="UTF-8"?>
<svg id="Layer_2" xmlns="http://www.w3.org/2000/svg" width="349.68" height="333.14"
     xmlns:xlink="http://www.w3.org/1999/xlink" viewBox="0 0 349.68 333.14">
    <defs>
        <linearGradient id="linear-gradient" x1="154.16" y1="182.97" x2="193.52" y2="182.97"
                        gradientUnits="userSpaceOnUse">
            <stop offset="0" stop-color="#fff" stop-opacity="0"/>
            <stop offset="1" stop-color="#fff"/>
        </linearGradient>
        <linearGradient id="linear-gradient-2" x1="165.7" y1="197.02" x2="232.19" y2="55.66"
                        gradientUnits="userSpaceOnUse">
            <stop offset="0" stop-color="#fff" stop-opacity="0"/>
            <stop offset=".19" stop-color="#fff"/>
            <stop offset=".82" stop-color="#fff"/>
            <stop offset="1" stop-color="#fff"/>
        </linearGradient>
    </defs>
    <g id="JDS_V0.3_white">
        <path d="M349.68,12.05H187.46c-2.46-.12-4.93-.19-7.42-.19V0h-1V11.85c-2.49,0-4.96,.07-7.42,.19H12.13v1H160.27C84.27,22.56,25.27,87.55,25.23,166.07H2.84v1H25.24c.46,79.36,61.12,144.72,138.54,152.61H12.13v1H179.04v12.46h1v-12.46h169.64v-1H180.04V167.07h169.64v-1h-15.82c-.05-78.52-59.05-143.52-135.05-153.02h150.87v-1Zm-178.03,1h7.39V166.07H83.3c-.29-8.15-6.87-14.7-15.03-14.94v-1.76h-1v1.76c-6.43,.22-11.86,4.36-13.99,10.11v-10.96h-1v15.79H26.23c.05-81.85,64.57-148.9,145.42-153.02ZM68.28,167.12h14.03c-.26,7.62-6.41,13.75-14.03,13.99v-13.99Zm0-1.05v-13.94c7.61,.24,13.74,6.35,14.03,13.94h-14.03Zm-1,0h-13.95c.28-7.57,6.38-13.66,13.95-13.94v13.94Zm111.76,153.4c-84.01-.27-152.31-68.45-152.8-152.4h25.28v.05h.77v16.11h1v-16.11h13.99v16.11h1v-1.12c8.17-.24,14.77-6.82,15.03-14.99h.73v-.05h95v152.4Zm153.81-153.4H180.04V13.05h7.39c80.86,4.12,145.38,71.17,145.42,153.02Z"
              style="fill:#aaa;"/>
        <path d="M157.72,222.08c7.01,1.99,16.75,.14,16.99-8.93,.1-3.88-2.36-6.44-4.92-8.93-1.87-1.81-3.77-3.59-5.66-5.39-.94-.9-1.89-1.8-2.83-2.7-1.77-1.93-1.89-1.79-.37,.42l-.66,5.01c-1.39,2.4-.93,1.15,1.19,.95,1.36-.13,2.66,0,3.99,.29,2.6,.57,4.86,1.89,7.62,1.83,4.87-.12,9.07-3.71,10.53-8.26s.28-9.16-2.53-12.86c-3.38-4.43-8.4-6.15-12.56-9.58l-4.6,11.1c6.44,.69,12.89,1.22,19.36,1.61s7.87-7.11,4.6-11.1c-6.03-7.32-15.92-7.07-22.64-12.98-2.11,3.62-4.22,7.24-6.32,10.86,9,2.24,18.05,4.27,26.93,6.97,2.02,.61,4.94,.04,6.32-1.67,2.18-2.7,4.08-5.7,2.57-9.27-1.33-3.17-4.68-4.95-7.38-6.82-4.9-3.4-9.9-6.21-15.38-8.59l-5.01,11.88c8.46,2.24,16.52,4.49,25.24,5.5,6,.7,8.02-7.35,4.6-11.1-2.85-3.12-4.72-6.88-7.46-10.07-3.01-3.5-7.03-5.4-11.36-6.76-8-2.52-11.42,10.03-3.46,12.54,6.48,2.04,8.72,8.71,13.09,13.49l4.6-11.1c-7.49-.87-14.53-3.11-21.79-5.04-6.85-1.82-11.96,8.85-5.01,11.88,6,2.61,14.5,6.13,18.78,11.29l-1.67-6.32,.44-.7,6.32-1.67c-8.88-2.7-17.93-4.73-26.93-6.97-5.96-1.48-11.42,6.39-6.32,10.86,3.61,3.17,7.62,5.1,12.07,6.83,3.97,1.54,7.78,2.76,10.57,6.14l4.6-11.1c-6.47-.39-12.92-.92-19.36-1.61-5.44-.58-8.81,7.63-4.6,11.1,2.51,2.07,5.2,3.69,7.94,5.42,1.17,.74,2.12,1.68,3.23,2.46,.33,.24,.58,1.23,.76,1.35-.28,.47-.06,.11,.66-1.07-.72-.3-1.45-.56-2.2-.77-1.36-.4-2.74-.64-4.15-.81-3.32-.4-6.72-.18-9.95,.73-5.17,1.46-9.57,6.22-6.38,11.74,1.63,2.83,4.78,4.98,7.12,7.21,1.28,1.22,2.71,3.26,4.24,4.04l1.41,1.35c2.01-3.25,1.73-4.99-.83-5.21-8.06-2.29-11.5,10.25-3.46,12.54h0Z"
              style="fill:url(#linear-gradient);"/>
        <path d="M192.17,182.49c-.44-.29-.88-.57-1.32-.86,3.99-8.18,7.96-16.28,11.9-24.22-3.49,6.12-7.93,14.45-12.74,23.67-9.35-6.08-19.27-11.27-29.58-15.51,1.37-3.01,2.75-6.02,4.07-9.06l-.27-.13c-1.67,2.9-3.28,5.82-4.91,8.74-.4-.16-.8-.33-1.2-.49,.36,.24,.73,.47,1.09,.71-.3,.53-.59,1.07-.89,1.6-.43,.79-.86,1.6-1.3,2.4-.38-.15-.75-.31-1.13-.46,.34,.23,.68,.44,1.02,.66-.94,1.72-1.87,3.45-2.81,5.19-.35-.14-.7-.29-1.06-.43,.32,.21,.64,.41,.96,.62-1.16,2.15-2.31,4.33-3.47,6.51-.04-.02-.08-.03-.11-.05,.03,.02,.07,.04,.1,.07-1.52,2.87-3.04,5.76-4.56,8.67-.08-.03-.16-.07-.24-.1,.07,.05,.14,.09,.21,.14-1.89,3.62-3.78,7.27-5.66,10.93-1.32-.56-2.64-1.1-3.97-1.63,1.19,.8,2.39,1.58,3.6,2.34-4.79,9.34-9.56,18.82-14.3,28.36-.22-.09-.44-.18-.65-.27,.2,.13,.4,.26,.6,.39-1.81,3.64-3.61,7.29-5.41,10.95-1.52-.65-3.06-1.28-4.6-1.89,1.38,.93,2.78,1.83,4.19,2.72-1.57,3.19-3.13,6.38-4.7,9.57-.13-.05-.26-.11-.39-.16,.12,.08,.24,.15,.36,.23-1.5,3.06-2.99,6.11-4.48,9.17-.22-.09-.44-.18-.66-.27,.2,.13,.4,.26,.61,.39-1.86,3.81-3.71,7.62-5.56,11.43-.92-.38-1.83-.77-2.75-1.13,.83,.55,1.67,1.09,2.51,1.63-1.87,3.84-3.73,7.66-5.58,11.48-1.99-.03-3.93-.06-5.82-.09-3.78-1.79-7.59-3.54-11.42-5.21,2.85,1.76,5.72,3.48,8.61,5.17-4.26-.06-8.13-.12-11.32-.16-3.12-.08-6.23-.14-9.34-.19,2.33-4.83,4.65-9.68,6.97-14.56,1.35,.54,2.7,1.06,4.07,1.56-1.23-.78-2.47-1.55-3.72-2.3,3.83-8.09,7.64-16.24,11.43-24.42,.26,.1,.51,.2,.77,.3-.23-.15-.47-.29-.71-.44,5.94-12.82,11.83-25.69,17.66-38.45,1.93,.79,3.87,1.56,5.83,2.28-1.77-1.13-3.57-2.21-5.37-3.28,1.73-3.78,3.45-7.55,5.17-11.3,1.93,.81,3.87,1.61,5.81,2.39-1.8-1.08-3.62-2.15-5.44-3.2,3.94-8.61,7.86-17.15,11.74-25.54,1.71,3.18,3.4,6.37,5.17,9.52l.27-.13c-1.49-3.58-3.07-7.12-4.62-10.67,1.51,.66,3.01,1.32,4.52,1.97-1.49-.85-3-1.68-4.49-2.52,1.42-3.07,2.84-6.13,4.26-9.16-1.4,2.6-2.97,5.6-4.65,8.9-5.07-11.36-10.45-22.91-16-34.57,2.68,1.19,5.37,2.36,8.07,3.51-2.89-1.65-5.8-3.27-8.72-4.87-2.61-5.46-5.25-10.93-7.93-16.42,1.45,.63,2.9,1.28,4.36,1.9-1.57-.89-3.15-1.77-4.73-2.65-7.52-15.4-15.26-30.9-23.01-46.29,2.31,1.02,4.62,2.03,6.94,3.02-2.51-1.43-5.02-2.84-7.55-4.23-2.59-5.15-5.18-10.28-7.76-15.4,5.35-.05,10.7-.15,16.06-.29,12.47-.16,35.83-.58,51.25-.91,.88,1.56,1.72,3.05,2.5,4.39l.27-.13c-.62-1.43-1.25-2.85-1.88-4.28,2.06-.04,3.97-.09,5.68-.13,0,0,0-.3,0-.3-1.77-.04-3.76-.08-5.92-.13-.97-2.19-1.95-4.37-2.92-6.56,0,0-5.18-11.33-5.18-11.33-.1-.23-.2-.46-.3-.69,1.18,.49,2.36,.99,3.55,1.47-1.29-.77-2.6-1.52-3.9-2.28-2.26-5.16-4.7-10.2-7.71-14.94,1.01-.02,1.97-.04,2.88-.06,0,0,0-.3,0-.3-.99-.02-2.05-.05-3.16-.07-1.08-1.67-2.22-3.31-3.46-4.9,0,0-.27,.13-.27,.13,.44,1.6,.96,3.17,1.52,4.72-5.93-.13-13.19-.27-20.62-.41-4.32-1.95-8.67-3.82-13.06-5.59,3.18,1.9,6.4,3.73,9.65,5.53-10.69-.19-21.32-.37-28.41-.46-4.19-.11-8.37-.19-12.56-.25-1.2-.52-2.4-1.06-3.61-1.57,.92,.53,1.86,1.04,2.78,1.56-.71,0-1.42-.02-2.13-.02-1.44-2.9-2.88-5.79-4.29-8.66,1.09,2.58,2.38,5.49,3.8,8.66-12.43-.11-24.86,.11-37.28,1-.8-1.48-1.6-2.96-2.42-4.43l-.27,.13c.61,1.46,1.24,2.91,1.87,4.36-1.23,.09-2.47,.17-3.7,.28,0,0,0,.3,0,.3,1.36,.12,2.72,.2,4.08,.3,.6,1.37,1.2,2.75,1.79,4.12-4.22-1.91-8.46-3.79-12.72-5.61,4.48,2.55,9,5.03,13.53,7.47,2.79,6.26,5.68,12.57,8.63,18.93-1.13-.49-2.26-.99-3.4-1.48,1.22,.69,2.44,1.36,3.66,2.05,1.35,2.9,2.72,5.82,4.1,8.74-.05,0-.11,0-.16,.01,0,0,0,.3,0,.3,.11,0,.21,.01,.32,.02,1.92,4.06,3.86,8.14,5.82,12.23-6.36-2.96-12.75-5.84-19.2-8.59,6.74,3.83,13.55,7.53,20.42,11.11,3.56,7.39,7.19,14.8,10.86,22.23-1.68-.73-3.35-1.47-5.03-2.19,1.81,1.03,3.63,2.04,5.46,3.05,2.81,5.68,5.64,11.37,8.48,17.05-.55-.24-1.1-.48-1.65-.72,.59,.34,1.19,.67,1.79,1,3.39,6.78,6.8,13.56,10.2,20.31-3.98-1.8-7.97-3.57-11.99-5.28,4.28,2.43,8.59,4.8,12.92,7.14,2.31,4.59,4.62,9.17,6.92,13.73-2.34-1.03-4.68-2.06-7.03-3.06,2.54,1.44,5.09,2.87,7.64,4.28,2.57,5.1,5.12,10.17,7.66,15.21-1.99-.84-3.98-1.66-5.99-2.46,2.22,1.33,4.46,2.63,6.71,3.9,1.55,3.09,3.09,6.16,4.62,9.22-.14,.26-.28,.53-.42,.79-1.67,3.23-3.33,6.5-4.99,9.79-2.73-1.18-5.48-2.34-8.24-3.44,2.55,1.53,5.13,3.01,7.73,4.47-3.96,7.87-7.91,15.89-11.83,24.01-1.78-.72-3.57-1.43-5.37-2.09,1.62,1.03,3.27,2.03,4.93,3.01-1.71,3.55-3.42,7.11-5.13,10.7-.9-.35-1.8-.71-2.7-1.04,.82,.52,1.64,1.02,2.47,1.52-2.21,4.65-4.42,9.32-6.63,14.02-.21-.08-.42-.16-.63-.24,.19,.12,.38,.23,.58,.36-1.56,3.33-3.12,6.66-4.67,10-2.81-1.2-5.66-2.34-8.53-3.41,2.6,1.65,5.23,3.23,7.91,4.75-3.91,8.41-7.79,16.85-11.65,25.28-1.33-.53-2.67-1.05-4.01-1.54,1.22,.77,2.44,1.52,3.68,2.27-2.17,4.74-4.34,9.48-6.5,14.2-3.22-1.55-6.45-3.09-9.69-4.6,3.1,1.81,6.22,3.61,9.34,5.38-.7,1.53-1.39,3.04-2.09,4.56-3.52,.19-7.05,.4-10.57,.69,0,0,0,.3,0,.3,3.27,.27,6.55,.47,9.82,.65-.79,1.73-1.58,3.46-2.37,5.19-1.38-.6-2.75-1.21-4.13-1.8,1.31,.74,2.63,1.47,3.95,2.2-4.29,9.38-8.55,18.67-12.77,27.8-2.43,.15-4.85,.31-7.28,.5,0,0,0,.3,0,.3,2.23,.17,4.47,.32,6.7,.46-1.53,3.29-3.05,6.57-4.56,9.82,1.53-2.83,3.25-6.14,5.1-9.78,12.3,.74,24.61,.93,36.92,.85-1.26,2.97-2.54,5.94-3.76,8.93,0,0,.27,.13,.27,.13,1.64-3,3.22-6.04,4.81-9.07,5.87-.05,11.74-.15,17.61-.29,3.51-.04,7.81-.1,12.54-.17-1.31,2.66-2.62,5.31-3.92,7.94,1.34-2.35,2.82-5.03,4.4-7.95,1.13-.02,2.28-.03,3.45-.05,.81,.35,1.62,.71,2.43,1.06-.63-.36-1.28-.71-1.91-1.07,11.04-.17,23.7-.38,34.14-.58-1.43,3.16-2.88,6.3-4.26,9.49l.27,.14c1.85-3.19,3.61-6.43,5.41-9.65,3.65-.07,6.98-.13,9.84-.19,1.23,.58,2.46,1.18,3.7,1.75-1.02-.6-2.04-1.18-3.07-1.77,.02,0,.04,0,.06,0,0,0,0-.3,0-.3-.2,0-.4,0-.6-.01-2.45-1.42-4.89-2.83-7.35-4.22,2.02-3.72,4.03-7.48,6.04-11.28,1.01,.45,2.02,.91,3.04,1.36-.94-.58-1.89-1.15-2.84-1.73,3.25-6.14,6.48-12.35,9.71-18.64,.1,0,.21,0,.32,0,0,0,0-.3,0-.3-.05,0-.11,0-.16,0,1.18-2.3,2.36-4.6,3.54-6.92,.19,.07,.37,.16,.56,.23-.17-.11-.34-.22-.51-.33,1.53-3.02,3.07-6.04,4.59-9.08,.24,.09,.47,.2,.7,.29-.21-.14-.43-.28-.64-.42,3.55-7.06,7.08-14.16,10.6-21.3,.12,.05,.24,.1,.35,.15-.11-.07-.22-.14-.32-.21,1.56-3.17,3.12-6.34,4.68-9.51,.44,.18,.87,.36,1.31,.54-.39-.26-.8-.52-1.19-.78,1.47-3,2.94-6,4.4-9,.53,.21,1.05,.44,1.58,.65-.47-.32-.96-.62-1.43-.93,3.46-7.09,6.9-14.17,10.32-21.22,.48,.19,.95,.4,1.42,.58-.43-.29-.87-.56-1.3-.84,1.39-2.86,2.77-5.71,4.15-8.55,.61,.25,1.22,.51,1.84,.75-.55-.37-1.12-.73-1.67-1.09,1.05-2.16,2.1-4.31,3.14-6.46,.39,.16,.77,.32,1.15,.47-.35-.23-.7-.45-1.05-.68,.86-1.76,1.72-3.53,2.57-5.28,.44,.18,.88,.37,1.32,.54-.4-.27-.81-.52-1.21-.79,.66-1.36,1.32-2.7,1.98-4.05,.49,.2,.97,.4,1.45,.6Zm-86,91.4c6.46,4.08,13.19,7.75,20.12,10.98-7.95-.15-17.01-.31-25.5-.45,1.81-3.54,3.61-7.07,5.38-10.53Zm-7.97,12.32c-.06,.13-.12,.25-.18,.38-.25-.12-.49-.24-.74-.36,.31,0,.62,0,.92-.01Zm-4.27,.07c1.1,.63,2.22,1.25,3.33,1.87-1.7,3.5-3.39,6.98-5.08,10.45-7.82-4.07-15.7-8.03-23.63-11.9,3.53-.06,7.06-.12,10.59-.21,4.04-.05,9.17-.13,14.8-.21Zm-11.88,32.83c-7.74-4.3-15.56-8.43-23.47-12.41,1.53-3.06,3.06-6.13,4.59-9.23,7.85,4.1,15.76,8.08,23.71,11.97-1.59,3.24-3.17,6.47-4.75,9.68-.03,0-.06,0-.09,0Zm-17.98-23.47c1.3-2.64,2.6-5.29,3.89-7.96,7.72,4.35,15.49,8.6,23.32,12.74-1.29,2.66-2.59,5.31-3.88,7.94-7.72-4.34-15.5-8.59-23.34-12.72Zm-2.36-1.25c-4.96-2.6-9.94-5.14-14.95-7.66,6.15,.09,12.31,.09,18.47,.02-1.18,2.54-2.35,5.09-3.52,7.64Zm11.29-231.7c-9.02-4.91-18.17-9.61-27.42-14.07,6.93,.23,13.86,.29,20.8,.25,2.24,4.68,4.47,9.32,6.62,13.82Zm-6.38-16.82c-2.83-5.61-5.64-11.19-8.42-16.73,12.01,6.12,24.21,11.85,36.59,17.19-3.99-.06-7.62-.12-10.61-.16-5.86-.15-11.71-.26-17.56-.3ZM117.29,12.81c1.58,4.3,3.54,8.42,5.71,12.44-7.74-4.33-15.64-8.36-23.69-12.08,6.5-.12,12.76-.25,17.99-.36Zm-60.93,1.12c18.46,10.16,37.41,19.4,56.79,27.66-17.77-10.12-36.04-19.36-54.71-27.7,2.07-.04,4.14-.09,6.21-.14,2.48-.03,5.4-.08,8.59-.13,19.09,10.82,38.79,20.56,59,29.11-18.86-10.82-38.36-20.53-58.34-29.12,6.54-.1,14.2-.24,21.74-.37,9.21,4.99,18.64,9.57,28.27,13.7,.62,1.12,1.25,2.23,1.89,3.34,2.65,4.85,6.16,11.26,9.27,16.8-11.52-.24-27.36-.53-39.8-.73-12.62-7.13-25.47-13.83-38.55-20.08-2.06-4.1-4.11-8.19-6.13-12.25,1.91-.02,3.83-.05,5.74-.09Zm-44.44-.86c12.68,.89,25.37,1.09,38.07,.95,1.65,3.62,3.45,7.52,5.35,11.58-7.6-3.61-15.27-7.07-23.01-10.38,8.01,4.55,16.11,8.93,24.3,13.13,2.22,4.72,4.55,9.63,6.91,14.58-15.96-9.05-32.31-17.38-49-25-.88-1.62-1.75-3.24-2.62-4.87Zm3.79,7.08c15.64,8.32,31.63,15.99,47.91,22.97,.44,.92,.88,1.84,1.31,2.75-8.08-.03-16.15,.07-24.22,.43-4.97-2.35-9.97-4.64-15-6.85-3.28-6.47-6.61-12.91-10.01-19.3Zm10.61,20.5c3.6,1.99,7.23,3.93,10.87,5.84-2.56,.14-5.12,.3-7.68,.5-1.06-2.12-2.13-4.23-3.19-6.34Zm11.85,23.95c13.04,6.67,26.32,12.9,39.8,18.65-13.45-7.66-27.19-14.81-41.16-21.46-2.27-4.68-4.57-9.35-6.89-14,3.68,.27,7.36,.51,11.04,.67,10.78,5.58,21.71,10.85,32.79,15.79,4.73,9.86,9.04,18.9,12.18,25.71,3,6.44,6.03,12.88,9.1,19.31-15.19-8.31-30.72-16-46.54-23.04-3.39-7.22-6.82-14.43-10.3-21.63Zm14,29.53c-1-2.15-2.01-4.31-3.02-6.46,15.19,8.3,30.72,15.99,46.54,23.02,2.53,5.29,5.08,10.57,7.65,15.83-15.22-8.19-30.78-15.75-46.62-22.67-1.69-3.56-3.23-6.85-4.55-9.72Zm4.94,10.55c15.38,8.56,31.11,16.47,47.15,23.72,3.33,6.78,6.72,13.54,10.16,20.26-15.63-8.82-31.64-16.97-47.97-24.43-3.34-6.97-6.53-13.64-9.34-19.55Zm10.36,21.69c15.38,8.19,31.1,15.74,47.11,22.63,2.52,4.91,5.06,9.8,7.64,14.67-15.79-8.73-31.96-16.77-48.45-24.11-2.11-4.42-4.23-8.85-6.31-13.19Zm7.02,14.67c15.77,8.61,31.9,16.55,48.34,23.78,.18,.34,.36,.68,.54,1.02,.1,.18,.19,.35,.29,.53-1.38,2.72-2.84,5.62-4.34,8.66-9.67-5.78-19.66-11.03-29.89-15.75,.46-1.1,.93-2.21,1.39-3.32l-.27-.13c-.58,1.05-1.13,2.12-1.7,3.18-2.45-1.13-4.92-2.23-7.4-3.29-2.23-4.75-4.58-9.69-6.95-14.67Zm7.73,16.33c1.92,1.08,3.86,2.14,5.8,3.17-.77,1.45-1.53,2.9-2.3,4.36-1.12-2.43-2.3-4.95-3.51-7.53Zm3.83,9.87c2.42,4.85,4.83,9.68,7.18,14.45-1.82-4.3-4.17-9.53-6.82-15.3,.77-1.82,1.55-3.65,2.32-5.47,9.92,5.26,20.11,10.01,30.53,14.2-2.61,5.27-5.38,10.93-8.19,16.72-9.51-5.41-19.31-10.32-29.32-14.73,1.45-3.29,2.89-6.58,4.3-9.87Zm-16.43,36.49c8.75,5,17.9,9.29,27.36,12.78-8.51-5.42-17.48-10.11-26.76-14.05,3.74-8,7.4-16.03,10.98-24.1,9.56,5.3,19.38,10.11,29.43,14.41-1.77,3.65-3.56,7.35-5.33,11.03-8.96-5.17-18.35-9.59-28.05-13.18,8.73,5.55,17.94,10.35,27.48,14.36-4.01,8.33-7.94,16.5-11.44,23.73-9.06-5.7-18.62-10.6-28.54-14.63,1.64-3.44,3.26-6.88,4.88-10.33Zm-5.32,11.27c9.21,5.45,18.89,10.09,28.91,13.85-2.53,5.21-4.84,9.93-6.8,13.86-9.1-5.56-18.69-10.31-28.62-14.21,2.18-4.49,4.36-8.99,6.51-13.5Zm-14,28.77c.59-1.19,1.17-2.39,1.76-3.58,7.91,4.34,16.14,8.12,24.61,11.24-7.62-4.85-15.6-9.11-23.85-12.78,1.57-3.18,3.13-6.37,4.68-9.56,9.11,5.55,18.7,10.3,28.63,14.18-3.91,7.91-7.79,15.85-11.62,23.82-9.1-5.29-18.65-9.8-28.52-13.45,8.89,5.65,18.26,10.52,27.99,14.57-1.83,3.81-3.65,7.63-5.45,11.46-9.06-5.74-18.64-10.66-28.56-14.72,3.92-8.12,7.49-15.49,10.34-21.18Zm-10.81,22.16c9.24,5.44,18.95,10.08,29,13.82-.64,1.37-1.28,2.74-1.92,4.11-1.34-.02-2.69-.04-4.03-.05-2.63-1.26-5.26-2.51-7.9-3.75,2.16,1.26,4.32,2.5,6.49,3.74-6.64-.05-13.29-.02-19.93,.16-2.8-1.39-5.61-2.76-8.42-4.12,2.29-4.76,4.55-9.44,6.7-13.92Zm-7.12,14.78c1.98,1.12,3.97,2.23,5.96,3.34-2.57,.08-5.15,.19-7.72,.31,.59-1.22,1.18-2.44,1.76-3.66Zm-2.64,5.47c4.43,.23,8.86,.39,13.3,.49,5.91,3.26,11.85,6.46,17.82,9.6-1.43,3.14-2.85,6.29-4.25,9.44-9.75-4.87-19.62-9.49-29.6-13.86,.91-1.88,1.82-3.77,2.74-5.66Zm-16.33,33.26c4.03-7.96,8.65-17.4,13.34-27.08,9.55,5.31,19.22,10.38,29.02,15.21-1.39,3.13-2.76,6.26-4.12,9.4-8.77-5.21-18.2-9.27-28-12.09,8.74,5.26,18.14,9.39,27.92,12.26-.22,.5-.44,1-.65,1.5-12.51-.1-25.02,.07-37.52,.8Zm39.11-.79c1.72-3.35,3.45-6.74,5.16-10.16,7.52,3.68,15.12,7.21,22.78,10.6-4.47-.07-8.54-.12-11.87-.16-5.36-.13-10.71-.23-16.07-.28Zm30.19,.47c1.57-2.91,3.23-6.03,4.95-9.31,4.64,2.26,9.29,4.5,13.97,6.68-4.46-2.61-8.94-5.16-13.44-7.7,1.33-2.54,2.7-5.17,4.09-7.85,9.77,5.15,19.62,10.14,29.56,14.96-.47,1.02-.95,2.03-1.41,3.05-.12,.26-.24,.52-.36,.79-11.41-.21-25.58-.45-37.36-.63Zm47.55,.83c-2.58-.05-5.53-.11-8.72-.17,.04-.07,.07-.13,.11-.2,.54-.98,1.07-1.99,1.61-2.97,2.33,1.13,4.67,2.24,7.01,3.34Zm-7.97-5.01c-9.6-5.43-19.3-10.69-29.07-15.8,1.75-3.37,3.52-6.82,5.3-10.29,9.51,5.28,19.23,10.18,29.14,14.67-1.81,3.8-3.6,7.6-5.36,11.42Zm-22.95-27.69c.18-.35,.36-.7,.54-1.06,9.38-.15,19.54-.33,28.18-.5,2.25,1.02,4.52,1.99,6.81,2.91-2.33,4.75-4.64,9.51-6.91,14.28-9.32-5.6-18.87-10.81-28.62-15.63Zm35.65,1.11c-1.41-.93-2.82-1.83-4.26-2.72,2-.04,3.9-.08,5.66-.11-.47,.94-.94,1.89-1.4,2.83Zm1.62-3.28c-2.15-.04-4.51-.09-7.02-.14-7.38-4.49-15.07-8.45-23.01-11.84,1.93-3.78,3.81-7.47,5.62-10.99,9,5.83,18.5,10.85,28.39,14.99-1.33,2.66-2.66,5.32-3.98,7.98Zm4.28-8.59c-9.02-5.79-18.56-10.75-28.46-14.84,1.56-3.05,3.06-5.97,4.48-8.71,8.97,5.82,18.46,10.84,28.32,14.97-1.45,2.86-2.9,5.72-4.34,8.58Zm4.66-9.21c-9-5.77-18.53-10.71-28.41-14.79,1.73-3.35,3.33-6.41,4.76-9.1,8.82,5.39,18.09,10.03,27.7,13.82-8.58-5.76-17.67-10.75-27.12-14.94,1.82-3.47,3.63-6.95,5.44-10.44,8.97,5.76,18.45,10.72,28.3,14.8-3.59,6.86-7.15,13.75-10.67,20.66Zm12.48-24.11c-.51,.98-1.03,1.97-1.54,2.95-8.96-5.79-18.42-10.77-28.26-14.88,1.56-3.01,3.11-6.03,4.66-9.05,8.97,5.81,18.44,10.83,28.3,14.96-1.12,2.16-2.18,4.18-3.16,6.02Zm3.48-6.65c-9-5.76-18.52-10.71-28.4-14.78,1.49-2.91,2.97-5.83,4.45-8.75,8.98,5.83,18.47,10.87,28.35,15.01-1.55,3.01-3.02,5.88-4.4,8.52Zm4.73-9.17c-9.02-5.77-18.56-10.72-28.46-14.8,1.55-3.07,3.09-6.14,4.61-9.22,8.9,5.46,18.25,10.15,27.97,13.98-8.68-5.82-17.87-10.85-27.42-15.08,1.76-3.54,3.5-7.09,5.22-10.65,9.08,5.87,18.68,10.92,28.66,15.07-3.69,7.21-7.29,14.28-10.58,20.68Zm10.85-21.22c-9.09-5.86-18.71-10.89-28.7-15.02,1.36-2.8,2.71-5.61,4.04-8.42,9.13,5.94,18.79,11.06,28.85,15.25-1.4,2.73-2.8,5.47-4.2,8.2Zm4.49-8.77c-9.17-5.89-18.87-10.94-28.95-15.08,1-2.1,2-4.21,2.99-6.31,9.22,5.95,18.98,11.06,29.14,15.23-1.05,2.04-2.11,4.1-3.17,6.16Zm3.39-6.58c-9.21-5.99-18.97-11.12-29.11-15.33,.79-1.69,1.57-3.38,2.35-5.07,9.29,6.01,19.12,11.17,29.35,15.38-.86,1.65-1.72,3.33-2.59,5.01Zm2.81-5.44c-9.28-6.03-19.12-11.2-29.36-15.42,.36-.79,.74-1.58,1.1-2.37,.23-.52,.47-1.03,.7-1.55,9.34,6.07,19.24,11.27,29.55,15.51-.66,1.26-1.32,2.53-1.99,3.82Z"
              style="fill:#fff;"/>
        <polygon points="238.26 12.55 259.74 47.41 121.95 320.18 100.53 285.25 238.26 12.55"
                 style="fill:url(#linear-gradient-2);"/>
        <polygon
                points="349.64 12.55 238.21 12.55 259.7 47.41 294.03 47.41 236.81 166.33 294.03 285.25 226.97 285.25 244.64 320.18 349.64 320.25 275.56 166.4 349.64 12.55"
                style="fill:#fff;"/>
    </g>
</svg>