<?xml version="1.0" encoding="UTF-8"?>
<!DOCTYPE svg PUBLIC "-//W3C//DTD SVG 1.1//EN" "http://www.w3.org/Graphics/SVG/1.1/DTD/svg11.dtd">
<svg xmlns="http://www.w3.org/2000/svg" version="1.1" width="1070px" height="381px" style="shape-rendering:geometricPrecision; text-rendering:geometricPrecision; image-rendering:optimizeQuality; fill-rule:evenodd; clip-rule:evenodd" xmlns:xlink="http://www.w3.org/1999/xlink">
<g><path fill="#fff" d="M 356.5,-0.5 C 358.167,-0.5 359.833,-0.5 361.5,-0.5C 362.261,0.390917 363.261,1.05758 364.5,1.5C 365.327,5.45922 365.827,9.45922 366,13.5C 367.921,69.5042 367.921,125.504 366,181.5C 364.53,183.152 362.697,184.152 360.5,184.5C 356.975,183.488 353.808,181.821 351,179.5C 348.814,121.483 349.148,63.4831 352,5.5C 352.804,2.85408 354.304,0.854084 356.5,-0.5 Z"/></g>
<g><path fill="#fff" d="M 480.5,11.5 C 489.261,12.7674 492.761,17.7674 491,26.5C 488.226,32.3528 483.726,34.0194 477.5,31.5C 471.455,23.4628 472.455,16.7961 480.5,11.5 Z"/></g>
<g><path fill="#fff" d="M 418.5,12.5 C 421.93,12.1065 425.096,12.7732 428,14.5C 429.388,28.455 429.888,42.455 429.5,56.5C 437.903,56.1301 446.236,56.6301 454.5,58C 460.046,63.223 459.713,67.8896 453.5,72C 445.507,72.4997 437.507,72.6664 429.5,72.5C 429.885,108.85 429.385,145.184 428,181.5C 426.53,183.152 424.697,184.152 422.5,184.5C 419.838,183.503 417.172,182.503 414.5,181.5C 413.676,178.215 413.176,174.882 413,171.5C 411.691,138.514 411.191,105.514 411.5,72.5C 403.097,72.8699 394.764,72.3699 386.5,71C 381.632,64.8128 382.965,60.4794 390.5,58C 397.437,56.7122 404.437,56.2122 411.5,56.5C 411.015,42.7449 411.849,29.0783 414,15.5C 415.652,14.6006 417.152,13.6006 418.5,12.5 Z"/></g>
<g><path fill="#fff" d="M 522.5,52.5 C 525.89,52.7774 529.057,53.7774 532,55.5C 533.145,60.0826 533.811,64.7492 534,69.5C 554.974,50.3141 577.807,47.8141 602.5,62C 605.071,65.9834 608.405,69.15 612.5,71.5C 636.123,49.9745 662.123,46.8078 690.5,62C 697.768,69.6023 702.935,78.4356 706,88.5C 707.971,119.503 707.971,150.503 706,181.5C 701.667,185.5 697.333,185.5 693,181.5C 691.748,155.847 690.748,130.18 690,104.5C 689.499,94.6344 686.332,85.801 680.5,78C 667.077,69.8522 653.077,68.5189 638.5,74C 629.498,79.3416 623.998,87.175 622,97.5C 621.885,124.854 621.219,152.187 620,179.5C 617.05,184.338 612.883,185.671 607.5,183.5C 606.416,182.335 605.583,181.002 605,179.5C 603.781,152.187 603.115,124.854 603,97.5C 596.27,75.2137 581.437,66.3804 558.5,71C 544.956,79.9052 536.789,92.4052 534,108.5C 533.894,132.857 533.227,157.191 532,181.5C 527.97,185.256 523.803,185.422 519.5,182C 518.693,176.917 518.193,171.75 518,166.5C 517.104,129.484 517.438,92.4836 519,55.5C 520.145,54.3636 521.312,53.3636 522.5,52.5 Z"/></g>
<g><path fill="#fff" d="M 779.5,52.5 C 806.093,53.6979 825.926,65.6979 839,88.5C 843.845,100.752 845.011,113.252 842.5,126C 808.201,127.892 773.868,129.059 739.5,129.5C 741.394,138.352 744.56,146.685 749,154.5C 755.195,161.014 762.362,166.181 770.5,170C 781.585,170.773 792.585,170.106 803.5,168C 811.685,161.315 819.018,153.815 825.5,145.5C 833.621,143.136 837.454,146.136 837,154.5C 831.411,168.423 821.577,177.923 807.5,183C 793.423,189.411 779.09,190.077 764.5,185C 749.264,178.106 737.43,167.273 729,152.5C 717.897,124.345 721.231,98.012 739,73.5C 750.451,62.3593 763.951,55.3593 779.5,52.5 Z M 776.5,68.5 C 803.295,68.2419 820.295,81.0752 827.5,107C 827.01,108.982 826.01,110.649 824.5,112C 796.809,112.726 769.143,112.226 741.5,110.5C 743.766,88.5743 755.433,74.5743 776.5,68.5 Z"/></g>
<g><path fill="#fff" d="M 119.5,53.5 C 156.941,55.7678 178.274,75.6011 183.5,113C 183.151,117.596 182.317,122.096 181,126.5C 176.251,127.305 171.418,127.805 166.5,128C 136.835,128.5 107.169,128.667 77.5,128.5C 80.7926,147.622 91.1259,161.455 108.5,170C 131.669,175.074 149.336,167.574 161.5,147.5C 167.163,142.995 171.663,143.995 175,150.5C 169.983,168.85 158.15,180.684 139.5,186C 102.643,192.49 77.4765,178.324 64,143.5C 55.1623,110.63 63.6623,83.4632 89.5,62C 98.9391,56.6893 108.939,53.856 119.5,53.5 Z M 119.5,69.5 C 136.112,68.9558 148.945,75.6225 158,89.5C 160.333,93.5 162.667,97.5 165,101.5C 165.695,104.996 165.195,108.33 163.5,111.5C 136.84,112.667 110.173,112.833 83.5,112C 81.0295,109.934 79.6962,107.267 79.5,104C 82.0386,90.1418 89.7052,80.4751 102.5,75C 108.137,72.6825 113.803,70.8492 119.5,69.5 Z"/></g>
<g><path fill="#fff" d="M 247.5,53.5 C 265.599,51.6938 282.266,55.5271 297.5,65C 299.667,68.5 302.5,71.3333 306,73.5C 307.082,68.7522 308.415,64.0855 310,59.5C 313.487,56.2007 317.153,55.8674 321,58.5C 323.942,97.7949 324.276,137.128 322,176.5C 322.219,183.151 319.053,185.651 312.5,184C 308.67,179.526 306.17,174.359 305,168.5C 277.721,193.342 249.221,194.842 219.5,173C 194.92,149.036 189.42,121.203 203,89.5C 213.004,71.3108 227.837,59.3108 247.5,53.5 Z M 255.5,70.5 C 267.113,70.3199 278.113,72.8199 288.5,78C 313.355,105.727 313.688,133.727 289.5,162C 276.177,169.763 261.843,172.43 246.5,170C 216.841,153.838 207.341,129.671 218,97.5C 220.667,93.5 223.333,89.5 226,85.5C 230.133,82.3689 233.966,78.8689 237.5,75C 243.468,72.8413 249.468,71.3413 255.5,70.5 Z"/></g>
<g><path fill="#fff" d="M -0.5,172.5 C -0.5,154.5 -0.5,136.5 -0.5,118.5C -3.47607,96.262 3.19059,77.4286 19.5,62C 30.5855,54.5684 42.5855,52.5684 55.5,56C 58.1667,59.6667 58.1667,63.3333 55.5,67C 40.0293,67.8103 28.196,74.6437 20,87.5C 18.4384,118.157 17.105,148.824 16,179.5C 5.86449,187.487 0.364492,185.154 -0.5,172.5 Z"/></g>
<g><path fill="#fff" d="M 478.5,56.5 C 482.803,55.7962 486.303,57.1295 489,60.5C 490.239,66.0555 490.906,71.7222 491,77.5C 491.894,111.518 491.56,145.518 490,179.5C 485,186.167 480,186.167 475,179.5C 473,140.167 473,100.833 475,61.5C 476.176,59.8043 477.343,58.1376 478.5,56.5 Z"/></g>
<g><path fill="#fff" d="M 814.5,190.5 C 817.829,190.998 820.995,191.998 824,193.5C 826,253.5 826,313.5 824,373.5C 818.343,377.903 813.343,377.236 809,371.5C 807,312.833 807,254.167 809,195.5C 810.73,193.598 812.563,191.931 814.5,190.5 Z"/></g>
<g><path fill="#fff" d="M 959.5,190.5 C 962.675,190.503 965.508,191.503 968,193.5C 970.149,239.849 969.816,286.182 967,332.5C 959.655,353.845 945.489,368.678 924.5,377C 902.408,383.117 882.741,378.784 865.5,364C 850.109,349.979 842.109,332.479 841.5,311.5C 841.88,298.863 845.38,287.197 852,276.5C 869.803,250.116 894.303,240.616 925.5,248C 934.982,251.16 943.149,256.327 950,263.5C 951.464,260.934 952.631,258.267 953.5,255.5C 950.379,234.723 950.879,214.057 955,193.5C 956.652,192.601 958.152,191.601 959.5,190.5 Z M 905.5,261.5 C 935.259,265.283 950.592,282.283 951.5,312.5C 951.513,332.985 942.846,348.485 925.5,359C 918.828,360.835 912.161,362.668 905.5,364.5C 897.296,362.616 889.296,360.116 881.5,357C 856.32,334.108 852.486,307.942 870,278.5C 879.659,268.123 891.492,262.456 905.5,261.5 Z"/></g>
<g><path fill="#fff" d="M 656.5,380.5 C 652.833,380.5 649.167,380.5 645.5,380.5C 614.305,375.138 594.805,357.138 587,326.5C 582.004,289.543 596.504,263.71 630.5,249C 645.494,243.047 660.494,243.047 675.5,249C 683.653,252.574 691.32,256.907 698.5,262C 719.16,283.512 724.994,308.679 716,337.5C 704.661,363.684 684.827,378.017 656.5,380.5 Z"/></g>
<g><path fill="#fff" d="M 778.5,244.5 C 789.042,242.886 793.876,247.219 793,257.5C 783.924,261.068 774.757,264.568 765.5,268C 759.337,274.841 754.837,282.675 752,291.5C 751.776,316.843 751.276,342.176 750.5,367.5C 750.934,372.881 748.434,375.881 743,376.5C 738.876,375.78 736.21,373.446 735,369.5C 733.462,350.862 733.128,332.195 734,313.5C 734.214,301.694 735.547,290.028 738,278.5C 744.648,259.02 758.148,247.686 778.5,244.5 Z"/></g>
<g><path fill="#fff" d="M 1069.5,333.5 C 1069.5,337.833 1069.5,342.167 1069.5,346.5C 1066.62,365.714 1055.62,377.047 1036.5,380.5C 1031.17,380.5 1025.83,380.5 1020.5,380.5C 1012.7,377.945 1005.04,374.778 997.5,371C 984.798,361.048 980.631,348.215 985,332.5C 989.193,329.715 993.193,330.048 997,333.5C 999.71,342.753 1003.88,351.253 1009.5,359C 1018.84,363.192 1028.51,364.192 1038.5,362C 1052.16,352.782 1054.16,341.449 1044.5,328C 1030.67,320.948 1016.67,314.281 1002.5,308C 995.115,302.747 990.615,295.58 989,286.5C 985.81,267.334 993.31,254.168 1011.5,247C 1026.33,242.355 1040.33,244.021 1053.5,252C 1064.58,261.656 1066.92,272.99 1060.5,286C 1057.83,286.667 1055.17,286.667 1052.5,286C 1050.28,279.39 1047.11,273.223 1043,267.5C 1031.73,257.936 1020.73,258.269 1010,268.5C 1004.78,275.91 1004.95,283.41 1010.5,291C 1026.67,299.921 1043.01,308.588 1059.5,317C 1064.27,321.726 1067.61,327.226 1069.5,333.5 Z"/></g>
<g><path fill="#fff" d="M 532.5,380.5 C 526.833,380.5 521.167,380.5 515.5,380.5C 510.177,378.992 504.844,377.159 499.5,375C 493.689,370.69 488.023,366.19 482.5,361.5C 475.349,372.405 465.349,378.738 452.5,380.5C 446.833,380.5 441.167,380.5 435.5,380.5C 414.666,378.319 401.833,366.986 397,346.5C 395.467,318.519 395.134,290.519 396,262.5C 396.175,258.789 396.675,255.122 397.5,251.5C 402.285,247.357 406.451,248.023 410,253.5C 411.228,280.478 411.895,307.478 412,334.5C 413.599,342.52 416.432,350.02 420.5,357C 432.789,364.438 445.789,366.105 459.5,362C 466.648,355.854 471.815,348.354 475,339.5C 475.333,314.167 475.667,288.833 476,263.5C 476.2,259.247 476.7,255.08 477.5,251C 481.798,247.615 485.965,247.781 490,251.5C 491.22,279.147 491.887,306.813 492,334.5C 496.507,357.981 510.674,367.815 534.5,364C 546.448,357.27 553.281,347.103 555,333.5C 555.104,306.145 555.77,278.812 557,251.5C 561.303,248.921 565.637,248.921 570,251.5C 571.551,274.142 571.885,296.808 571,319.5C 570.704,329.907 569.704,340.241 568,350.5C 562.119,367.548 550.286,377.548 532.5,380.5 Z"/></g>
</svg>
