<?xml version="1.0" encoding="UTF-8"?>
<svg id="Layer_2" data-name="Layer 2" xmlns="http://www.w3.org/2000/svg" viewBox="0 0 2490.13 1599.97">
  <defs>
    <style>
      .supports {
        fill: #fff;
      }
      .track {
        fill: none;
      }
      .car {
        fill: #2e9b26;
        height: 70px;
        stroke: #656565;
        stroke-width: 5px;
        width: 150px;
      }
    </style>
  </defs>
  <path class="supports" d="M577.19,232.7c5.68-3.88,50.52-42.93,51.52-43.86,4.39-3.91,7.25-5.57,13.92-10.63l25.9-16.88c15.74-9.6,28.25-23.07,44.69-31.52l9.82-6.2,22.85-12.37c13.12-4.18,10.16-22.96,10.19-49.48-20.5-.79-41.12,19.28-54.14,3.15,4.02-2.17,8.42-3.45,12.55-5.37-4.78-3.17-11.18-4.8-13.25-10.82,26.02-2.42,33.42-10.58,51.66-10.3.97-2.3,1.73-4.76,3.48-6.63,9.56.75,3.27,3.79,4.26,13.47,1.08,18.45-.1,36.93.34,55.39,18.42.91,16.59-9.31,69.62-20.45l24.06-4.39c10.99-2.27,27.22-3.06,33.74-6.58.05-11.82.01-23.64.04-35.46,0,0-16.32-6.32-22.03-6.11-19.63.71-33.18-9.2-33.18-9.2,0,0,24.08-3.8,31.67-6.59,18.07-6.63,26.33-5.48,26.33-5.48l2.06-6.4c1.17,4.31-.01,8.71-.13,13.07-5.91,99.66-.55,32.24,113.8,81.81,3.84,1.76,8.08,1.76,12.21,1.5.17-12.57.03-25.14.09-37.71-16.18-10.74-40.11,7.5-53.57-5.19,4.36-3.01,9.59-4.17,14.42-6.22-1.8-1.36-29.47-15.6-3.1-12.3,13.16,2.43,25.58-5.29,38.77-3.54,1.8-3.35,4.56-6.1,8.68-5.13.9,3.3.53,6.67-.97,9.73,3.35,18.18-2.26,36.5-.22,54.73.22,5.23,4.57,8.82,5.98,13.66,120.23,62.76,178.4,172.97,258.68,269.71,36.17,44.1,190.41,204.39,309.16,245.3,151.27,51.78,239.03-58.89,423.32-61.04,104.92-1.12,204.42,35.71,292.02,115.06,33.66,30.7,65.82,57.78,117.85,66.72,32.6,6.24,56.87.54,59.86,7.14v3.47c-.23.64-.69,1.91-.91,2.54-31.13,2.95-62.56-1.86-92.68-9.63-20.84-7.66-39.46-20.11-57.81-32.39-.3,62.32-.47,59.15,1.26,60.24,9.83,8.69,67.9,29.42,119.07,28.73,11.74.21,29.95.76,31.06,12.43,0,14.84-11.49,5.61-21.14,16.86,5.51.82,12.44-2.1,17,2.13.91,11.56-21.57,1.59-27.13,7.68-4.43,4.11-37.78,34.76-42.74,42.59,17.83,18.22,37.09,35,55.14,53.01,5.05,5.8,10.32,12.98,18.88,12.96v7.93c-3.95.17-7.89.3-11.81.28-22.33,25.04-42.09,52.22-63.21,78.26,22.71,30.65,47.69,59.52,70.45,90.12-.35-3.97-.6-7.97-.18-11.94,2.92,2.98,3.63,7.21,4.75,11.09v24.75c-1.19,4.23-1.5,9.02-4.7,12.35-.23-2.63-.34-5.28-.44-7.9-23.3,32.83-47.44,65.08-69.9,98.49,20.46,29.39,41.43,58.42,62.54,87.34,4.17-.23,8.47-.51,12.5,1.05v7.32c-3.17.13-6.32.26-9.45.35-21.94,36.96-42.21,74.87-63.6,112.15-4.16,7.49-6.35.28,51.36,103.47,6.64,11.78,16.21,22.75,17.09,36.89-7.46.96-20.58-37.57-75.3-127.56-24.88,47.34-63.78,108.91-68.66,127.4-5.85-.03-11.68.03-17.5-.09-7.68-20.76-20.68-38.88-31.65-57.94-11.68-20.01-21.51-41.2-35.14-60-2.3,3.22-56.23,97.45-67.32,117.49-5.89,1.27-12.3.16-18.39.57-20.37-41.63-46.91-79.82-68.74-120.65-25.1,39.28-48.61,79.58-70.85,120.55-7.29.12-14.58.05-21.86.06-21.27-37.81-40.43-76.75-61.4-114.72-51.25,100.54-54.41,96.47-57.6,114.75-8.05-.05-16.08-.01-24.11-.04-20.98-38.8-41.55-77.83-63.32-116.2-19.62,39.12-43.25,76.17-61.13,116.16-6.64.08-13.29.05-19.92.04,2.67-33.17,1.45-66.49.36-99.7-1.34-45.2,1.96-90.51-1.92-135.63-24.92,46.25-59.2,101.81-67.33,120.15,0,0,65.49,115.16,65.49,115.16-2.46-.04-4.87-.04-7.28-.06-20.18-36.31-41.03-72.23-61.08-108.61-10.1,15.15-58.14,97.02-60.7,108.88,0,0-2.8-.23-17.91-.17-1.05-35.87-3.16-240.52-3.15-241.53-22.9,36.36-42.7,74.54-64.56,111.52,71.7,133.71,58.11,90.68,60.12,118.51-21.52-36.67-42.47-73.65-63.29-110.73-21.88,31.64-37.22,67.19-58.25,99.35-4.48,6.94-7.93,14.62-9.08,22.86-7.82-.01-15.64.03-23.45-.03-19-38.77-38.28-77.42-58.74-115.42-14.3,27.35-27.81,55.12-41.78,82.65-5.27,10.67-13.24,20.58-13.62,32.99h-17.96c.11-18.08-1-227.61-1.01-228.19-19.46,37.51-36.99,75.96-54.79,114.28,17.7,37.99,36.45,75.5,53.73,113.68-2.13,0-4.24.01-6.33.05-17.58-35.24-33.39-71.33-51.33-106.39-16.77,35.49-33.89,70.81-50.54,106.37-7.6.01-15.21.01-22.8.01-.46-1.02-47.03-96.94-55.06-108.65-15.47,36.93-38.01,70.59-51.19,108.52-7.41.25-14.82.09-22.21.13-19.13-37.67-36.97-76-57.32-113.05-18.57,37.71-38.54,74.74-55.89,113.05-5.9,0-11.81-.01-17.7.01-7.22-22.5-55.74-107.4-62.39-118.5-55.15,104.91-59.78,104.93-59.13,118.5-5.98-.03-11.95-.05-17.92.03,1.14-13.61.75-18.36-53.03-121.41-43.11,89.41-53.88,100.85-56.06,121.55h-17.93c2.19-11.7-.88-23.64-6.59-33.89-16.48-29.84-30.4-61.03-47.07-90.77-.53,1-55.99,106.46-62.12,124.66h-18.19c-.86-11.69,1.1-23.34.66-35.02-.56-11.94-9.34-20.96-14.01-31.4-10.87-22.03-25.27-56.25-34.78-68.96-50.84,111.09-67.23,120.08-56.04,135.26-7.54-.13-15.09-.05-22.63-.05,2.6-13.12.17-26.86-6.12-38.59-16.61-30.87-30.01-63.42-48.09-93.51-57.45,115.62-61,112.39-59.02,132.07-7.85.01-15.7.04-23.55-.01-.42-1.01-41.67-91.38-48.85-102.59-23.7,54.83-38.14,74.18-44.69,102.59-6.1.03-12.21.03-18.31.03-.61-77.09-.12-154.2-2.31-231.26-49.68,125.01-49.64,112.21-43.94,126.01,15.52,34.53,28.77,70.03,42.78,105.2-1.57.03-4.71.06-6.28.09-14.88-34.98-27.43-70.92-43.04-105.6-13.4,35.36-28.59,70.03-41.49,105.59-2.35-.05-4.71-.08-7.07-.1,11.51-28.44,22.4-57.15,33.83-85.63,10.9-27.44,15.92-21.42,6.41-44.86C34.82,1439.5,29.08,1418.89,0,1349.76v-24.5c18.01-32.44,34.88-65.52,52.76-98.04-13.13-24.6-26.48-49.1-39.28-73.89-3.98-.79-8.56-1.05-11.55-4.17-.62-2.83-.84-5.76-1.93-8.47v-4.56c.51.92,1.52,2.75,2.02,3.67,4.09-2.71,7.49-6.34,9.67-10.76,50.33-100.91,50.94-60.88,27.92-104.57-11.93-21.77-23.21-43.95-37.02-64.61-.56-2.36-1.53-4.58-2.6-6.72v-6.55c17.62-24.16,35.06-48.45,51.94-73.13-5.68-7.83-12.22-15.08-16.86-23.62-2.72-4.39-5.19-9.69-10.25-11.79-6.14-1.03-12.35,2.49-18.47.53-1.95-.84-4.4-3.52-2.74-5.62,5.33-3.41,12.03-1.4,17.96-1.88-3.76-9.1-15.94-3.71-21.59-10.42v-10.6c1.14-1.69,2.34-3.34,3.5-4.98,21.45-5.14,44.69-3.71,64.71-14.04,3.68-2.54,8.45-1.45,12.41-3.21,4.36-2,8.21-4.92,12.63-6.81,3.17-1.38,6.59-2.05,9.67-3.63,1.13-4.52.76-47.13-.27-63.14C85.73,724.09,26.69,760.3,0,755.42v-8.53c21.35-6.58,87.44-16.93,219.34-131.75,161.24-137.44,176.65-203.42,333.44-358.08M1000.07,43.87c-1.21,1.71,1.78,3.39,3.18,2.41,1.21-1.71-1.79-3.58-3.18-2.41M900.93,83.23c-1.49,16.03-.09,32.09-.05,48.14,38.66,1.48,77.88,9.84,111.63,29.33,1.74-12.47-.21-25.07,1.21-37.57.24-15.46-.17-15.06-20.37-22.28-29.61-10.58-60.82-17.99-92.42-17.62M1031.34,118.14c-.34,17.89.01,35.8-.08,53.69,45.3,33.65,69.46,61.37,80.21,77.79,11.54,10.16,17.95,24.69,29.39,34.91,1.45-21.73-.68-43.52.55-65.27-.1-3.48,2.62-6.07,4.09-9.01-33.79-35.41-70.27-69.57-114.15-92.12M748.5,180.4c0-22.91,1.41-54.91.44-57.78l-108.02,75.79c.84,1.27,0,57.37.81,58.66l106.77-76.68ZM812.23,150.22l23.52-7.82c10.45-2.3,20.82-4.6,31.29-6.78l15.76-2.61c.54-1.3.3-2.5.25-3.76l-.46-14.64c.07-10.41-.16-20.92-.84-31.35-6.41-.18-12.08.09-19.61.81s-69.15,11.35-94.5,28.26c-.6.4-.72,58.25-.55,58.96l40.92-19.42c1.35-.68,2.76-1.24,4.21-1.66ZM900.88,154.9c-.04,3.18-.04,6.36-.03,9.54,6.92-.22,13.74.92,20.62,1.53.49-3.53,1.6-6.94,3.06-10.2-7.88-.38-15.79-2.38-23.66-.87M867.03,156.56c.14,3.14.49,6.28.77,9.42,4.84-.4,9.74-.62,14.55-1.53.65-3.14.22-6.32-.78-9.33-4.83.66-9.69,1.01-14.53,1.44M931.23,155.92c-.22,3.8-1.23,7.47-2.18,11.13,8.2,1.67,16.34,3.62,24.49,5.54,1.65-3.54,3.43-7.01,4.8-10.67-9.01-2.16-18.21-3.47-27.11-6.01M845.36,161.89c.52,2.62.97,5.24,1.45,7.88,5.19-.8,10.43-1.58,15.46-3.21-.34-3.01-.51-6.03-.6-9.07-5.33,1.88-11.02,2.44-16.31,4.4M819.66,169.77c.84,2.38,1.7,4.74,2.63,7.07,6.2-2.48,12.69-4.14,19.26-5.33-.58-2.67-1.13-5.35-1.61-8.03-6.98,1.28-13.78,3.45-20.28,6.29M963.47,164.68c-.99,3.53-2.18,6.98-3.15,10.51,7.67,1.99,14.87,5.38,22.2,8.32,1.13-3.79,3.33-7.1,5.7-10.23-8.05-3.39-16.06-7.15-24.75-8.6M793.42,179.32c1.13,2.05,2.27,4.11,3.34,6.2,6.4-1.87,12.64-4.29,18.7-7.1-.91-2.31-1.58-4.7-2.09-7.12-6.41,3.24-13.24,5.48-19.95,8.02M819.45,185.34c21.01.22,42.02-1.51,63.04-.36.18-3.93.09-7.86-.12-11.79-21.54-.03-42.47,5.97-62.92,12.16M900.8,172.36c-.04,4.71.12,9.42-.13,14.12,21.68-1.65,43.5.64,65.17-1.52-20.8-7.69-42.81-12.46-65.04-12.6M993.06,176.15c-1.25,2.92-2.54,5.83-3.85,8.72,6.18-.04,12.68,1.15,18.57-1.32-4.93-2.44-9.54-5.5-14.71-7.4M779.42,186.38c3.93.13,7.88.17,11.82.05-.66-1.52-1.38-3.04-2.05-4.54-3.41,1.17-6.6,2.84-9.77,4.49M768.97,191.98c4.99,5.12,3.44,5.05,12.81.93-4.23-.71-8.51-1.51-12.81-.93M807.18,192.61c-8.75,1.29-17.76,3.62-24.78,9.26,48.57,27.82,38.05,26.53,45.34,23.46,15.66-9.36,31.01-19.24,46.66-28.64,2.11-1.34,3.66-3.35,5.29-5.23-24.16,1.13-48.44-2.05-72.51,1.14M914.39,192.31c52.55,31.98,41.79,31.59,49.83,27.09,10.3-7.07,21.81-12.65,30.69-21.62-8.32-5.48-18.53-6.23-28.2-5.62-17.43.08-35-2.59-52.32.14M998.2,192.23c2.69,1.97,5.89,1.44,8.33-.64-2.64.12-6.2-1.47-8.33.64M900.92,261.22c17.96-11.33,35.75-22.94,53.02-35.28-17.57-11.87-35.15-23.75-53.02-35.17-.53,23.49-.01,46.95,0,70.45M1008.9,198.25c1.45.77,2.93,1.54,4.43,2.3-.05-1.97-.14-3.95-.32-5.9-1.49,1.05-2.91,2.22-4.1,3.61M831.73,231.26c.13,1.29.8,2.19,2,2.73,16.25,10.06,32.31,20.4,48.7,30.23-.03-21.73,1-43.51-.75-65.21-16.4,11.12-34.06,20.36-49.95,32.25M966.72,225.28c14.26,12.6,30.77,22.29,47.12,31.88-.55-15.82.29-31.65-.65-47.44-4.28-2.21-7.98-5.42-12.47-7.23-10.94,8.18-22.73,15.09-34,22.79M1031.31,200.89c.05,5.87-1.14,13.92,4.97,17.34,2.18-3.18,4.89-5.92,7.64-8.6-4.15-3.01-7.68-6.97-12.61-8.73M735.52,210.4c1,2.14,2.09,4.23,3.24,6.29,3.36-2.3,6.8-4.48,10.34-6.49.08-2.31.16-4.62.12-6.93-5.37.66-8.86,5.19-13.7,7.12M767.72,208.44c.31,18.09-.38,36.19.1,54.29,17.03-9.91,33.97-20.09,50.02-31.56-30.84-17.56-37.19-30.59-50.13-22.73M1042.89,222.9c5.35,4.28,9.21,10.78,16.18,12.67,2.71-1.6,4.35-4.26,5.58-7.07-5.23-4.88-10.45-9.76-15.94-14.34-2.17,2.76-4.42,5.5-5.83,8.75M713.18,224.81c1.43,1.86,2.92,3.67,4.4,5.51,5-2.63,9.17-6.59,14.29-9.03-.47-2.34-1.6-4.43-2.74-6.48-5.28,3.39-10.11,7.51-15.95,9.99M684.16,265.74c21.73.52,43.51,1.17,65.21-.57-.73-15.23.97-30.49-.49-45.7-22.71,13.76-44.24,29.4-64.71,46.27M1032.08,224.31c-.42,2.75-.69,34.15-.65,35.15,7.72-4.37,12.74-12.09,20.09-17.02-5.02-7.48-12.86-12.22-19.44-18.13M1159.39,282.88c-1.39,31.82-10.39,14.98,84.03,126.87,9.15,10.16,16.78,21.97,28.15,29.91.97-20.64-1.64-41.38.83-61.96.12-2.21.93-4.8-.99-6.5-37.34-47.88-71.33-98.52-111.98-143.75-.29,18.46,1.26,36.97-.04,55.43M693.35,239.98c1.21,1.83,2.41,3.67,3.59,5.53,4.87-3.85,10.6-6.7,14.57-11.6-.91-1.65-1.78-3.3-2.66-4.94-5.51,3.18-10.61,6.98-15.51,11.02M920.06,257.02c-4.57,3.14-10.43,4.59-13.55,9.52,89.14-1.03,87.29.4,106.4-.93-17.16-12.51-35.11-23.84-52.89-35.41l-.95.09c-13.22,8.58-25.93,17.94-39.02,26.73M1062.37,240.9c4.36,4.04,7.41,9.46,12.65,12.5,1.83-2.5,6.64-3.05,6.86-6.36-3.98-4.15-8.16-8.14-11.56-12.8-3.28,1.38-6.08,3.63-7.95,6.66M808.51,245.38c-11.02,6.64-22.07,13.22-32.83,20.27,32.13.31,64.35,1.73,96.46-.58-16.29-8.86-37.32-25.85-48.28-29.55-5.62,2.47-10.08,6.8-15.35,9.86M673.59,255.67c.67,2.44,3.65,6.93,6.16,3.74,3.88-3.28,7.95-6.36,11.55-9.98-.95-1.95-1.92-3.88-2.92-5.79-5.39,3.37-9.86,8.08-14.79,12.03M1055.32,246.38c-3.7,3.37-6.71,7.42-10.42,10.77-3.17,2.91-8.05,4.62-8.77,9.39,12.65-1.91,25.5,1.27,38.08-1.3-6.18-6.4-11.24-14.06-18.89-18.87M1079.66,259.67c2.93,6.03,10.74,8.59,16.67,5.41-3.44-3.96-6.28-8.49-10.34-11.87-1.97,2.28-4.11,4.42-6.33,6.46M660.99,265.51c4.09.78,8.38,1.36,12.24-.67-1.21-1.91-2.49-3.75-3.79-5.58-2.96,1.89-5.8,3.97-8.45,6.25M650,275.42c.17,2.22,1.31,4.09,2.71,5.77,3.09-1.27,5.77-3.27,7.75-5.98-3.49-.1-6.98-.09-10.46.21M673.39,275.19c-4.98,3.84-10.24,7.38-14.64,11.91,1.78,4.1,5.92,6.27,8.89,9.39,8.99,9.56,16.82,20.24,26.65,29.01,14.09-17.41,30.79-32.53,44.48-50.28-21.8-.17-43.6-.08-65.39-.04M698.33,329.52c14.95,18.84,31.9,35.96,48.05,53.75.64.2,1.92.61,2.57.82,0,0,1.15-78.84-1.04-108.69-16.58,17.98-32.76,36.35-49.58,54.12M767.91,276.91c18.5,18.05,37.35,35.79,55.2,54.47,10.62-7.22,36.85-35.6,56.45-53.75.31-.6.91-1.8,1.22-2.41-49.21.74-85.02-2.07-112.87,1.69M902.68,275.98c19.46,18.53,37.58,38.44,57.65,56.33,43.5-43.85,50.54-46.84,53.79-56.29-37.12-1.48-74.31-1.45-111.44-.04M1034.77,275.45c18.36,19.36,36.2,39.29,55.95,57.29.35.13,1.04.38,1.39.51,6.81-6.88,14.18-13.3,19.94-21.15-20.01-22.18-23.76-36.78-33.79-37.63-14.51-2-28.96,3.14-43.49.99M1093.55,274.93c2.49,5.5,6.15,10.42,10.8,14.3,2.15-1.53,4.35-3.05,6.6-4.48-2.43-7.15-9.98-11.46-17.4-9.82M643.18,280.71c-.52,3.45-.6,6.93-.52,10.42,2.13-1.71,4.19-3.5,6.28-5.26-1.38-2.28-3.4-3.98-5.76-5.17M878.62,286.85c-16.05,16.62-32.84,32.51-49.5,48.51,7.42,8.64,49.48,50.77,53.24,52.04.83-34.54.6-69.14-.21-103.68-1.23,1-2.43,2.02-3.53,3.14M900.88,390.32c18.93-16.78,36.26-35.23,54.01-53.21-2.39-2.61-51.14-52.99-54.76-53.92,1.48,35.68.55,71.42.75,107.13M767.17,285.59c.56,33.63.32,67.28-.08,100.92,18.21-15.53,34.5-33.11,51.72-49.7-15.77-18.47-33.85-34.75-51.65-51.22M1031.78,283.13c1.04,71.19.04,97.32,1.44,110.14,18.7-17.13,36.35-35.42,52.85-54.67-17.57-18.98-35.04-38.16-54.29-55.47M624.8,248.98v-41.81l-40.32,33.48-64.56,65.54c-.51,9.67-1.21,56.93-.32,66.42,7.14-3.95,11.26-8.95,17.32-16.23,6.94-7.05,68.72-68.9,69.64-70.45l9.58-10.53,8.66-8.23M965.16,338.55c17.66,14.46,31.75,32.67,49.31,47.25-.68-32.27.57-64.58-1.4-96.82-15.94,16.54-33.99,31.17-47.91,49.57M1108.74,296.26c2.88,3.3,5.65,6.71,8.19,10.29,2.57-1.27,4.92-3.06,6.44-5.57-2.06-4.1-5.29-7.51-7.85-11.3-2.18,2.28-4.42,4.49-6.77,6.58M653.49,291.99c-3.5,3.62-7.8,6.51-10.69,10.69-.07.46-.03,61.06-1.06,77.97,8.97-6.17,42.77-44.69,46.77-49.86l-.09-1.15c-11.08-13.03-22.07-26.3-34.92-37.66M614.83,307.54c2.15,1.62,4.35,3.23,6.62,4.72,1.14-1.6,2.26-3.22,3.35-4.85-.25-2.69-.04-5.37-.05-8.05-4.35,1.23-7.1,4.92-9.91,8.18M1123.07,313.53c1.79,3.93,5.04,6.95,7.47,10.48,2.92-1.62,5.46-3.79,7.81-6.14-4.43-2.32-5.53-7.66-9.3-10.58-3.44-2.83-7.49,2.99-5.98,6.23M609.07,312.35c-4,5.19-9.64,8.82-13.44,14.17,1.96,1.71,3.52,3.79,4.02,6.4,5.8-4.31,10.69-9.63,15.18-15.25-1.87-1.83-3.74-3.66-5.76-5.32M1113.32,320.46c-5.9,6.18-11.86,12.31-17.53,18.73,15.82,14.75,28.91,32.27,45.94,45.74-1.39-10.34,2-20.58.83-30.9-1.16-11.59-19.68-23.6-25.51-36.19-1.38.69-2.72,1.44-3.72,2.62M555.53,393.63c22.79-.62,45.61.93,68.37-.78,1.32-24.07.1-48.21.95-72.3-25.19,22.29-47.58,47.49-69.32,73.08M1135.75,329.75c1.54,2.67,3.44,5.13,5.7,7.27.77-4.1-.13-8.29.17-12.43-2.01,1.66-3.96,3.4-5.87,5.16M494.85,332.63c-17.56,20.07-107.98,125.06-110.86,132.79-3.68,19.57.36,33.64-.62,66.32,18.08-12.9,76.98-91.11,109.6-125.84,2-4.76,6.01-8.08,8.62-12.43-3.13-7.16.15-38.09,0-66.37-3.19.36-4.7,3.49-6.73,5.54M575.25,347.57c1.88,1.78,3.71,3.63,5.45,5.57,5.01-5.4,12.03-9.74,14.08-17.22-5.11-1.31-6.19-5.66-19.53,11.65M642.9,392.82c34.45,1.88,68.97.05,103.45.86-8.16-12.17-19.8-21.39-29.12-32.6-7.55-8.94-14.88-18.24-24.21-25.43-16.35,19.35-35.65,36.28-50.11,57.17M772.46,390.9c-.56.86-1.05,1.75-1.47,2.7,35.57-.7,71.21,1.23,106.74-.92-18.35-16.79-35.01-35.39-53.94-51.57-17.57,16.1-33.84,33.61-51.33,49.79M908.44,393.63c34.31-.3,68.61-.07,102.91.01-16.39-18.35-33.56-36.11-52.41-51.96-15.89,18.22-35.03,33.32-50.5,51.94M1051.12,385.37c-2.43,2.82-5.94,4.7-7.51,8.19,31.84-.55,63.74,1.15,95.56-.83-16.74-15.79-30.91-34.26-48.93-48.69-12.82,13.99-26.01,27.63-39.11,41.33M1159.73,348.15c-.84,9.3,3.3,18.46,10.58,24.24,2.19-1.7,4.45-3.31,6.79-4.83-2.95-7.47-10.51-11.65-13.72-18.97-.91-.1-2.72-.34-3.65-.44M556.75,367.1c2.15,1.89,4.22,3.88,6.24,5.92,4.14-4.64,8.06-9.51,12.73-13.64-6.41-10.94-9.99-2.18-18.97,7.72M551.17,372.49c-4.91,7.67-13.81,12.35-16.77,21.28,16.23.17,14.52-6.25,23.3-15.73-2.18-1.87-4.27-3.83-6.54-5.55M1176.26,378.92c8.64,11.48,8.12,15.6,21.84,14.3-4.15-7.67-10.19-14.07-16.08-20.41-1.67,2.26-3.54,4.37-5.76,6.11M1160.49,374.69c.17,6.28-.53,12.67.97,18.84,5.14-.1,10.29.34,15.43-.26-5.55-6.14-9.15-14.14-16.4-18.58M1289.32,394.7c3.06,43.33-3.43,59.77,2.66,69.12,6.58,8.25,100.7,101.62,119.38,111.75,1.25-22.48-3-46.45,2.18-60.82-31.75-30.66-104.55-97.97-112.57-108.99-3.22-4.29-6.36-9.16-11.65-11.07M1165.62,410.2c15.73,20.61,33.79,39.46,53.95,55.77,19.44-18.33,10.5-3.81-15.91-42.42-3.98-5.02-7.69-10.82-13.53-13.83-8.12-2.22-16.32,2.7-24.51.48M1202.47,409.44c3.58,6.49,8.42,12.25,14.16,16.95,2.4-2.08,5.16-3.66,7.72-5.54-5.84-5.94-12.73-12.78-21.88-11.41M518.25,410.97c-.69,3.36.39,6.67,2.67,9.16,3.78-2.61,6.83-6.15,8.66-10.37-3.79.25-7.58.66-11.33,1.21M540.27,410.52c-4.39,5.07-9.21,9.82-12.73,15.57,12.66,14.18,25.42,28.34,39.28,41.38,53.93-59.64,50.82-52.17,51.65-57.76-26.06,1.31-52.14-.3-78.19.8M645.6,410.49c14.97,18.63,31.44,36.02,48.71,52.53,16.28-17.3,32.71-34.46,48.18-52.5-32.29-.67-64.6-.52-96.89-.03M771,409.68c16.92,18.61,34.54,36.67,54.09,52.54,17.01-17.52,35.57-33.49,51.79-51.77-35.28-1.1-70.59.65-105.87-.77M908.53,411.06c52.29,54.08,49.93,52.16,52.58,51.79,5.07-4.42,8.75-10.2,13.51-14.95,11.38-11.44,34.65-33.09,36.48-38.16-34.18,1.52-68.41-.97-102.56,1.32M1043.65,409.68c17.29,22.1,45.14,49.97,48.52,52.4,15.31-17.49,31.93-33.82,46.99-51.57-31.82-1.18-63.69.6-95.5-.83M1033.13,410.61c-.1,38.1-.35,76.2.58,114.28,23.6-26.62,54.83-56.39,51.49-59.14-17.05-18.66-33.31-38.12-52.07-55.14M900.84,412.94c.74,35.8-.2,71.63.77,107.44,18.8-16.73,36.32-34.82,53.31-53.36-17.78-18.28-35.75-36.36-54.07-54.08M572.84,470.35c-.77,1.02-2.7,2.58-1.09,3.82,21.92,21.6,47.13,50.96,52.01,52.68-.13-3.7.23-109.29.23-111.65-16.82,18.6-35.06,35.89-51.15,55.15M698.41,467.6c15.66,18.88,32.44,36.84,49.95,54.03.87-11.2.85-105.73.08-107.53-16.82,17.7-32.96,36.04-50.02,53.5M829.12,467.93c18.37,16.87,34.98,35.63,54.07,51.75-.23-34.83.69-69.68-.77-104.5-17.89,17.45-36.66,34.07-53.31,52.75M1160.69,415.9c.09,34.82.12,69.64.82,104.44,17.95-14.77,33.93-31.71,50.98-47.47.18-.47.53-1.4.71-1.87-17.7-18.16-35.45-36.33-52.52-55.11M767.08,416.78c0,33.52-.03,67.03.01,100.54,17.95-13.7,32.08-31.6,49.27-46.14,1.28-1.04,3.62-2.92,1.6-4.53-16.03-17.54-33.3-33.89-50.88-49.87M966.13,466.58c-1.52,1.31.69,2.67,1.44,3.66,43.24,43.98,43.31,44.95,47.69,47.26-.62-33.35.47-66.72-1.31-100.05-15.42,16.9-33.08,31.61-47.82,49.13M1108.03,453.99c-19.86,21.43-19.04,1.63,29.02,58.21,1.69,1.87,3.76,3.34,5.83,4.78-.44-33.13.64-66.32-1.4-99.41-11.12,12.17-22.32,24.27-33.44,36.42M641.74,417.78c.87,33.66-.18,67.32-.04,100.99,16.54-16.27,32.71-33,47.19-51.15-.92-1-43.63-47.52-47.15-49.84M1221.87,433.59c4.71,5.2,9.63,10.24,14.07,15.69,3.31-1.06,5.72-3.63,7.11-6.77-5.11-4.39-8.89-10.07-14-14.46-2.38,1.87-4.84,3.62-7.18,5.54M494.09,438.35c1.88,1.93,3.82,3.82,5.92,5.5.39-4.01.23-8.05-.18-12.03-2.18,1.92-4.4,3.89-5.73,6.53M521.92,431.82c-8.14,12.88-2.29,12.21-5.01,86.84,15.57-14.9,30.75-30.3,44.28-47.12-15.95-16.2-32.88-36.93-39.27-39.72M489.16,443.67c-3.57,5.75-8.63,10.28-12.85,15.51,2.26,2.39,4.42,4.92,7.14,6.85,3.87-5.17,9.21-9.19,11.98-15.14-2.21-2.31-4.14-4.84-6.27-7.21M1240.81,455.41c3.09,2.84,6.1,5.8,9.01,8.84,1.92-2.18,4.3-3.85,6.75-5.39-2.06-3.41-5.65-5.73-6.86-9.68-4.36-.69-6.96,2.96-8.89,6.23M442.47,527.91c22.69-1.43,51.12,4.09,54.98-.61l1.79.51c-.49-22.89.86-45.78.08-68.66-18.63,23.19-38.25,45.56-56.85,68.76M1223.54,471.5c16.91,14.38,31.77,31,48.84,45.2,1.1-19.61-2.96-20.31-14.94-32.69-7.72-7.43-13.94-16.38-22.25-23.19-4.59,2.35-8.21,6.79-11.65,10.68M470.91,465c-3.11,6.16-8.81,10.33-12.28,16.23,2.34,1.63,4.7,3.28,6.51,5.53,5.55-3.55,9.59-9.03,12.55-14.83-2.19-2.37-4.28-4.86-6.79-6.93M1255.05,469.23c4.88,7.07,10.86,13.3,17.43,18.81,1.01-13.7-7.41-29.72-17.43-18.81M959.48,472.53c-18.49,18.17-37.14,36.2-54.62,55.37,36.5.1,73.02.16,109.52-.03-16.88-19.78-35.56-37.99-54.9-55.34M654.48,515.35c-4.04,4.09-8.69,7.84-10.9,13.33,12.12.07,24.21-.95,36.35-.7,21.22-.25,42.42.93,63.65.22-4.02-6.09-30.91-36.21-50.63-54.89-12.48,14.31-25.42,28.22-38.46,42.04M768.05,527.89c9.09.16,100.22.22,112.58,0-18.22-19.24-36.93-38.06-56.94-55.43-18.63,18.37-38.34,35.72-55.64,55.43M1047.04,520.19c-2.28,2.63-5.7,4.35-7.06,7.72,6.73.11,95.44.15,102.01-.01-16.06-19.54-33.1-38.35-51.79-55.41-14.37,15.92-28.7,31.86-43.16,47.7M1170.37,521.59c-2.08,2-5.28,3.39-5.32,6.71,23.09-1.41,54.08,1.72,106.96-1.03-16.49-18.76-35.15-35.48-54.02-51.79-15.47,15.78-31.51,30.99-47.62,46.1M518.65,527.82c31.71-.12,63.48,1.73,95.17-.54-16.32-16.52-31.23-34.39-48.34-50.11-15.18,17.28-32.12,32.96-46.83,50.66M452.82,486.63c-4.41,6.94-9.89,13.11-15.08,19.48,2.63,2,5.14,4.16,7.42,6.55,4.76-6.53,10.28-12.44,15.61-18.5-1.8-3.3-4.33-6.24-7.95-7.53M364.09,487.7c-7.66,9.49-15.88,18.5-24.17,27.42-95.13,98.91-77.88,52.4-78.26,143.67,15.3-9.04,85.64-84.36,100.31-100.77,6.11-5.83,3.45-12.21,3.8-54.57-.18-5.27.18-10.73-1.67-15.75M1294.54,512.29c1.61-1.66,3.3-3.26,5.01-4.83.23-.65.7-1.97.93-2.63-2.72-3.53-6.05-6.5-9.41-9.38-.73,5.7-1.67,12.83,3.46,16.84M1299.69,516.31c4.79,8.24,13.99,14.44,23.85,12.09-5.53-6.66-11.61-12.86-18.39-18.24-1.84,2.04-3.66,4.09-5.46,6.15M418.84,528.55c10.6,1.96,21.95-6.62,20.51-11.04-2.48-1.6-5.14-2.88-7.55-4.57-4.2,5.31-9.03,10.08-12.96,15.61M1293.94,523.06c-1.04,1.61-2.08,3.21-3.06,4.84,2.92.07,5.84.04,8.77-.16-1.71-1.8-3.65-3.35-5.71-4.68M1429.71,527.86c-1.16,20.49-.55,41.01-.05,61.51-1.5,4.32,67.45,55.38,130.57,81.44-.34-18.53,1.01-37.15-1.45-55.58-46.86-23.01-88.34-55.08-129.06-87.37M401.1,546.35c-1.77,3.18.65,6.51,3.26,8.28,6.29-5.16,11.69-11.28,16.96-17.44-7.46-.12-16.64,1.8-20.22,9.16M433.59,537.62c-8.5,6.6-15.44,14.95-23.11,22.46,8.76,10.65,18.43,20.49,28.54,29.84,16.01-18.15,33.35-35.08,50.13-52.5-18.52.12-37.06-.3-55.55.2M516.72,537.45c.79,6.71,16.31,17.96,48.38,54.79,16.2-14.81,50.14-51,51.92-54.75-33.43-.15-66.87-.08-100.29-.04M641.95,538.08c15.48,19.62,34.19,36.33,52.37,53.37,17.34-18.21,36.18-34.97,52.66-53.99-35.01.22-70.05-.99-105.03.62M767.2,537.55c.98,1.22,39.65,41.91,57.95,55.43,1-.92,52.66-51.2,55.91-55.01-4.54-1.09-112.86-.44-113.87-.43M901.43,537.59c2.71,4.52,47.95,50.07,58.9,60.34,6.29-4.87,10.33-11.89,16.09-17.28,37.4-36.6,37.16-35.76,39.23-41.6-21.89-3.33-72.7-1.13-114.22-1.45M1033.9,537.51c18,21.23,38.31,40.32,57.96,59.98,36.62-41.09,54.94-49.17,51.01-59.53-36.32-1.27-72.65-.43-108.97-.44M1163.54,538.1c17.82,19.41,36.94,37.62,54.62,57.2,9.1-6.85,16.31-15.71,24.01-24.02,10.07-11,22.68-19.91,30.08-33.15-36.23-1.26-72.49-1.26-108.7-.03M1290.95,538.23c14.5,18.45,44.83,41.43,51.1,49.21,3.27,3.67,6.27,8.07,11.15,9.72,3.39-3.27,6.03-7.18,8.79-10.97-65.61-55.31-43.41-50.77-71.03-47.96M1320.89,537.19c5.49,7.34,12.89,12.9,19.4,19.28,2.41-2.13,5.32-3.91,6.84-6.86-11.18-7.82-8.9-13.7-26.24-12.42M493.22,543.68c-18.48,15.22-33.71,33.82-50.22,51.05,18.58,18.01,34.35,38.99,54.9,54.91-.99-36.29,1.13-72.56.67-108.86-1.92.7-3.84,1.49-5.36,2.89M570.74,597.93c17.87,17.89,34,37.49,52.57,54.7-.14-37.33.49-74.65.01-111.97-17.3,19.29-36.15,37.21-52.58,57.28M878.01,549.66c-15.84,16.57-32.9,31.93-48.93,48.32,8.9,11.07,20.35,19.61,30.07,29.9,7.83,7.94,15.08,16.75,24.78,22.51-1.35-35.06.05-70.19-.97-105.25-1.77,1.38-3.43,2.88-4.94,4.52M1161.56,545.73c-.43,36.1,1.4,72.23-.1,108.33,13.76-11.28,25.01-25.16,37.31-37.93,5.1-5.65,11.74-9.71,16.43-15.77-17.17-18.87-35.7-36.48-53.63-54.63M744.93,548.96c-15.31,16.21-31.61,31.47-46.6,47.99,17.35,15.84,32.64,33.78,50.19,49.41-.14-7.7-.07-92.46.4-100.15-1.56.62-2.88,1.53-4,2.75M767.17,547.53c-1,33.78.84,67.58-.86,101.36,19.06-14.88,34.72-33.48,52.57-49.69-5.86-9.84-15.56-16.28-23.46-24.29-9.41-9.12-17.91-19.24-28.25-27.38M900.85,548.17c1.12,35.58.48,71.19.74,106.77,14.3-11.96,26.76-25.86,39.76-39.19,4.58-4.75,10.54-8.11,14.34-13.6-2.32-5.26-8.19-8.07-12.13-12.13-14.38-13.81-27.21-29.21-42.7-41.85M1033.21,548.34c.96,35.52.64,71.06.47,106.59,18.54-16.41,35.7-34.37,52.07-52.92l.06-.97c-.94-1.01-49.55-51.79-52.6-52.7M517,550.46c-1.09,31.49-.74,63.01-1.47,94.51,16.73-14.51,31.03-31.49,45.7-48-14.56-15.68-28.69-31.79-44.24-46.51M641.68,549.65c-.87,31.53.62,63.12-1.03,94.62,17.24-14.73,32.64-31.47,48.23-47.88-15.31-16-30.49-32.18-47.21-46.74M1241.61,581.09c-5.9,6.44-12.82,11.89-18.31,18.71,1.85,3.68,44.77,48.24,49.49,50.5.87-8.89-.22-84.36-.39-100.67-10.37,10.38-20.39,21.11-30.79,31.45M1290.76,548.96c.25,34.57.13,69.14,1.36,103.69,18.04-17.06,35.93-34.32,54.82-50.45-16.95-19.55-37.14-35.85-56.19-53.24M973.19,593.06c-2.82,3.06-5.9,5.97-7.88,9.69,3.17,3.27,48.6,49.27,51,49.76-.02-.39-.73-71.11-1.45-101.23-13.61,14.2-28.11,27.52-41.67,41.77M383.17,576.56c6.49-4.93,11.67-11.26,16.92-17.43-1.31-1.32-2.61-2.66-3.89-4.01-7.8,4.1-14.97,11.92-13.03,21.44M1096.54,603.07c8.21,8.69,17,16.83,25.38,25.35,7.24,7.38,13.61,15.91,22.64,21.26-2.56-31.51,1.58-63.26-2.67-94.65-15.09,16.01-32.14,30.33-45.35,48.04M1352.86,556.69c-1.89,2.22-3.88,4.37-5.8,6.57,6.84,5.9,13.61,11.91,20.14,18.18,3.4-.6,5.5-3.5,7.19-6.27-7.07-6.27-13.39-13.53-21.53-18.48M405.17,565.5c-5.46,7.62-13.73,12.51-19.65,19.71-6.77,8.2-.62,39.09-3.13,61.25,18.08-15.82,34.19-33.7,50.19-51.57,1.4-1.3-.86-2.48-1.52-3.41-8.62-8.68-16.29-18.34-25.9-25.98M1883.1,590.97c.97,16.04.88,32.12.6,48.17,73.89-19.16,106.89-18.97,131.45-20.46,1.86-16.23.56-32.58.58-48.85-45.02-.29-89.64,8.3-132.63,21.15M2034.09,569.98c-.39,16.56-.1,33.1.03,49.66,26.31-1.43,79.51,6.82,135.08,30.82,1.79-17.8.43-35.71.69-53.55-42.91-17.74-89.42-26.57-135.8-26.92M1373.07,586.74c4.98,3.1,8.93,7.54,13.79,10.82,2.46-2.09,5.05-4.15,6.57-7.09-4.74-2.85-8.46-7.88-14.07-8.95-3.44-.62-4.9,2.82-6.29,5.22M355.86,597.31c1.13,1.56,2.31,3.1,3.54,4.61,4.26-3.05,7.81-8.98,4.49-13.97-2.7,3.1-5.52,6.1-8.03,9.37M1359,598.62c-1.04,1.04-2.61,2.59-.71,3.7,17.69,16.27,34.92,33.04,53.09,48.79,1.57-7.68-.47-15.44-.18-23.17-15.05-11.83-28.94-25.15-44.81-35.93-2.32,2.36-4.98,4.35-7.38,6.62M1399.12,596.19c-2.13,2.56-5.11,4.23-7.02,6.98,5.8,5.55,12.99,9.3,19.76,13.51.85-12.57-2.24-11.7-12.74-20.49M1735.04,637.85c1.14,16.18-.53,32.45,1.25,48.61,30.39-6.3,84.51-27.19,129.44-42.11.26-1.52.42-3.05.48-4.58-2.31-14.17,2.34-28.78-2.22-42.71-42.39,15.33-84.95,30.62-128.94,40.78M394.6,643.76c-4.3,4.15-9.23,8.3-10.63,14.4,28.54-1.89,50.75,1.66,110.78-.86-19.23-19.11-36.75-39.94-57.15-57.86-13.98,15.1-28.54,29.66-43,44.31M693.69,600.98c-48.65,50.55-49.28,45.09-52.45,56.29,35.46,1.67,70.99.54,106.48.8-5.31-10.22-50.39-53.62-54.03-57.1M349.8,603.07c-5.33,6.24-11.45,11.82-16.09,18.63,6.15,6.33,11.5-5.61,19.59-14.99-1.08-1.31-2.22-2.56-3.5-3.65M515.46,657.36c34.05,1.41,68.12.54,102.19.71-16.09-19.54-33.84-37.67-51.71-55.59-17.04,18.09-35.22,35.19-50.48,54.88M768.39,657.11c6.25,2.02,104.98,1.09,111.45.97-18.37-18.93-36.41-38.37-57.06-54.88-17.67,18.43-35.88,36.35-54.4,53.9M1174.96,650.73c-2.44,2.62-5.76,4.5-7.33,7.85,34.31.54,68.63.51,102.94.05-16.57-18.57-34.32-36.03-51.7-53.84-15.12,14.83-29.21,30.69-43.91,45.93M2188.44,604.72c.28,18.18-1.52,36.48.74,54.57,16.63,11.31,61.65,36.38,97.89,71.99,10.11,9.84,20.29,19.85,32.47,27.16,3.61-20.18-3.5-41.28,3.69-60.95-40.44-36.72-83.76-71.89-134.79-92.77M911.72,654.84c-.99,1.12-1.66,2.45-2.38,3.75,33.75.34,67.52.08,101.27.13-15.53-18.85-33.7-35.24-50.96-52.46-15.53,16.62-32.31,32.04-47.93,48.58M1302.85,651.47c-2.52,2.41-6.24,3.58-7.64,7.03,11.76,1.21,69.18-.4,113.84,1.05-9.15-13.51-17.93-15.22-54.77-53.16-.82-.08-2.44-.25-3.26-.34-16.51,14.66-31.91,30.49-48.17,45.42M119.71,704.88c4.83,17.45-.86,35.24,3.41,60.38,37.37-15.57,113.06-80.15,116.88-84.02,3.97-3.65,3.04-9.45,3.15-14.27.18-19.71.93-39.43.1-59.15-38.28,35.89-81.32,66.1-123.55,97.06M1040.82,658.68c33.52.13,67.04.05,100.57.04-15.25-18.91-33.93-34.59-50.28-52.48-16.14,18.08-34.36,34.17-50.28,52.44M357.41,615.35c-13.29,14.31-28.47,26.89-40.45,42.41,16-.65,32.01.4,48-.43-.26-16.45-.2-32.91.21-49.35-3.27,1.65-5.32,4.76-7.76,7.37M1429.32,621.42c.12,3.05.27,6.12,0,9.19,4.63,4.49,9.84,8.45,15.7,11.21,2.01-2.36,4.3-4.48,6.29-6.85-8.28-3.02-13.44-11.26-21.99-13.55M1577.91,624.41c.91,17.98-.6,36.09,1.6,54.01,27.85,11.92,108.43,21.54,137.42,11.16,1.58-16.14-.01-32.35.36-48.52-46.87,6.54-95.18-.08-139.38-16.65M309.33,645.19c.93,1.21,1.88,2.41,2.83,3.63,6.89-5.29,13.33-11.33,18.48-18.35.7-2.36-1.83-3.04-3.3-4.11-5.4,6.83-11.67,12.89-18.01,18.83M1455.89,638.59c-1.26,3.05-3.01,5.85-4.53,8.77,10.15,7.41,22.12,14.68,35.26,12.31-9.29-8.36-21.08-13.17-30.73-21.09M1985.28,643.08c.35,2.97.43,5.97.36,8.97,9.99-.9,20.03-1.17,30.07-1.54.17-2.96.3-5.92.34-8.86-10.26-.46-20.63-.42-30.77,1.44M1429.77,641.58c-.6,5.72.08,11.47-.04,17.21,8.37,1.12,16.82.44,25.24.73-7.73-6.86-16.86-11.87-25.2-17.93M2034.1,641.36c-.25,3.24-.2,6.53.44,9.76,7.58.71,15.21.8,22.71,2.28,1.1-3.34,2.18-6.67,2.95-10.09-4.41-.26-8.85-.41-13.08-1.67-4.35.75-8.69-.26-13.01-.27M1950.65,647.5c-.44,2.93-.62,5.9-.44,8.88,9.59-2.06,19.4-2.66,29.08-4.09-.6-2.78-1.1-5.58-1.51-8.37-9.15.32-18.22,1.58-27.13,3.58M2066.7,644.5c-.05,3.27-.12,6.54-.4,9.8,10.11,1.58,20.07,3.89,30.09,5.97.71-3.48,1.58-6.93,2.53-10.34-10.76-1.69-21.35-4.48-32.22-5.42M1912.58,655.27c.97,2.54,1.95,5.11,2.63,7.79,9.73-2.06,19.62-3.45,29.17-6.33-.32-2.54-.58-5.07-.87-7.59-10.55.71-20.59,4.26-30.94,6.14M303.35,651.54c-1.93,1.75-3.78,3.62-5.24,5.8,3.14.21,6.31-.21,9.12-1.67-1.26-1.41-2.56-2.79-3.88-4.13M2106.11,653c-.77,3.24-1.93,6.38-3.19,9.46,9.51,1.82,18.65,5.02,27.76,8.27,1.16-3.41,2.47-6.77,3.71-10.16-9.46-2.43-18.48-6.66-28.28-7.57M1884.78,662.49c-.69,2.72-.23,5.57-.18,8.36,7.94-1.17,15.56-3.72,23.23-6.03-.45-2.75-.86-5.49-1.18-8.24-7.55,1.09-14.23,5.19-21.86,5.92M1969.69,661.07c-28.95,3.37-57.22,10.74-85.29,18.39-.05,3.44.06,6.88.21,10.33,43.69-1.82,87.43-1.25,131.12-3,.04-9.28,0-18.56.01-27.85-15.38-.25-30.77.39-46.05,2.13M2033.63,659.68c.42,9.23.29,18.48-.06,27.7,23.99,1.63,116.68-.09,117.68-.13-37.14-16.02-76.9-27.39-117.62-27.57M2141.28,663.04c-1.02,3.48-2.21,6.93-3.85,10.16,11.09,3.78,21.14,10.28,32.5,13.31.1-3.63.21-7.29-.52-10.86-9.45-4.06-18.76-8.38-28.13-12.61M308.73,666.08c-7.66,1.45-12.03,8.5-16.89,13.85-5.71,6.8-13.85,11.04-19.27,18.1,11.55,11.71,21.36,25.04,33.47,36.2,18.39-23.24,39.99-43.77,57.69-67.57-18.3,3.23-36.72-4.18-54.99-.58M265.06,687.91c.62,1.1,1.26,2.22,1.88,3.35,10.46-6.76,18.61-16.25,27.59-24.73-2.15-.03-4.3-.04-6.42-.04-7.28,7.56-15.4,14.23-23.05,21.42M382.69,667.38c.86,3.08,1.91,6.2,4.1,8.62,17.52,17.49,33.66,36.37,52.11,52.93,3.55-3.47,56.9-59.14,57.41-61.46-37.85-.84-75.77-1.41-113.62-.09M515.2,667.41c.15,10.15,7.37,10.91,50.05,61.53,19.84-19.31,37.55-40.63,55.58-61.61-35.2.26-70.42-.47-105.63.08M640.28,668.16c2.74,7.29,48.63,55.83,54.03,61.51,46.48-54.09,50.41-53.52,53.75-62.23-35.92.34-71.88-1.01-107.78.73M765.85,667.95c12.85,14.73,52.7,55.81,58.86,61.6,51.34-55.73,54.81-55.41,57.72-61.36-29.1-1.49-112.48-.96-116.58-.23M903.2,667.37c11.03,12.39,56.35,58.51,57.1,59.08,6.33-4.88,10.37-11.96,16.19-17.36,13.28-13.35,27.07-26.26,38.79-41.06-37.36-.45-74.72-.35-112.08-.66M1039.23,668.03c16.78,20.46,34.37,40.25,52.67,59.37,16.29-20.45,35.75-38.19,51.14-59.38-34.61,0-69.2-.01-103.81.01M1166.12,668.9c16.97,18.65,35.3,36.06,51.59,55.33,13.56-10.03,48.93-50.69,53.8-56.19-35.13.66-70.29-1.04-105.39.86M1293.04,668.9c13.94,14.62,28.56,28.59,42.64,43.07,5.78,5.8,10.04,12.99,16.44,18.19,20.02-20.35,39.53-41.2,58.99-62.07-39.36.64-78.74-1.08-118.07.8M1433.94,668.51c23.47,15.39,42.99,36.07,66.52,51.42,8.36-6.76,16.27-14.17,23.15-22.44-32-13.42-39.74-23.93-53.21-28.65-11.96-3.21-24.31.93-36.45-.34M1485.91,668.49c7.02,4.97,14.71,8.85,22.41,12.68,3.61-5.64,7.76-6.7,1.51-9.98-7.43-3.52-15.95-2.53-23.92-2.7M1844.47,675.31c1.1,2.49,2.13,5.02,3.07,7.6,6.47-1.91,12.83-4.14,19.23-6.32-.39-2.69-.8-5.36-1.19-8.01-7.31,1.43-13.78,5.39-21.11,6.72M1429.67,671.21c.56,38.64.49,77.3.8,115.97,22.14-20.19,44.24-40.53,64.53-62.61-21.53-18.09-43.42-35.74-65.33-53.36M1034.52,673.52c-.78,38.86.71,77.74-.03,116.6,19-17.67,34.2-38.86,52.61-57.08-16.93-20.36-34.53-40.15-52.58-59.52M572.49,732.17c-1,1.05-2.04,2.74-.51,3.91,6.17,7.21,49.24,55.26,50.24,55.86.06-1,1.71-85.91.16-116.03-16.78,18.63-33.82,37.03-49.89,56.26M900.94,675.31c2.5,36.16-.62,72.45,1.98,108.62,17.24-17.97,35.81-34.68,51.92-53.75-4.11-4.47-49.64-51.99-53.9-54.88M1162.26,674.36c-.19,67.17.82,108.91.82,108.91,18-17.05,34.71-35.39,51.01-54.06-16.91-18.62-33.92-37.18-51.83-54.85M310.03,739.7c13.86,17.24,29.68,32.79,43.6,50,2.41,3.4,6.36,4.91,10.46,4.04-.56-39.23.43-78.44.69-117.66-17.93,21.48-37.76,41.35-54.75,63.62M442.92,734.45c2.18,2.26,49.7,52.04,52.29,53.72,1.5-13.48.72-66.91,1.84-111.3-17.72,19.49-36.77,37.76-54.14,57.58M1223.89,729.51c.47,1.88,48.56,51.98,49.56,52.7.23-4.33.74-62.85-1.09-104.87-16.17,17.38-32.93,34.23-48.47,52.18M1291.58,676.67c-.19,37.85.66,75.68.48,113.52,21.9-19.98,52.9-51.59,56.11-56.81-4.98-5.49-11.33-9.5-16.27-15-13.16-14.17-26.17-28.5-40.32-41.71M1371.13,719.72c-4.8,5.11-11.28,8.59-15.03,14.68,18.33,19.32,37.12,38.28,56.6,56.47-.87-37.97-.44-75.95-.75-113.93-14.02,13.87-27.35,28.39-40.82,42.78M1515.01,685.1c5.06,2.17,9.89,4.83,14.94,7.06,2.61-2.06,4.93-4.45,6.84-7.19-6.05-2.24-11.39-5.98-17.53-7.98-1.32,2.75-2.76,5.44-4.24,8.11M1095.77,732.93c24.38,26.29,44.33,50.37,48.43,53.63.81-6.64.67-75.53-.39-108.44-16.1,18.19-32.92,35.78-48.04,54.81M1801.26,690.41c12.99.56,27.06,1.34,38.75-5.4-.68-2.45-1.39-4.89-2.17-7.28-12.31,3.88-24.46,8.25-36.58,12.68M698.4,733.53c15.39,19.27,31.97,37.6,49.53,54.91-.38-36.26,1.09-72.51-.07-108.75-17.06,17.42-32.61,36.22-49.47,53.84M766.33,679.58c.79,36.33-.09,72.68-.05,109.01,19.22-16.83,36.09-36.09,53.27-54.93-20.19-20.12-45.13-48.85-53.22-54.09M829.11,734.45c18.15,18.96,35.29,38.93,54.86,56.47-.43-37.85.69-75.74-.78-113.57-18.36,18.71-36.95,37.23-54.08,57.1M967.81,727.71c-.77,1.13-2.69,2.15-1.97,3.76,5.86,6.72,46.31,47.86,50.89,51.27.12-3.33-.47-102.94-.48-103.94-17.36,15.05-32.78,32.14-48.44,48.91M640.69,681.71c1.31,34.98-.54,69.97.1,104.97,17.51-15.66,31.75-34.54,48.1-51.36-14.59-19.14-30.97-36.83-48.21-53.61M382.48,680.65c-.48,35.72-.23,71.47-.75,107.2,18.13-17.23,35.36-35.44,51.76-54.32-17.01-17.63-33.56-35.7-51.01-52.88M514.81,682.22c-.12,3.61-.08,66.65-.13,67.85-.32,12.31-2.36,24.73-.08,36.99,15.82-17.79,32.06-35.2,47.35-53.45-25.66-26.53-41.4-47.68-47.14-51.4M1856.83,688.37c3.14.29,6.32.18,9.47-.21,0-.69-.01-2.05-.01-2.74-3.3.52-6.53,1.36-9.46,2.95M2188.71,686.34c-.51,3.71-.53,7.46-.3,11.21,1.61.93,3.15,1.84,4.84,2.79,2.05-2.8,4.14-5.57,6.07-8.46-3.5-1.93-7.06-3.76-10.61-5.54M1536.35,695.27c8.23,3.35,16.34,7.22,25.01,9.3-.4-3.31-.75-6.63-1.06-9.94-9.17-3.21-19.35-10.26-23.94.64M2037.38,692.29c20.67,16.93,42.74,32.05,64.71,47.25,20.81-14.18,41.03-29.22,61.25-44.25-41.9-3.53-84.03-.08-125.96-3M1772.32,717.86c37.32,25.05,27.79,24.64,34.5,21.01,19.58-14.27,38.93-28.89,58.19-43.59-34.94-3.61-62.52,12.02-92.69,22.58M1885.1,695.32c21.36,15.57,42.12,31.95,64.18,46.55,21.77-15.78,43.86-31.17,64.76-48.09-42.96,1.23-86.02-1.48-128.94,1.54M1792.52,695.94c.29,1.91.55,3.84,1.05,5.72,5.15-2.02,10.56-3.35,15.69-5.49-5.58-.39-11.16-.18-16.74-.23M1778.74,697.76c-7.47,2.72-15.25,4.52-22.69,7.32,8.64,10.12,17.18,2.53,31.52-1.16-1.12-2.5-2-5.11-3.43-7.43-1.92-.45-3.63.83-5.4,1.27M2200.62,704.66c5.92,4.16,12.12,7.94,18.1,12.05,2.08-2.56,4.44-4.88,6.64-7.34-6.53-4.75-13.24-9.27-20.27-13.22-1.61,2.78-3.45,5.45-4.48,8.51M2033.57,698.55c.91,30.25-.48,60.52.56,90.77,20.66-15.48,42.17-29.81,62.4-45.83-21.46-14.3-41.47-30.66-62.96-44.94M2110.6,741.87c-.83.74-3.74,2.53-1.48,3.44,20.51,14.07,39.8,29.91,60.81,43.29-.23-29.82,1.05-59.66-.75-89.43-19.57,14.17-39.42,27.96-58.57,42.7M1530.07,700.69c-8.33,7.67-15.77,16.31-24.72,23.29,13.98,14.65,46.44,46.85,56.06,54.23.27-4.29.18-52.95-.7-64.96-10.37-3.82-20.59-7.99-30.64-12.56M1578.97,701.3c-.12,3.09-1.19,6.72.55,9.52,6.58,3.28,13.94,4.63,21.09,6.22.6-3.08,1.25-6.15,1.71-9.25-7.94-1.56-15.75-3.68-23.34-6.49M260.09,713.6c.65,24.24-2.18,48.49-.05,72.69,13.03-16.14,28.02-30.62,40.47-47.25-10.6-12.59-20.92-25.47-32.89-36.81-2.88,3.44-8.47,6.07-7.53,11.37M1810.02,744.17c17.7,15.9,37.14,29.77,56.93,42.92-.08-27.99.27-55.98-.7-83.94-19.56,12.52-37.1,27.89-56.23,41.02M1884.62,703.7c-.36,28.33,1.08,56.64-.01,84.96,20.18-13.31,39.42-27.99,58.55-42.76-19.57-13.97-38.27-29.21-58.54-42.2M1955.09,746.4c19.98,14.88,39.55,30.42,60.65,43.72-1.27-29.52,1.17-59.09-.78-88.59-19.71,15.29-40.77,28.78-59.87,44.87M1736.61,709.37c-1,2.97-1.23,6.09-1.08,9.21,6.98-.87,13.65-3.13,20.48-4.75-3.62-7.33-12.83-6.16-19.4-4.46M2188.45,786.32c17.18-14.2,33.11-29.83,48.6-45.85-15.17-12.5-31.01-24.45-48.76-33.05-.18,26.3.25,52.59.17,78.9M1609.68,709.79c-.48,3.11-.97,6.23-1.27,9.37,8.81,1.78,17.75,2.88,26.6,4.53,2.63-2.84,5.35-5.65,7.62-8.81-11.05-1.17-22.1-2.63-32.95-5.09M222.57,725.4c.74,1.21,1.48,2.43,2.21,3.66,17.67-15.42,16.97-11.88,17.05-19.48-7.27,4.18-12.89,10.48-19.26,15.82M1692.66,716.18c.1,2.98-.05,5.96-.31,8.93,8.55-.92,17.28-.92,25.63-3.35-.16-2.79-.3-5.55-.52-8.33-8.29.77-16.56,1.7-24.8,2.75M2225.55,721.45c11.72,6.68,17.41,20.42,24.5,6.47-7.11-3.54-11.57-10.77-19.02-13.7-1.58,2.6-3.45,4.97-5.48,7.23M1659.08,716.64c2.71,3.19,5.46,6.36,8.34,9.42,5.98.27,11.96-.3,17.95-.62-.14-3-.14-5.99.03-8.97-8.77.08-17.55.35-26.32.17M1643.31,724.24c4.92.65,9.88,1.22,14.86.95-2.72-3.01-5.54-5.94-8.51-8.68-2.25,2.48-4.43,5-6.35,7.73M1578.83,725.34c1.09,19.02-.83,38.23,1.95,57.15,15.25-17.7,33.14-33.13,46.52-52.4-16.17-2.22-32.13-5.89-47.71-10.69-.69,1.91-1.04,3.89-.75,5.94M1735.73,727.02c.21,21.33-.05,42.67.73,64,21.2-14.16,40.8-30.52,61.61-45.22-10.19-10.17-22.28-18.26-34.2-26.15-9.38,2.44-18.75,4.94-28.13,7.37M148.72,793.25c30.68,1.01,61.4.83,92.09.07-.45-22.57,2.08-45.14.08-67.68-28.9,24.9-59.99,47.17-92.17,67.62M1449.32,778.39c-5.07,4.45-10.29,8.9-13.72,14.81,38.22-1.3,63.91.09,126.3-.75-.74-4.31-2.96-8.24-6.26-11.09-11.84-10.4-55.07-52.14-55.4-52.4-16.49,16.96-33.89,33.03-50.93,49.44M194.78,746.91c.43,1.06.87,2.14,1.31,3.23,7.89-3.74,14.74-9.33,21.02-15.31,2.31-1.51,2.13-3.97-.36-5.2-7.11,6.03-14.88,11.22-21.97,17.28M1636.19,731.42c-17.61,19.59-35.63,38.83-53.58,58.11-.53,1.16-.78,2.4-.71,3.74,45.35-2.04,90.76.9,136.11-1.4-16.27-20.5-34.48-39.34-52.71-58.07-9.71-.88-19.43-1.39-29.11-2.38M1674.79,733.4c13.95,15.99,27.82,32.1,43.33,46.61.31-16.19.23-32.43-.29-48.61-14.42-1.1-28.63,2.85-43.04,2M2247.43,738.79c5,2.96,8.78,7.5,13.73,10.58,2.01-2.19,4.29-4.14,6.76-5.84-5.33-3.59-9.08-9.54-15.58-11.21-2.36,1.56-4.13,3.75-4.91,6.47M1164.72,793.2c36.02-.41,72.08.31,108.09-.69-16.51-20.87-36.2-38.89-54.02-58.6-17.58,20.16-37.57,38.18-54.07,59.29M951.91,743.13c-15.61,17-33.28,32.06-47.84,50.05,37.09.64,74.19-.05,111.27,0-7.03-11.24-8.77-9.6-55.11-58.56-3.08,2.53-5.62,5.61-8.32,8.51M1042.23,793.18c32.78-.56,65.59.95,98.36-.7-16.87-18.11-31.68-38.18-50.14-54.76-15.7,18.82-33.28,36.01-48.22,55.46M387.18,793.86c34.3-.9,68.64,1.14,102.9-1.41-18.01-17.26-33.41-37.18-52.66-53.16-16.07,18.83-35.39,34.7-50.24,54.58M538.3,769.39c-6.18,6.81-11.64,14.26-18.04,20.88-10.61,6.24,35.85,1.8,92.96,3.62-8.27-12.64-46.44-54.32-47.44-55.23-8.36,10.95-18.41,20.4-27.48,30.73M645.89,793.14c9.9.41,82.54.43,95.61-.01-15.04-18.93-31.45-36.76-48.61-53.8-14.58,18.88-32.84,34.61-47,53.81M782.03,783.19c-2.82,3.7-6.98,6.03-9.67,9.85,34.34.3,68.72,1.18,103.03-.6-13.48-13.93-44.31-48.04-52.28-52.98-13.14,15.06-28.07,28.52-41.08,43.73M1299.91,793.2c34.79-.32,69.57-.29,104.35-.01-17.19-18.5-33.88-37.66-53.32-53.86-16.21,18.73-34.96,35.04-51.04,53.88M304.52,744.63c-13.2,16.9-29.69,31.09-41.36,49.21,28.29-.25,56.56-.17,84.85-.03-13.61-17.14-27.72-33.98-43.5-49.18M2208.49,775.86c-5.5,5.41-12.19,9.8-16.44,16.32,34.61.04,69.25.4,103.88-.31-18.36-15.62-34.97-33.22-53.9-48.18-10.55,11.37-22.05,21.77-33.53,32.17M2041.39,792.39c40.18.04,80.35.04,120.54,0-19.23-16.01-39.68-30.52-60.66-44.11-19.8,14.92-40.63,28.44-59.87,44.11M1753.97,786.15c-2.4,1.86-5.27,3.34-6.6,6.2,37.71.57,75.44-.1,113.17.05-17.69-16.08-37.68-29.26-56.88-43.38-16.34,12.68-33.23,24.61-49.69,37.12M2273.02,750.01c-1.6,2.13-3.76,3.67-5.81,5.28,5.22,7.14,13.21,11.41,19.92,16.96,1.75-1.88,3.53-3.74,5.35-5.59-7.24-4.71-11.57-12.83-19.45-16.65M1903.09,783.27c-3.74,2.83-7.92,5.18-10.91,8.86,37.81.9,75.65.01,113.46.23-18.72-14.66-37.41-29.48-57.74-41.89-14.47,11.55-29.91,21.8-44.81,32.79M163.15,768.65c.93,1.53,2.75,4.39,4.71,2.49,13.93-9.24,21.7-12.34,21.16-18.45-10.12,2.62-16.88,11.2-25.87,15.96M138.1,783.45c-1.13.83-2.26,1.67-3.39,2.54.6,1.34,1.19,2.7,1.79,4.08,8.45-3.18,15.52-8.9,23.37-13.2-2.68-9.6-13.66,4.93-21.77,6.58M2293.68,778.78c3.11,4.32,8.12,6.81,12.26,10.08,4.09,3.19,9.42,4.75,14.43,2.82-3.18-10.5-14.7-13.6-22.77-19.26-1.47,1.97-4.01,3.65-3.92,6.36M122.81,791.65c1.63,3.05,5.27,2.1,8.08,2.01-.75-1.43-1.53-2.84-2.3-4.24-1.95.68-3.88,1.43-5.79,2.23M770.17,810.86c19.97,21.34,47.66,56.28,54.59,61.46,50.53-61.58,50.13-53.64,52.01-62.95-35.52,1.61-71.1-.56-106.6,1.49M908.13,809.35c7.51,13.11,42.87,51.86,52.19,62.42,17.48-20.88,35.93-40.94,52.7-62.4,0,0-21.74,1.16-104.89-.01M1042.23,810.09c16.04,20.03,32.83,39.5,48.12,60.13,8.75-9.12,48.92-56.53,48.75-60.86-1-.02-76.43.07-96.87.73M1433.57,809.43c2.78,4.03,43.4,46.87,68.68,66.81,49.01-52.61,60.68-53.96,60.6-66.11-43.07-1.73-86.19-.53-129.28-.7M1587.05,809.39c19.26,22.1,41.98,40.81,61.81,62.38,23.76-18.93,43.91-41.73,65.33-63.14-42.38,1.4-84.77-.04-127.14.77M1743.38,810.18c20.62,20.49,40.42,41.82,61.13,62.23,19.56-21.92,41.37-41.68,60.79-63.71-40.64,1.09-81.32-.74-121.92,1.48M1887.91,809.35c20.48,20.8,39.93,42.64,61.42,62.43,12.67-11.85,23.66-25.3,36.04-37.44,8.37-8.06,17.45-15.64,23.66-25.6-40.37.74-80.74-.16-121.11.61M2034.42,809.34c21.74,23.1,44.53,45.2,68.31,66.21,22.1-22.31,45.58-43.21,67.01-66.18-45.1-.8-90.21-.78-135.32-.03M2196.04,808.73c20.11,22.22,40.71,44.09,62.73,64.43,19.07-22.51,41.71-41.74,60.65-64.41-41.14-.14-82.26-.12-123.38-.01M2343.61,809.34c6.32,2.93,13,4.96,19.58,7.24,1.1-2.41,2.25-4.81,3.43-7.19-7.64-.83-15.4-1.21-23.01-.05M258.8,810.33c2.05,7.66,16.19,20.57,45.83,60.62,16.77-19.59,32.87-39.77,47.93-60.7,0,0-93.76.08-93.77.08M381.71,810.84c18.15,21.92,37.81,42.55,55.75,64.66,20.33-20.58,39.19-42.58,57.15-65.23-37.63-.05-75.27-.41-112.89.57M517.13,810.23c15.49,20.22,32.43,39.24,49.23,58.35,5.65-6.32,48.72-58.13,48.73-58.13-32.64-.56-65.31-.14-97.96-.22M646.26,810.87c15.58,19.5,31.99,38.36,46.65,58.6,11.41-11.93,47.64-58.23,48.09-59.11-31.57-.02-63.19-1.39-94.74.51M1167.5,809.49c.75,1.57,1.62,3.11,2.78,4.48,16.3,18.93,32.49,37.99,47.77,57.8,18.57-19.68,35.88-40.55,51.88-62.36-15.14-.12-101.42.08-102.42.09M1297.58,810.09c4.76,5.7,53.86,60.34,54.99,61.05,17.87-20.7,36.9-40.4,54.02-61.75-36.35.3-72.71-.89-109.01.7M76.29,812.23c.48,1.73.96,3.47,1.47,5.2,6.22-1.32,12.64-2.85,17.66-6.98-6.4-.01-12.96-.28-19.13,1.78M122.64,811.62c16.95,19.96,33.95,39.88,50.59,60.08,18.37-19.26,35.18-39.95,51.61-60.88-34.06-.05-68.18-1.7-102.2.8M231.64,813.06c-17.18,21.83-36.23,42.12-53.15,64.15,6.06,7.63,55.54,67.22,60.02,70.24-.07-26.82,1.84-136.91,1.84-136.91-2.92.77-5.89,1.4-8.71,2.52M336.5,841.36c-8.95,11.81-18.27,23.37-27.02,35.29,27.54,32.95,44.99,60.41,53.2,65.8.28-.92,1.47-129.16.91-132.82-9.99,9.71-18.4,20.88-27.09,31.73M2374.4,810.3c-.92,2.88-1.91,5.75-2.44,8.75,10.43,2.32,20.85,5,31.54,5.92.47-2.48.97-4.96,1.48-7.42-10.38-1.53-20.63-3.96-30.58-7.24M1035.12,811.82c.01,1,1.04,108.4.03,127.11,18.62-20.24,35.58-41.95,51.96-64.04-17.96-20.5-33.7-42.86-51.98-63.08M1736.44,812.58c.32,42.33-.38,84.72,2.31,127,18.84-20.49,54.06-53.16,61.25-62.74-.43-.62-55.68-57.07-63.56-64.26M2188.45,811.87c.22,43.48.04,86.97.47,130.45,10.64-6.93,55.19-55.34,64.04-65.1-21.75-21.55-42.07-44.51-64.5-65.35M617.8,817.86c-16.07,18.5-32.45,36.8-47.09,56.48.85,1,49.59,58.45,51.42,59.69,0,0,.02-77.26.99-121.73-1.88,1.74-3.66,3.6-5.32,5.55M698.34,875.82c17.28,19.13,31.2,41.15,49.61,59.29-.65-41.02.51-82.05-.2-123.05-15.69,21.86-34.92,41.02-49.41,63.76M1580.04,813.4c.31,6.1,1.06,12.16-.49,18.14,3.05,35.76-.51,71.74,3.5,107.46,19.65-21.72,42.24-40.56,61.97-62.18-.48-1.66-51.03-51.08-64.98-63.41M1972.5,856.61c-6.44,6.9-14.33,12.55-19.49,20.58,5.64,6.3,46.98,48.46,62.71,62.51-.58-36.92-.31-126.43-.31-126.43-14.39,14.35-28.47,29.03-42.91,43.34M43.07,821.35c.48,1.98,1,3.96,1.56,5.94,9.02-1.95,18.31-3.4,26.55-7.81-.69-1.69-1.4-3.37-2.13-5.03-8.38,3.23-17.15,5.28-25.98,6.9M640.77,814.34c-.45,39.99-.62,79.98-.65,119.98,18.28-18.49,33.15-39.94,49.52-60.05-16.49-19.81-32.06-40.39-48.87-59.92M902.4,815.02c-1.09,41.26.92,82.55-.82,123.81,19.44-19.53,36.9-40.93,53.93-62.54-18.01-20.15-34.69-41.47-53.11-61.26M1409.66,816.67c-18.15,19.04-34.74,39.51-53.14,58.32,14.73,19.39,32.53,36.14,48.53,54.45,2.43,2.79,3.98,6.51,7.54,8.15,1.38-134.09-.59-124.35-2.93-120.91M1654.86,875.83c15.5,17.91,63.34,63.26,64.71,63.67-1.79-41.51,1.09-83.16-2.22-124.61-20.72,20.42-41,41.3-62.49,60.94M59.92,873.43c1.3,1.96,39.61,59.22,44.81,62.54.03-39.88.68-79.79-1.41-119.63-17.77,16.36-28.24,38.58-43.39,57.08M766.24,816.48c.79,40.76-1.31,81.57.95,122.3,17.19-20.76,35.67-40.43,52.5-61.51-17.76-20.31-34.62-41.45-53.45-60.79M828.33,877.96c24.71,26.77,48.73,58.11,55.5,62.87.39-42.21.86-84.46-.65-126.65-18.21,21.32-37.15,42.03-54.85,63.78M964.3,878.13c25.46,26.91,47.95,57.87,53.29,60.07-.6-40.8,1.04-81.63-1.34-122.39-16.88,21.14-36.16,40.32-51.96,62.32M1095.79,874.96c15.71,21.54,32.23,42.54,50.19,62.26-1.19-40.93.03-81.92-1.35-122.86-16.21,20.24-32.41,40.51-48.84,60.6M1163.09,815.65c0,39.66.82,79.32.66,118.99-1.01,3.36,1.61,1.38,2.27.32,3.34-3.59,50.85-57.27,47.75-59.6-17.26-19.59-32.75-40.69-50.68-59.72M1292.25,814.98c.6,40.3.51,80.62.69,120.94,19.07-19.55,37.47-39.77,54.77-60.94-19.29-19.26-35.59-41.32-55.46-60M513.33,817.15s-1.52,112.06-1.6,114.13c18.19-17.96,33.49-38.54,50.18-57.84-16.41-18.58-31.62-38.2-48.58-56.29M1273.09,816.33c-15.74,20.89-34.23,39.67-49.33,61.01,3.75,4.86,47.81,59.22,50.76,59.98-.01-40.33,1.15-80.72-1.43-120.99M1430.44,817.05c.55,42.38.34,84.77.77,127.17,22.1-20.76,44.61-41.22,64.59-64.08-22.63-20.15-43.13-42.52-65.36-63.09M1809.08,877.24c2.48,2.64,55.04,57.92,58.54,59.53.19-39.9.56-79.83-.81-119.71-19.41,19.88-39.55,39.11-57.73,60.17M1885.2,816.15c-.12,39.94.71,79.85.95,119.8,20.27-18.87,39.55-38.83,57.76-59.68-19.57-20.03-38.62-40.59-58.7-60.12M2338.73,817.05c.77,42.58.27,85.15.65,127.72,23.16-20.06,44.78-41.82,66.24-63.69-21.79-21.87-43.43-43.94-66.89-64.04M2262.47,877.97c1.76,1.86,55.68,58.4,58.56,59.35-.27-39.84.3-79.69-.61-119.51-19.21,20.16-39.29,39.47-57.95,60.16M2033.65,819.5c-.2,40.82.75,81.65-.91,122.43,22.64-19.57,43.9-40.68,64.52-62.35-22.05-19.14-41.16-41.39-63.61-60.08M2163.86,824.83c-19.22,18.02-37.58,36.97-57.03,54.75,7.37,8.44,56.35,57.91,63.69,61.17-.53-40.37.05-80.75-.49-121.11-2.14,1.65-4.2,3.36-6.16,5.19M2413.27,819.25c-.7,2.24-1.39,4.49-1.96,6.76,9.76,1.97,19.79,2.43,29.74,2.85.1-1.45.31-4.37.42-5.84-9.37-1.49-18.83-2.34-28.2-3.78M380.88,820.82c1.13,39.85-.23,79.71,0,119.58,18.69-19.04,36.42-39.08,52.58-60.31-17.51-19.78-33.97-40.49-52.58-59.26M24.63,824.86c1.06,1.54,2.11,3.09,3.15,4.67,3.27.05,6.55-.12,9.63-1.34-.53-1.83-1.06-3.66-1.6-5.46-3.76.49-7.47,1.34-11.18,2.13M122.6,822.43c-.2,36.03.23,72.08.83,108.1,16.96-16.58,31.16-35.65,46.31-53.83-16.21-17.66-30.03-37.42-47.14-54.28M443,881.84s50.69,56.76,50.69,56.76c.06-1.1,1.9-84.83.92-117.4-17.12,20.28-36.01,39.11-51.61,60.64M2354.87,822.89c20.01,18.4,45.4,45.12,56.52,53.28,14.61-14.72,35.48-32.23,38.59-38.68-32.14-1.23-64-6.6-95.11-14.6M34.18,836.6c6.28,11.21,13.42,22.09,22.46,31.29,9.97-15.26,21.23-29.62,31.39-44.76-17.78,5.11-35.27,11.89-53.85,13.47M258.71,823.2c-1.7,36.05-1.38,72.16-2.36,108.22,15.6-15.56,26.95-34.7,42-50.71,1.21-1.73,3.53-3.75,2.3-6.03-.12-.18-37.01-46.16-41.94-51.48M2448.69,828.74c5.68,1.45,13.08,1.38,16.39-4.37-15.61-2.35-14.32-1.67-16.39,4.37M1531.36,855.36c-8.37,8.68-17.71,16.58-25.03,26.19,17.92,19.67,37.44,37.76,56.88,55.89.12-2.8-.66-109.28-.77-111.63-10.67,9.51-20.7,19.74-31.08,29.56M27.63,919.17c-18.86,26.59-21.32,26.1-20.96,33.56,32.69,3,65.57,1.65,98.31.65-3.48-12.96-12.38-23.27-20.43-33.62-9.91-13.11-18.62-27.07-28.62-40.11-9.9,12.83-19.17,26.15-28.3,39.53M521.18,931.3c-9.87,12.06-9.9,10.51-9.69,21.45,111,.25,105.32,1.1,111.11-2.59-.03-8.19-3.65-8.72-47.78-61.34-2.98-3.52-5.58-7.4-9.16-10.34-14.3,18.05-29.77,35.11-44.48,52.82M643.35,941.85c-2.38,2.8-3.35,6.41-3.48,10.03,36.11,1,72.24-.08,108.35.01-2.96-14.44-7.85-11.18-54.07-72.46-17.36,20.45-33.46,41.95-50.8,62.41M1297.47,940.68c-2.22,2.43-3.36,5.55-3.98,8.73,21.57,1.45,82.41,1.88,119.21.03-8.73-13.99-21.72-24.45-32.3-36.93-9.37-10.78-18.37-21.9-28.51-32-17.67,20.48-36.28,40.11-54.42,60.17M123.38,942.1c-.23,4.06-.54,8.19.66,12.15,27.26-.92,84.08-.71,108.53-.88-9.59-15.88-23.57-28.33-35-42.77-7.84-9.6-15.27-19.53-23.75-28.59-16.79,20.05-33.8,39.91-50.45,60.09M260.18,937.65c-3.7,4.36-4.9,10.16-4.18,15.75,35.2.08,70.42.07,105.63.01-18.39-24.27-36.5-48.82-57-71.38-14.96,18.41-29.18,37.44-44.44,55.62M901.81,951.26c38.53,1.03,77.07-.25,115.6.03-16.99-24.84-38.16-46.38-57.65-69.18-19.13,23.2-39.99,44.99-57.95,69.15M1036.13,951.32c36.58-.77,73.2,1.21,109.75-.91-16.91-24.25-35.57-47.31-55.56-69.09-17.18,24.02-38.31,45.03-54.19,69.99M1163.89,950.38c36.84,1.52,73.69-.18,110.54.03-16.92-24.06-36.81-45.81-55.76-68.26-17.71,23.19-38.77,43.74-54.78,68.23M1581.84,948.89c23.88,1.26,110.65.84,136.08-.04-21.85-23.5-45.1-45.62-68.49-67.58-21.86,23.2-45.84,44.31-67.59,67.62M1738.93,948.89c42.85-.69,85.76,1.77,128.55-1.35-20.55-22.54-41.61-44.65-63.87-65.53-21.62,22.24-43.72,44.02-64.69,66.88M1903.59,927.75c-6.01,6.63-13.56,12.13-17.54,20.37,42.15,1.65,84.31.21,126.47-.05-20.49-22.99-41.59-45.55-64.64-66-14.36,15.6-29.42,30.55-44.29,45.68M780.6,932.37c-5.35,6.07-11.68,11.69-14.47,19.53,38.96.16,77.91.03,116.86.07-18.11-24.45-38.83-46.8-59.39-69.16-14.3,16.54-28.47,33.22-43,49.57M2194.58,948.11c41.6-.56,83.22-.54,124.83-.69-8.89-12.42-20.48-22.47-31.09-33.32-10.45-10.45-19.52-22.36-31.35-31.33-20.46,22.09-42.29,42.9-62.39,65.34M433.72,890.53c-16.95,21.22-36.8,40.02-52.62,62.17,37.71,1.25,75.43-.66,113.15.05-3.22-11.57-29.79-35.53-51.59-62.64-1.29-1.57-2.6-3.13-4.17-4.4-2.26.7-3.24,3.19-4.78,4.81M1435.94,950.43c3.48-.15,126.64-.96,127.45-.95-1.75-3.85-4.32-7.28-7.59-9.94-10.54-8.78-43.9-43.5-55.46-54.2-20.46,22.68-44.5,41.88-64.4,65.09M2037.55,948.07c43.08-.2,86.16.86,129.23-.54-21.6-20.78-42.94-41.82-64.67-62.44-21.77,20.74-43.82,41.2-64.56,62.99M2410.1,885.9c-45.29,45.88-58.87,54.45-62.29,61.46,16.6.27,124.53.04,125.53.04-19.96-21.61-41.29-41.95-63.25-61.49M2195.93,956.81c18.4,26.81,41.45,49.93,61.01,75.83,22.4-24.18,43.04-49.89,63.22-75.92-41.41-.3-82.81.3-124.23.09M2339.34,956.53c0,50.36.94,158.23.97,160.54,23.29-26.54,44.74-54.6,66.1-82.7-15.91-20.99-33.17-40.93-49.06-61.92-4.77-6.26-9.1-15.52-18.01-15.92M2353.89,956.71c17.62,25.41,38.11,48.62,57.17,72.93,18.41-25.02,39.66-47.86,57.06-73.6-38.06.99-76.14.42-114.23.67M1584.64,958.28c20.52,28.15,43.63,54.24,65.66,81.17,62.3-77.67,63.49-74.78,65.19-81.17-43.61-.61-87.24,1.36-130.85,0M1738.85,958.22c20.5,27.89,43.07,54.18,65.48,80.54,64.35-78.01,61.34-73.66,63.22-79.91-42.89-2.03-85.8.15-128.7-.64M1885.81,958.1c1.47,9.56,9.36,15.9,15.09,23.01,16.18,20.2,31.61,41.02,48.53,60.63,21.01-28.78,45.42-54.95,65.56-84.37-58.02-.33-129.18.74-129.18.74M2034.96,957.33c22.16,26.5,43.41,53.97,68.07,78.22,29.3-35.72,63.62-71.9,65.1-78.17-44.39-.13-88.78-.04-133.18-.05M1292.89,959.75c4.59,9.6,10.98,18.18,17.71,26.38,14.99,17.75,26.96,37.77,41.82,55.64,19.7-27.64,41.03-54.07,60.31-82-39.94-1-79.89.22-119.85-.03M1439.95,958.89c5.84,9.22,40.12,49.89,59.2,73.61.36.03,1.08.06,1.44.08,21.98-23.02,40.94-48.69,60.94-73.41-40.51-.45-81.06.31-121.57-.29M511.8,962.7c18,26.04,35.63,52.37,54.93,77.49,16.71-27.06,37.98-51.1,53.33-79-36.06,1.51-72.2-.38-108.26,1.51M766.09,962.04c2.05,9.76,3.69,10.62,58.26,81.96,11.11-13.87,20.97-28.68,31.75-42.78,9.84-12.87,20.84-25.15,27.66-39.99-39.23-.23-78.48-.87-117.68.82M904.69,961.21c17.74,26.59,36.19,52.71,55.56,78.14,18.83-26.09,37.72-52.16,55.76-78.82-37.1.12-74.22-.64-111.32.67M1037.84,961.21c18.11,25.65,35.32,51.94,53.8,77.34,16.99-26.7,37.06-51.39,52.89-78.83-35.55,1.3-71.15-.21-106.69,1.49M1165.4,960.5c16.34,27.94,35.44,54.14,54.19,80.49,17.38-27.54,37.16-53.47,54.14-81.27-36.1.51-72.25-.91-108.33.78M1431.24,960s.79,157.18.79,157.18c21.94-24.69,42.22-50.8,63.1-76.39,1.49-1.21.82-2.92-.36-4.02-21.5-25.33-41.59-51.83-63.53-76.77M386.29,962.08c14.74,26.81,35.32,49.78,51.19,75.87,18.66-23.11,34.75-48.16,52.02-72.28.43-1.17.82-2.36,1.16-3.55-34.79-.18-69.58-.08-104.37-.04M641,962.02c16.64,26.58,34.39,52.45,53.32,77.44,17.22-26.34,36.54-51.26,52.75-78.25-35.36.15-70.73-.61-106.07.8M2188.87,960.67c.01,51.45-.03,102.9.01,154.36,23.23-23.93,42.08-51.65,64.84-75.98-20.77-26.81-42.61-52.8-64.85-78.39M13.05,964.28c15.05,24.49,41.69,78.06,46.23,78.9,14.05-27.06,29.99-53.07,43.92-80.19-30.04,1.09-60.14-.75-90.16,1.3M123.32,964.43c-3,16.59,7.82,26.44,20.98,46.17,10.04,14.14,19.18,29.08,30.53,42.21,19.19-30.65,41.96-58.98,60.39-90.11-1-.05-91.34-.61-111.91,1.73M255.53,964.28c6.14,18.4,41.52,67.35,50.54,78.93,21.82-35.2,51.77-77.23,51.9-81.05-34.13,1.6-68.38-1.34-102.45,2.12M1654.47,1043.42c6.46,11.23,45.15,55.63,64.47,80.65.12,1.92.23,3.89.86,5.76,1.37-19.76-.23-111.36-.3-165.03-21.83,26.07-42.7,52.96-65.02,78.62M2033.65,967.03c0,1.06-1.17,100.07-.43,148.75,22.4-23.94,43.42-49.14,64.1-74.56-20.8-25.1-41.85-50-63.67-74.18M380.79,968.27c.51,50.85-2.24,101.72.13,152.56,17.12-26.28,36.39-51.07,53.37-77.43-17.87-25.02-34.78-50.74-53.5-75.13M1505.35,1039.57c63.97,80.32,58.99,66.75,59.48,82.7-22.14-25.5-41.94-52.96-64.89-77.75-21.81,29-46.95,55.37-67.84,85.07,44.31.6,88.64-.12,132.97-.22,1.18-10.18-.75-152.72-1.27-162.32-19.33,24.29-40.14,47.42-58.44,72.52M2109.03,1038.51c-3.22,4.16-6.42-1.3,43.29,56.81,6.18,7.05,11.46,15.01,19.1,20.65-1.58-49.46-.74-98.96-.88-148.43-21.77,22.54-41.5,46.9-61.51,70.98M2261.78,1038.17c20.11,23.76,39.14,48.44,60.03,71.54-.62-47.36.52-94.74-1.43-142.08-19.75,23.33-39.12,46.99-58.6,70.54M309.21,1049.59c43.08,63.15,45.62,71.53,52.32,77.01.14-5.89,1.23-78.26,1-157.51-17.88,26.76-36.35,53.14-53.32,80.49M1581.65,970.49c2.04,49.41,1.54,98.91,2.22,148.36,21.93-23.64,41.73-49.14,61.6-74.51-20.49-26.25-42.11-51.61-63.12-77.42-.17.9-.52,2.67-.7,3.57M1738,969.02c-.34,49.4.75,98.79.75,148.19,21.66-23.44,41.58-48.43,60.88-73.8-20.88-24.53-40.49-50.11-61.64-74.39M964.3,1045.79c55.03,79,51.65,73.84,53.79,75.61,1.25-58.23-.36-145.25-.61-152.13-16.9,26.08-36.7,50.15-53.18,76.52M1036.07,969.84c.64,49.06-1.01,98.18,1.4,147.22,15.9-24.99,34.54-48.16,49.63-73.68-17.17-24.41-33.76-49.22-51.04-73.54M1275.12,969.83c-17.47,25.78-35.3,51.33-52.39,77.38,22.75,31.15,48.16,73.64,53.19,76.34,0,0-.62-144.66-.8-153.72M1953.38,1045.78c19.17,26.82,39.81,52.54,61.45,77.4-.27-51.15,1.45-102.29-.45-153.42-20.53,25.19-40.23,51.05-61,76.02M442.25,1044.42c16.17,21.76,31.35,44.26,46.88,66.46.61.45,1.82,1.36,2.43,1.82.23-2.31,1.77-113.95,1.62-141.08-17.18,24.12-34.62,48.08-50.93,72.8M901.58,970.61c1.9,49.4.07,98.87,1.44,148.28,5.95-6.34,35.34-47.03,52.63-73.91-18.05-24.77-34.16-51-54.07-74.37M1403.19,984.04c-15.9,20.81-31.79,41.65-46.7,63.21,3.24,4.57,52.07,71.42,57.6,75.56-.87-50.36.05-100.75-.96-151.11-3.76,3.74-6.68,8.18-9.94,12.34M1808.35,1043.47c5.36,7.21,56.41,71.86,60.83,73.89,0-1-.29-127.55-.96-145.7-20.96,23.09-39.51,48.21-59.87,71.81M236.85,972.93c-19.61,28.81-39.82,57.2-59.03,86.28,51.71,74.29,47.99,73.51,56.25,75.82,1.21-24.87,4.49-160.02,2.78-162.1M1164.29,973.27c2.48,48.45-1.35,96.98.88,145.42,18.11-22.93,33.65-47.73,49.63-72.16-16.74-24.48-32.3-49.82-50.52-73.26M1293.04,973.53c1.28,135.65-.53,137.05,1.17,145.01,0,0,17.82-21.75,53.58-71.86-17.87-24.67-36.18-49.01-54.75-73.15M64.16,1047.67c-.79,1.9-2.67,4.1-1.03,6.1.54,1.01,41.64,75.61,43.89,76.84-1.55-98.49-1.48-156.88-1.48-156.88-14.82,24.04-28.43,48.84-41.38,73.94M572.18,1043.08c-.71,1.51-3.27,3.44-1.12,5.02,17.69,23.01,32.67,47.97,50.78,70.67,0,0-.03-145.9-.03-145.9-17.38,22.8-33.52,46.51-49.63,70.21M697.55,1045.78c3.25,4.84,49.02,70.36,49.02,70.36.76-4.57,1.36-113.82.45-141.6-17.31,23.16-33.04,47.45-49.48,71.24M1095.75,1044.38c16.3,25.17,33.69,49.61,50.96,74.11-.03-49.02.32-98.06-1.39-147.06-16.49,24.33-34.17,47.89-49.57,72.95M1886.09,973.64c.39,10.52,1.53,142.54,1.53,143.54,20.7-21.93,37.64-46.99,57.11-69.95-18.89-25.04-38.53-49.53-58.64-73.59M639.39,974.34c2.08,54.81-1.11,110.88.78,143.56,16.31-24.43,34.09-47.9,49.52-72.93-17.3-23.16-31.42-48.65-50.3-70.63M828.31,1050.2c18.22,24.21,36.14,48.77,54.42,72.85.47.31,1.4.92,1.87,1.22.05-1,.32-114.34-.77-148.86-18.93,24.62-37.84,49.27-55.52,74.8M511.68,974.49c-1.09,48.27-1.17,96.57-2.23,144.84,19.15-22.98,34.36-48.89,52.5-72.64-15.69-24.78-33.05-48.47-50.27-72.2M255.38,981.14c-.23,46.14-1.66,92.26-2.05,138.4,17.83-22.02,31.6-46.88,47.89-69.98-14.57-23.25-29.52-46.34-45.85-68.42M765.76,977.41c.95,65.89-.78,110.7-.36,144.3,16.01-17.08,28.17-37.24,42.55-55.6,4.11-5.22,10.02-9.76,11.68-16.39-1.2-4.29-47.45-64.58-53.87-72.3M123.5,993.55c.09,3.95,1.43,128.87,1.43,128.87,13.15-15.22,44.11-62.36,44.55-63.4-12.88-20.42-39.98-60.67-45.97-65.46M2410.28,1039.93c-21.6,29.16-45.81,56.32-66.94,85.82,44.66.14,89.34-.47,134.01-1.01-21.22-29.15-44.16-56.98-67.06-84.81M2190.16,1126.62c6.54.11,115.93-.15,131.96-2.01-1.97-8.99-9.08-15.19-14.98-21.72-16.62-19.39-32.19-39.64-48.66-59.16-23.93,26.63-47.19,53.95-68.32,82.89M2033.53,1127.28c45.22-.22,90.44-.17,135.67-.69-10.77-17.27-26.21-30.83-38.81-46.66-9.59-11.17-18.23-23.19-28.46-33.79-22.54,27.26-46.65,53.22-68.4,81.14M379.64,1133.82c37.2,1.17,74.47,1.13,111.65-.56,1.52-9.59-5.26-17.09-10.84-23.92-14.34-19.62-27.21-40.32-42.13-59.52-19.93,27.73-39.98,55.4-58.68,83.99M1089.49,1052.24c-17.49,26.43-36.92,51.59-53.25,78.8,36.54,1.58,73.11,0,109.68-.1-15.65-27.31-34.93-52.27-52.75-78.14-.49-1.5-3.05-2.59-3.67-.56M1585.59,1129.4c42.87-.31,85.75-.75,128.62-.7-20.8-26.93-42.24-53.37-64.75-78.9-20.7,27-43.94,52-63.87,79.6M1740.32,1128.06c42.39.95,84.8-.14,127.21.04-19.97-27.15-41.69-52.96-63.86-78.32-21.14,26.07-43.38,51.28-63.35,78.29M530.43,1102.43c-7.64,9.86-15.57,19.74-20.28,31.42,19.87.52,39.8-1.18,59.6.78,17.14-3.32,34.82,1.64,51.84-2.75-15.71-26.69-35.87-50.43-52.19-76.71-.86-1.58-2.22-2.79-3.67-3.78-12.21,16.71-22.55,34.72-35.3,51.05M669.58,1086.12c-9.98,15.32-22.62,29.15-29.52,46.3,35.67,1.41,71.43,1.56,107.09-.57-4.45-11.48-11.95-21.39-19.31-31.12-12.07-15.92-21.96-33.38-33.98-49.3-8.77,11.04-16.06,23.22-24.28,34.69M959.61,1051.34c-18.18,27.02-39.12,52.22-55.36,80.48,37.49.78,75,.01,112.5,0-18.41-27.26-37.06-54.4-57.15-80.48M1889.27,1128.12c39.63-.25,79.26-.45,118.89-.84-18.74-25.88-39.38-50.27-59.39-75.15-19.61,25.5-41.07,49.58-59.5,75.99M1217.76,1053.1c-15.49,26.9-36,50.57-50.91,77.84,34.85.14,69.72.06,104.57-.48-9.17-14.2-41.61-64.64-53.67-77.36M1350.5,1054.52c-18.4,25.41-38.56,49.59-55.66,75.92,113.61,0,9.57-.43,113.94-.43-16.56-26.03-35.93-50.09-54.81-74.43-.6-1.08-2.66-2.93-3.48-1.06M304.14,1055.5c-15.88,27.09-36.04,51.5-50.8,79.29,34.84.6,69.7-.16,104.55.01-11.8-18.81-46.73-73.22-53.75-79.3M767.2,1132.41c37.83.65,75.68-.16,113.52.04-17.82-26.33-36.7-51.96-56.94-76.48-19.13,25.27-38.57,50.36-56.58,76.44M57.32,1058.39c-13.74,26.25-28.94,51.7-42.81,77.88,28.83-.56,57.65-.32,86.49-.57-14.08-26.03-27.15-52.73-43.68-77.31M125.76,1135.69c85.51.05,82.45-1.1,96.02.08-14.53-24.64-30.95-48.19-48.62-70.69-15.23,23.91-33.12,46.1-47.4,70.62M2340.12,1143.65c1.61,4.92,3.88,9.64,7.07,13.77,22.81,28.07,40.89,59.64,63.9,87.58,25.2-33.79,48.62-68.9,74.12-102.46.05,2.49.06,5.01.23,7.53,1.6-2.36,2.85-4.96,3.18-7.81-20.53-.09-128.26-.43-148.5,1.4M2033.62,1144.9c22.15,30.77,44.78,61.25,69.29,90.19,28.26-39.96,65.17-82.36,67.39-90.87-45.54-.97-91.16-1.35-136.68.69M2189.75,1143.5c2.19,8.51,8.25,15.1,13.6,21.8,18.31,23.76,35.11,48.77,55.15,71.12,17.57-22.05,33.39-45.44,50.71-67.68,6.01-7.23,14.01-14.81,13.01-25.1-21.14-1.86-97.98-.41-132.47-.14M1585.71,1145.57c20.09,30.04,42.38,58.56,65.19,86.58,36.92-51.07,50.1-64.94,64.59-86.97,0,0-129.78.39-129.79.39M1739.29,1145.55c.25,12.87,11.38,19.23,48.25,70.85,5.53,7.71,9.46,16.95,17,22.98,0,0,41.39-57.64,51.5-71.29,5.58-6.72,12.96-13.17,13.37-22.57-43.37-1.28-86.75-.4-130.11.03M1889.42,1145.53c19.71,28.78,39.32,57.67,59.99,85.79,19.07-29.55,40.99-57.17,59.42-87.15-39.8.28-79.62-.27-119.41,1.36M1168.36,1147.8c15.45,28.03,33.98,54.21,49.69,82.1,19.54-26.26,35.17-55.14,52.36-82.92-34,.7-68.04.34-102.05.82M1435.15,1146.49c19.53,32.25,43.7,61.31,64.8,92.51,17.61-20.79,32.36-43.76,48.19-65.88,5.97-8.6,14.55-15.95,16.7-26.65-43.22-1.08-86.47.01-129.7.03M1719.22,1145.94c-1.59,14.13-39.77,54.15-64.97,92.71.35.46,66.78,86.82,67.26,87.14,1.66-12.81.11-6.1-.35-179.45-.48-.1-1.44-.3-1.93-.4M1298.8,1146.92c4.17,11.51,46.42,73.92,53.64,84.45,18.17-28.25,37.1-56.03,54.23-84.93-35.96.6-71.93.32-107.87.48M771.89,1150.12c16.52,27.2,34.56,53.42,52.45,79.74,1.31-1.87,50.63-75.8,52.28-80.98-34.91.83-69.85-.7-104.73,1.24M906.17,1149.32c18.67,26.47,34.82,54.64,54.18,80.62,18.06-26.95,35.84-54.1,53.49-81.32-35.89-.06-71.79-.23-107.66.7M1038.4,1147.95c8.97,14.58,47,75.08,53.8,81.57,16.73-27.65,35.59-53.97,52.28-81.66-35.36-.52-70.72.77-106.08.09M1953.39,1237.77c20.32,29.12,40.16,58.56,61.01,87.3.39-59,.82-118.02.01-177.01-19.8,30.26-42.51,58.6-61.03,89.7M253.39,1152.51c16.21,27.3,34.6,53.23,51.19,80.3,19.11-26.47,36.53-54.14,53.37-82.1-34.8,1.93-69.75-.57-104.56,1.8M514.77,1150.26c14.75,28.83,34.67,54.6,50.1,83.05,11.69-12.78,36.52-57.23,53.79-83.15-34.63-.53-69.27.84-103.89.1M639.82,1150.19c-.7,9.4-.34,5.71,53.1,87.97,18.32-23.71,33.69-49.48,50.61-74.15,2.93-4.33,3.97-9.6,3.14-14.74,0,0-106.62.91-106.85.92M382.58,1151.68c19.63,28.78,35.67,59.94,56.54,87.88,53.5-86.41,50.9-78.96,52.09-88.81-36.22.05-72.43-.35-108.62.93M1402.68,1165.54c-16.18,23.77-31.56,48.08-46.19,72.82,19.43,30.2,38.24,60.81,58.67,90.34,0,0-.8-80.54-.8-179.24-4.56,4.83-7.77,10.72-11.67,16.08M20.62,1152.44c10.86,22.98,23.03,45.3,35.75,67.3,1.2-1.84,28.31-51.93,35.57-67.23-23.76-.17-47.54.48-71.32-.07M98.4,1154.7c-14.25,23.12-24.54,48.41-38.51,71.69,15.22,30.49,31.39,60.51,48.08,90.22.46-14.63-.86-162.75-.88-163.76-2.92-.13-7.03-1.5-8.68,1.84M126.38,1152.49c14.42,26.47,32.03,51.04,46.78,77.32,17.67-25.16,33.38-51.61,48.75-78.21-31.83.73-63.69.23-95.53.88M212.29,1180.09c-11.67,18.78-23.37,37.57-34.33,56.76,47.9,77.52,46.56,78.09,53.71,84.57.1-56.64,3.57-113.28,1.58-169.91-.64.08-1.89.26-2.53.35-6.68,9.02-12.3,18.81-18.43,28.24M876.16,1162.9c-16.28,24.25-32.51,48.56-47.87,73.42,18.79,28.29,36.88,57.06,56.34,84.92.67-56.69-.75-113.4.66-170.05-4.56,2.56-6.24,7.7-9.14,11.72M1222.71,1236.81c18.67,28.6,35.06,58.68,54.79,86.62-1.47-36.31-.16-85.46-1.56-171.97-18.38,28.04-35.63,56.82-53.23,85.36M964.3,1236.79c18.27,28.35,36.37,56.84,55.82,84.41,0,0-1.14-169.09-1.14-169.09-17.86,28.47-37.64,55.69-54.68,84.68M765.41,1154.21c.2,54.82-.79,109.65.04,164.47,18.66-27.52,37.12-55.18,54.94-83.26-19-26.61-35.04-55.28-54.98-81.22M1294.44,1154.97c-.87,77.62.67,110.64.86,163.08,19.3-25.55,35.41-53.27,52.49-80.3-17.06-28.04-34.89-55.63-53.34-82.79M509.54,1155.93c-1.13,57.28-2.54,114.58-1.64,171.88,17.51-29.62,36.78-58.17,54.07-87.93-16.96-28.3-34.74-56.12-52.44-83.96M1565.25,1155.87c-4,17.91,5.57-8.38-60.69,90.06,22.16,28.22,40.99,58.91,63.87,86.59.02-1-.63-164.02-3.18-176.65M1887.61,1155.79c1.23,53.63-.27,107.31,2.22,160.92,17.8-27.12,37.8-52.76,54.9-80.35-19.31-26.67-36.63-54.77-57.12-80.57M1096.78,1233.35c-.62,1.22-2.23,2.74-.87,4.09,17.75,26.15,33.88,53.36,52.27,79.08.14-53.1.7-106.28-2.1-159.32-16.14,25.58-33.08,50.63-49.3,76.16M1165.37,1156.63c-.02,1.31.22,122.47,1.56,156.25,17.32-24.56,32.91-50.31,47.62-76.47-2.09-5.77-41.45-67.88-49.18-79.78M1432.82,1157.3c-1.04,31.65.13,149.05.78,174.41,22.54-27.48,41.2-57.85,63.13-85.8-20.7-29.97-41.46-59.91-63.91-88.61M1584.63,1157.19c-.03,1,1.3,134.35,2.3,158.63,19.54-26.02,39.92-51.41,58.56-78.09-19.4-27.51-40.06-54.08-60.86-80.54M2033.75,1157.26c-.87,7.12-.71-3.89-.96,166.93,23.28-26.8,43.67-55.9,65.28-84.01-21.93-27.26-42.32-55.72-64.32-82.92M2188.91,1157.15c.45,96.57.72,127.8.44,169.9,23.02-27.09,43.33-56.33,64.4-84.93-22.29-27.79-42.2-57.43-64.84-84.97M309.46,1238.14c3.17,6.91,26.37,43.72,50.68,79.12,1.05-52.88,1.35-105.77.95-158.65-17.23,26.49-34.19,53.18-51.63,79.53M379.45,1158.78c.4,58.87-2.21,117.76.08,176.62,17.48-30.31,37.76-58.91,54.79-89.48-18.31-29.03-35.78-58.6-54.86-87.14M569.88,1240.63c25.44,39.56,43.63,70.6,50.66,79.39,0,0,1.17-159.28,1.17-159.28-.31-.56-.93-1.67-1.25-2.23-16.31,27.71-34.63,54.19-50.58,82.13M903.1,1157.07c-.77,52.94.21,105.9-.14,158.85,18.87-25.69,35.93-52.63,52.72-79.7-17.17-26.61-33.67-53.73-52.58-79.16M2106.05,1240.12c21.42,28.3,41.82,57.46,65.37,84.07-1.19-33.55.66-78.81-1.39-167.04-21.62,27.43-42.37,55.54-63.99,82.97M2340.29,1158.87c1.14,59.77-1.39,119.6,2.3,179.31,9.51-7.08,58.67-79.71,63.83-87.5-21.77-30.79-43.26-61.8-66.13-91.81M1036.97,1160.33c1.22,50.07-1.18,100.21,2.09,150.24,15.62-25.32,33.26-49.35,48.06-75.17-16.84-24.94-31.43-51.44-50.15-75.07M1809.41,1243.7c-1.64,2.5-3.44-2.51,54.6,78.13,1.75,2.38,3.69,4.85,6.59,5.9.23-4.08-.77-162.31-1.1-166.46-19.93,27.55-41.17,54.16-60.09,82.42M1739.52,1163.29c-.27,53.66.8,107.31.91,160.97,20.98-25.65,40.21-52.68,59.21-79.83-19.79-27.22-39.2-54.76-60.12-81.14M2261.73,1242.16c19.92,27.11,39.38,54.6,60.83,80.56-.06-53.33-.12-106.68-.86-160-20.04,26.45-39.51,53.32-59.98,79.44M124.9,1164.89c1.27,47.26-.53,94.58,2.12,141.82,13.7-23.82,29.46-46.39,42.78-70.42-14.59-24.03-28.39-48.6-44.9-71.4M252.51,1164.61c-1.6,50.87-1.88,101.77-2.93,152.65,19.1-24.36,33.84-51.72,51.37-77.16-1.46-3.99-23.89-40.34-48.44-75.5M459.41,1218.48c-5.61,9.5-11.98,18.61-16.92,28.44,15.78,24.3,29.38,50.13,47.01,73.2-.45-35.68.67-71.37.7-107.05l.53-.87c-.16-14.45.47-28.92.05-43.39-10.78,16.35-21.01,33.06-31.38,49.67M639.32,1168.52c-.03,51.02-1.32,102.07.1,153.08,16.7-25.73,34.14-51.01,50.28-77.12-16.56-25.47-32.7-51.24-50.39-75.96M700.63,1240.32c-1.18,2.09-3.8,4.71-1.53,7.06,16.48,23.47,30.78,48.43,47.99,71.41-.9-49.13,1.14-98.3-.66-147.41-16.22,22.31-30.88,45.73-45.79,68.94M55.98,1234c-2.28,4.13-52.58,98.2-53.71,102.8.26.51.78,1.52,1.04,2.02,8.64-4.28,18.56-2.28,27.8-2.18,1,0,71.58.45,77.12-.6-1.63-9.99-1.17-8.13-52.24-102.04M138.4,1298.39c-7.32,11.34-14.21,24.33-12.11,38.31,34.57-.26,69.15,1.06,103.68-.84-16.18-32.57-37.45-62.27-56.17-93.39-11.55,18.8-23.09,37.62-35.4,55.93M782.01,1305.2c-7.02,9.68-13.97,19.79-17.22,31.47,40.01,1.43,80.04.29,120.04.61-2.61-12.13-4.16-7.34-53.76-85.79-2.14-3.3-3.92-6.9-6.86-9.56-15.17,20.35-27.01,42.94-42.2,63.27M959.57,1242.52c-45.55,72.29-56.77,79.28-56.91,93.71,5.86.75,78.38,2.81,117.9-.42-19.04-31.92-39.81-62.77-60.99-93.3M1090.34,1242.52c-51.53,81.01-54.87,78.51-52.18,94.79,36.74-.42,73.51,1.12,110.23-.62.5-15.22-13.97-25.63-54.38-91.18-.88-1.23-1.84-3.35-3.67-2.98M1176.96,1309.45c-5.58,8.16-11.77,17.41-9.68,27.85,36.48.03,72.96.79,109.44-.06-18.04-32.31-38.34-63.27-58.02-94.58-13.29,22.64-27.74,44.59-41.74,66.8M1649.77,1242.76c-44.36,63.89-65.32,75.51-63.17,94.51,14.11.11,110.8,2.66,132.37-1.12-3.72-9.36-68.42-92.39-69.2-93.39M1948.24,1243.17c-16.45,23.12-31.84,47.01-48.21,70.2-5.5,6.92-12.41,14.25-11.25,23.86,41.77,1.9,83.61.21,125.4.87-15.64-26-64.08-94.54-65.94-94.93M252.99,1325.13c-2.13,3.36-3.13,7.25-3.66,11.16,15.67.87,97.57.6,111.06.35-.44-12.71-6.13-15.47-55.43-91.82-17.01,26.98-34.19,53.86-51.97,80.31M1306.33,1314.02c-4.85,7.11-10.41,14.34-11.21,23.23,39.19,1.05,78.42-.23,117.62.86-19.74-31.71-39.76-63.26-60.87-94.08-15.12,23.37-30.39,46.64-45.53,69.99M2032.75,1338.11c45.96,0,91.92.04,137.9-.03-9.31-16.96-67.7-90.91-68.5-91.91-23.45,30.4-48.13,59.91-69.4,91.94M556.64,1260.97c-15.39,25.65-32.45,50.27-47.15,76.34,104.03-.96,114.39,2.39,109.82-3.83-15.92-30.22-34.93-58.65-53.93-86.99-3.24,4.61-5.71,9.72-8.73,14.48M2257.41,1248.01c-21.68,30.44-45.26,59.47-66.72,90.08,43.99-.16,87.97.47,131.96-.01-2.47-8.69-8.46-15.62-13.9-22.58-53.39-69.56-46.83-63.91-51.33-67.49M1741.15,1337.24c42.37,1.93,84.8.16,127.19.91-20.59-30.07-42.74-59.03-64.69-88.09-20.15,29.55-43.67,56.72-62.51,87.19M693.75,1250.75c-18.31,28.66-39.11,55.8-55.01,85.93,21.39.56,87.98,1.7,108.44-.44-4.57-14.43-52.73-84.48-53.44-85.49M1455.66,1312.88c-5.75,8.18-12.6,15.77-16.23,25.23,41.22-.42,82.46-.52,123.7.03-20.61-29.44-40.98-59.08-63.18-87.36-14.26,21.05-29.28,41.59-44.29,62.1M400.13,1313.49c-4.71,7.77-10.72,14.94-13.3,23.81,96.52-.51,89.9.97,101.85-1.98-15.21-28.52-32.48-55.94-51.23-82.26-11.9,20.48-24.78,40.34-37.32,60.43M2410.13,1257.03c-18.53,27.35-38.96,53.38-57.03,81.06,38.64-.25,77.32,1.93,115.93-.83-20.4-26.17-37.71-54.7-58.9-80.23M5.45,1345.1c17.4,43.67,33.93,87.69,52.75,130.77,16.61-43.19,35.67-85.45,50.39-129.35-34.35-2.18-68.79.84-103.14-1.43M126.87,1345.91c-.66,23.66-11.46,22.71,47.7,134.72,18.44-41.35,38.66-81.88,56.81-123.36-.91-3.54-.3-7.14,0-10.68-34.82-1.74-69.68-.27-104.51-.68M251.83,1345.87c17.65,35.74,34.24,72.1,54.33,106.54,16.56-35.98,35.97-70.58,52.54-106.55-35.62-.01-71.24-.05-106.87.01M376.96,1346.39l1.64.62s-.55,110.45-1.98,225.66c2.43-3.17,57.95-114.82,58.45-115.83-22.66-43.03-52.91-112.24-58.1-110.45M387.91,1345.87c15.71,35.19,33.11,69.63,51.06,103.73,15.61-34.81,34.45-68.07,49.7-103.06-33.58-1.48-67.18-.1-100.76-.68M507.93,1345.78c17.67,39.34,38.15,77.35,58.81,115.19,28.37-61.08,54.72-96.54,53.79-114.36-37.53-.88-75.07.14-112.59-.83M638.34,1346.62c15.79,40.19,36.68,78.12,55.97,116.69,42.95-92.63,52.9-99.62,52.37-116.73-36.11-.19-72.22-.65-108.34.04M1167.01,1346.55c-2.02,11.5.05,23.45,4.89,34.01,16.08,32.44,30.99,65.46,47.65,97.62,42.51-97.57,60.96-112.82,55.97-130.85-36.14-1.76-72.34-.39-108.51-.78M1587.54,1347.42c-4.53,25.04,8.34,31.38,61.14,127.89.3.25.9.77,1.19,1.01,18.39-29.59,35.18-60.13,52.05-90.61,6.97-12.06,16.73-23.67,17.06-38.27-43.82-.41-87.64-1.45-131.45-.02M765.31,1346.57c-.92,7.24.87,14.55,4.26,20.94,18.89,32.83,35.94,66.7,54.68,99.63,17.1-30.13,32.66-61.09,49.31-91.47,5.11-8.86,11.48-17.7,12.08-28.28-40.08-1.88-80.22-.57-120.33-.83M903.08,1347.33c-1.09,14.42,2.98,18.02,57.26,124.32,57.81-117.35,58.07-111.56,59.53-125.09-38.93.48-77.9-1.12-116.8.77M1038.53,1346.54c-4.19,24.93,5.56,32.34,15.6,54.25,12.34,25.21,24.2,50.67,37.57,75.38,58.33-118.02,59.33-114.51,56.86-129.61-36.67-.05-73.36,0-110.03-.03M1302.46,1373.06c12.69,21.49,22.97,46.85,49.93,96.22,27.79-55.82,48.14-91.2,60.92-122.7-39.23-.05-78.47-.05-117.69-.01-1.22,9.34,2.23,18.53,6.84,26.5M1434.34,1346.57c20.63,39.62,44.38,77.49,65.61,116.77,23.97-37.95,45.48-77.38,66.98-116.76-44.2.27-88.39-.18-132.59-.01M1740.2,1348.1c7.3,22.04,25.33,50.5,47.88,92.43,5.39,9.73,9.19,20.65,17.08,28.76,20.54-41.16,44.55-80.5,64.71-121.87-43.22.2-86.47-1.27-129.67.69M1890.39,1347.37c-2.23,8.49.95,17.06,4.94,24.49,18.39,32.8,35.26,66.45,53.99,99.06,21.46-41.25,44.12-81.87,64.88-123.49-41.28-.12-82.54-.01-123.82-.05M2033.57,1347.41c12.5,23.71,67.94,122,69.99,116.72,21.65-39.1,46.08-76.6,67.01-116.1-45.66-1.53-91.34-.4-137-.62M2189.96,1347.41c14.09,28.8,66.67,118.45,67.29,119.45,18.69-29.56,35.88-60.02,53.4-90.28,5.19-8.88,11.86-17.8,11.93-28.55-44.2-1.54-88.41-.39-132.62-.62M2349.4,1347.38c19.72,37.55,40.55,74.51,61.74,111.24,19.88-37.29,41.81-73.46,60.9-111.17-40.87-.18-81.75-.05-122.64-.08M2340.77,1348.59c1.21,77.74-.12,155.52,1.71,233.27,21.2-38.79,42.86-77.34,64.44-115.89-6.63-13.11-46.43-87-66.15-117.38M248.9,1356.78c-.4,70.94-4.06,141.87-2.54,212.84,48.66-98.8,56.83-108.49,53.88-112.62-.49-1-48.92-98.4-51.33-100.22M334.26,1408.98c-25.19,48.68-25,47.08-25.07,52.1.57,2.51,39.68,78.95,49.57,96.14.62-15.44,1.6-165.78,1.3-197.86-9.04,16.3-17.23,33.06-25.8,49.62M505.58,1424.88c-.06,100.91-2.42,116.8-.39,155.4,55.2-111.64,60.06-108.02,55.82-115.51-17.26-35.37-36.45-69.77-54.47-104.76.92,21.64-1.27,43.22-.96,64.87M1433.59,1437.76c2.01,47.22-.78,94.52,1.39,141.74,20.28-36.55,41.78-72.42,61.73-109.16-20.79-37.32-41.68-74.6-63.66-111.23.04,26.2.83,52.42.55,78.65M1358.18,1472.15c-1.03,2.24-3.04,4.83-1.3,7.29,19.92,38.29,38.59,77.23,59.03,115.26.6-78.01-.4-156.01-.93-234.01-19.35,36.93-38.07,74.21-56.8,111.47M1853.21,1392.55c-47.96,89.39-46.72,83.39-44.61,85.98.53,1,56.19,104.73,64.3,116.85,0,0-2.28-234.54-2.28-234.55-6.32,10.26-11.54,21.18-17.4,31.71M2144.06,1406.74c-12.72,21.93-25.78,43.73-37.8,66.04,21.16,37.11,42.45,74.22,65.11,110.48.7-45.48-.44-133.2.06-222.14-8.85,15.36-18.54,30.25-27.38,45.62M2014.09,1362.12c-66.51,124.33-61.97,116.52-60.38,118.64,20.46,37.62,39.06,76.26,60.72,113.23-.33-94.61.84-187.19-.34-231.87M2032.83,1362.18c-.16,17.81-.92,169.04,0,222.04,21.49-37.59,44.47-74.35,65.26-112.37-22.05-36.37-42.3-73.82-65.26-109.66M479.37,1381.17c-12.83,25.23-25.29,50.65-37.2,76.33,14.86,28.34,26.86,58.19,43.47,85.58,1.07-32.65,3.36-160.93,1.74-178.31-2.23,5.67-5.29,10.95-8.01,16.4M638.74,1366.56c-1.38,69.92.3,139.91-1.83,209.81,15.8-25.11,26.74-52.84,40.17-79.21,19.55-38.02,15.45-17.05-4.15-60.48-11.26-23.45-21.58-47.36-34.19-70.12M2189.35,1363.2c.46,13.44.58,209.76.4,220.95,23.23-35.54,43.13-73.08,64-110.01-4.4-7.88-57.83-103.33-64.4-110.93M1020.06,1367.42c-20.31,36.06-36.84,74.11-56.51,110.51,18.71,38.75,37.66,77.39,57.94,115.34,0-1-1.38-223.26-1.43-225.85M2274.82,1450.9c-4.22,8.1-9.32,15.82-12.87,24.23,20.45,35.7,40.47,71.68,61.73,106.92.05-.54-.57-213.86-.57-214.39-16.67,27.39-32.57,55.28-48.28,83.24M870.97,1393.98c-14.25,26.85-29.09,53.37-43.43,80.17,19.71,35.15,37.84,71.15,57.94,106.08-.17-70.6.71-141.23-.92-211.81-5.01,8.25-8.9,17.13-13.59,25.56M1741.07,1368.2c-.18,15.91.6,193.66,2.19,215.08,18.33-35.96,38.58-70.9,57.2-106.7-20.2-35.9-38.6-72.8-59.39-108.38M579.13,1448.44c-3.19,6.7-8.24,12.92-9.21,20.42.99,4.43,41,79.4,49.5,94.64.27-64.03,2.02-128.05.05-192.06-13.08,25.86-27.09,51.23-40.34,77M764.76,1371s-1.04,120.82.69,205.35c58.62-110.94,56.19-99.71,53.36-105.99-51.16-93.24-47.54-89.73-54.05-99.36M707.22,1449.4c-3.53,7.23-8.84,14.08-9.71,22.25,16.95,32.27,31.22,65.96,48.93,97.88-.7-65.83,1.42-161.11-.88-197.48-12.74,25.8-25.19,51.76-38.34,77.35M903.5,1373.78c-1.13,31.73.36,173.9.86,207,4.4-4.98,41.38-80.23,52.02-102.89-18.4-34.31-34.36-69.86-52.88-104.11M1295.35,1373.6c1.34,67.75-.52,135.54,2.04,203.26,17-31.17,32.09-63.34,48.69-94.73.83-2.08,2.89-4.32,1.57-6.63-17.21-34.08-33.61-68.58-52.29-101.9M189.5,1463.55c-4.07,8.53-10.47,16.27-11.95,25.82,1.97,9.91,8.82,17.84,12.87,26.94,11.98,25.61,23.21,51.61,36.07,76.81,1.66-72.41,3.11-144.84,3.7-217.27-14.09,28.97-27.22,58.43-40.69,87.7M1148.1,1376.45c-17.85,35.79-36.14,71.38-53.11,107.61,18.52,36.09,35.69,72.86,54.77,108.65.03-1.12-.1-183.17-1.66-216.26M1889.13,1373.4c1.68,59.53.95,181.16,2.26,206.79,18.56-33.82,36.2-68.1,54.12-102.25-19.36-34.54-36.37-70.38-56.38-104.54M1587.58,1381.03c-.02,1.02.94,158.55,3.83,200.66,17.69-33.15,37.5-65.14,54.86-98.48-20.05-33.78-37.94-68.83-58.69-102.19M1038.54,1384.85c-.18,64.53-.84,129.14,2.1,193.63,15.66-31.78,31.49-63.48,47.23-95.22-16.45-32.8-32.57-65.78-49.34-98.41M1167.03,1385.03s.64,198.8.64,198.8c13.04-22.98,47.34-96.99,47.64-98-15.77-33.76-31.3-67.63-48.27-100.8M126.38,1395.92c1.78,29.96-.58,118.6,2.95,180.76,14.2-28.86,26.76-58.52,41.29-87.23-14.55-31.26-28.26-62.96-44.24-93.53Z"/>
  <path class="track" d="M0,710c66.257,-13.2514 146.65263,-20.20912 200,-70c124.11205,-115.83791 229.95371,-249.95371 350,-370c30.18462,-30.18462 66.66667,-53.33333 100,-80c61.74981,-49.39985 120.61951,-107.94986 200,-130c53.01895,-14.72749 139.89831,9.92373 180,40c39.64285,29.73214 66.24887,73.71754 100,110c99.58517,107.05406 193.99681,219.29697 300,320c28.18291,26.77377 65.23092,42.61546 100,60c32.11092,16.05546 65.3111,30.74963 100,40c34.40092,9.17358 134.80633,-15.4419 150,-20c34.38702,-10.3161 65.61298,-29.6839 100,-40c36.78271,-11.03481 105.01418,-25.99811 150,-20c57.48174,7.66423 150.52164,27.83907 200,60c37.60035,24.44023 60.70574,68.38815 100,90c48.24946,26.5372 148.8034,20 200,20" id="track"/>
  <polygon class="car" points="0,0 150,40 150,75 0,75">
    <animateMotion dur="5s" repeatCount="indefinite" rotate="auto">
      <mpath href="#track" />
    </animateMotion>
  </polygon>
  <polygon class="car" points="0,0 150,0 150,75 0,75">
    <animateMotion begin="0.275s" dur="5s" repeatCount="indefinite" rotate="auto">
      <mpath href="#track" />
    </animateMotion>
  </polygon>
  <polygon class="car" points="0,0 150,0 150,75 0,75">
    <animateMotion begin="0.55s" dur="5s" repeatCount="indefinite" rotate="auto">
      <mpath href="#track" />
    </animateMotion>
  </polygon>
</svg>