<?xml version="1.0" encoding="UTF-8"?>
<svg xmlns="http://www.w3.org/2000/svg" viewBox="0 0 451.94 232.88">
    <path d="m14.7,68.64c2.55-.68,4.94-2.63,7.5-.38.33.28,1.15.2,1.66.03,1.16-.38,2.53-1.56,3.36-1.25,2.03.77,4.34-.09,5.94.77,7.15,1.89,15.01.37,21.65,4.29,3.74,2.05.59,7.49,5.21,9.23,3.54,1.11,3.87,6.87,8.31,6.23,2.44,1.93,5.88,2.7,6.72,6.49.21.96.95,2.29,2.56,2.95,1.89.49,6.34,9.46,6.26,11.71,9.61,12.78,26.39,15.69,41.52,19.72,6.47.46,8.25,8.17,13.58,10.34,7.85,5.59,14.59,12.47,20.2,20.48,5.9,5.57,14.25-1.46,20.98-2.1,1.74-.11,3.32-1.06,4.43-2.47,9.37-11.35,26.47-5.31,32.96-20.49,3.92-10.1,12.08-17.62,19.11-25.38,5.76-2.26,5.48-8.02,8.38-12.41,12.33-16.74,24.21-33.77,37.7-49.58.94-6.24,1.52-12.81,4.71-18.43,4.07-8.66,8-19.43,17.5-22.9,2.46-3.81,3.94-4.83,8.65-4.53.81-.17,1.3-1.62,2.45-.6.76.67.9,1.6,1.27,2.46.87,2.02,2.57,3.71,1.88,6.18-1.84,5.09-2.28,10.52-4.84,15.42-.83,5.17-2.84,10.82-1.7,16.33,3.1-.26,6.61.4,9.36-1.32,2.2-2.09,8.5,1.08,5.39,3.3-8.21,2.22-14.38,9.63-22.9,10.8-8.24,1.82-10.71,10.2-15.39,16.02-6.01,7.66-7.66,17.81-12.93,25.93-2.78,7.54-14.58,10.67-14.93,19.12l-.22.33c-1.76,1.94-1.9,2.31-.14,4.43.19-.4.38-.8.7-1.46-.53-.68-.8-2.21-.05-2.77,2.51,2.99,7.55.22,10.46-.96.71-.29,1.19-1.16,2.07-.48,3.37,2.66,7.05-1.02,10.36.7.02.01.56-.7.53-.73-1.91-1.7,1.5-1.46,1.69-.31.68,2.98,3.56,3.18,5.55,4.52,1.38.93,2.11.92,2.09-.98,2.03-.46,2.54,3.1,5.21,2.59,1.95.29-1.1,1.68-1.66,1.94-.64,1.04.56,1.11,1.26,1.33,2.03,1.32,1.78-.41,2.41-2.14,3.28.73.34,5.49,2.84,4.21,5.88-2.59,4.99,4.61,8.67,2.63,1.02-.41,1.48.3.42,1.16,1.82,1.57,1.93,5.1,5.45,4.72,2.86-.09-.71,2.89,3.76,5.94,1.02-.91,1.35,1.47,2.87.45.97-.65.34,1.29.62,2,1.16,3.37,2.22,4.22-1.91,5.11.35.35.65.91,1.07,1.02,2.82.77,4.01,4.02,7.13,4.54.74.13,1.77,2.39,1.58,3.49-.25,4.88-1.17,5.6-3.8,9.32-.06,2.41-1.36,2.95-3.47,2.98-5.11-1.02-2.27,7.32-7.74,5.93-1.66-.39-2.23,1.1-3.21,1.88-.71-.95-1.41-1.91-2.12-2.86-.29.74-.82.7-1.39.61-3.31-.45-1.84,4.19-6.61,2.38-2.71-.86-.25,4.87-3.37,2.51-1.92-1.93-3.49,2.08-3.47,3.39-.19,6.02,37.3,11.38,42.99,9.97,12.03-.66,23.97,1.42,35.99,1.08,1.51-.04,3.04.65,4.57.93,1.38.25,2.95-.56,4.14.94,11.48.46,24.92,4.2,36.08,3.07,9.58,1.05,18.2-3.99,25.41-9.67,3.5-4.37,5.18,4.25,2.64,6.2-3.6,8.14-25.24,9.25-18.57,18.1,5.34,3.94,2.69,9.15-3.47,4.65-3.93-5.03-10.86-1.87-15.58-5.62-2.86-3.15-36.2-2.14-40.39.09-7.38,1.21-15.78.34-22.94,2.34-2.52,1.16-5.1,1.24-7.1.63-19.95-3.78-39.6-8.45-60.06-7.75-10.33.9-20.13,4.4-30.22,6.43-11.99,2.88-21.02,12.31-33.38,14.52-9.32,2.99-19.06,3.27-28.79,3.94-7.26,1.42-15.13,1.77-21.87-1.84-11.75-7.42-25.7-10.42-38.11-16.29-11.12-6.44-22.18-13.05-33.45-19.13-3.43-1.91-3.46-5.71-5.14-8.83-3.23-8.49-11.18-14.57-15.82-22.31-3.01-4.53-6.23-8.81-9.88-12.84-8.88-12.93-14.77-27.92-24.99-39.92-4.75-6.02-10.62-11.08-17.07-15.25-5.18-3.98-9.66-9.62-16.4-10.99-10.25-2.69-9.67-10.69-.06-14.95,0,0,7.28-.89,7.28-.89Z"/>
</svg>