<?xml version="1.0" encoding="UTF-8"?>
<!DOCTYPE svg PUBLIC "-//W3C//DTD SVG 1.1//EN" "http://www.w3.org/Graphics/SVG/1.1/DTD/svg11.dtd">
<svg xmlns="http://www.w3.org/2000/svg" version="1.1" width="1200px" height="900px" viewBox="0 0 1200 900" xmlns:xlink="http://www.w3.org/1999/xlink">
<path fill="black" d="M 658.5,414.5 C 657.094,414.973 656.427,415.973 656.5,417.5C 653.09,423.988 649.924,430.655 647,437.5C 643.33,442.002 639.497,446.335 635.5,450.5C 633.915,451.002 633.415,452.002 634,453.5C 635.948,452.891 637.782,452.224 639.5,451.5C 647.218,450.407 654.885,450.573 662.5,452C 666.662,454.671 670.662,457.505 674.5,460.5C 677.806,461.163 681.139,461.663 684.5,462C 686.078,467.418 689.078,471.918 693.5,475.5C 694.689,480.879 697.189,485.546 701,489.5C 702.185,495.727 701.018,501.394 697.5,506.5C 693.503,505.668 690.836,507.168 689.5,511C 683.62,514.038 677.286,515.705 670.5,516C 669.655,517.558 670.321,518.558 672.5,519C 680.042,521.469 687.709,523.469 695.5,525C 711.166,525.58 726.833,526.08 742.5,526.5C 746.618,527.709 750.951,528.376 755.5,528.5C 760.167,529.167 764.833,529.833 769.5,530.5C 773.151,531.165 776.985,531.499 781,531.5C 785.229,531.49 789.062,530.823 792.5,529.5C 797.72,526.822 802.886,523.822 808,520.5C 810.069,521.632 811.235,523.465 811.5,526C 806.583,533.202 800.083,538.369 792,541.5C 791.833,542 791.667,542.5 791.5,543C 794.672,545.159 795.672,547.992 794.5,551.5C 793.333,551.833 792.167,552.167 791,552.5C 783.821,549.029 776.321,546.196 768.5,544C 761.5,543.333 754.5,543.333 747.5,544C 734.833,545.53 722.166,547.03 709.5,548.5C 699.759,547.119 690.092,545.285 680.5,543C 668.504,542.133 656.504,541.8 644.5,542C 636.876,544.156 629.21,546.156 621.5,548C 599.632,561.988 575.632,567.655 549.5,565C 543.531,562.016 537.531,559.016 531.5,556C 526.721,555.074 522.054,553.741 517.5,552C 503.629,545.148 490.129,537.648 477,529.5C 472.924,519.156 466.924,510.156 459,502.5C 451.607,492.104 444.607,481.437 438,470.5C 436.407,466.269 435.24,461.935 434.5,457.5C 428.742,454.576 424.075,450.409 420.5,445C 413.621,440.723 407.288,435.723 401.5,430C 398.283,428.363 394.95,427.03 391.5,426C 387.878,421.998 387.544,417.665 390.5,413C 393.601,411.034 396.768,409.2 400,407.5C 403.756,407.951 407.589,407.951 411.5,407.5C 412.263,408.268 413.263,408.768 414.5,409C 421.146,409.831 427.813,410.331 434.5,410.5C 437.952,411.392 440.952,413.058 443.5,415.5C 443.34,417.199 443.506,418.866 444,420.5C 444.671,421.252 445.504,421.586 446.5,421.5C 448.429,423.06 449.762,425.06 450.5,427.5C 453.122,428.033 455.622,429.033 458,430.5C 459.3,433.432 461.3,435.766 464,437.5C 464.487,441.113 465.987,444.113 468.5,446.5C 469.417,450.585 471.917,453.252 476,454.5C 477.033,457.217 476.2,459.051 473.5,460C 473.957,460.414 474.291,460.914 474.5,461.5C 476.003,462.052 477.669,462.052 479.5,461.5C 483.006,462.498 486.672,462.498 490.5,461.5C 494.324,462.615 497.99,464.281 501.5,466.5C 506.701,468.098 511.701,470.265 516.5,473C 518.903,476.067 521.903,478.4 525.5,480C 530.167,485.333 534.833,490.667 539.5,496C 544.21,496.52 548.877,496.854 553.5,497C 556.091,494.034 559.091,491.534 562.5,489.5C 569.582,486.695 576.582,483.695 583.5,480.5C 584.528,478.639 586.028,477.305 588,476.5C 593.723,464.112 601.723,453.446 612,444.5C 622.952,425.594 635.618,407.928 650,391.5C 651.745,378.586 656.411,366.92 664,356.5C 667.537,354.008 670.703,351.175 673.5,348C 676.188,347.608 678.855,347.108 681.5,346.5C 686.522,348.033 688.355,351.366 687,356.5C 683.427,365.201 681.427,374.201 681,383.5C 682.868,384.672 684.702,384.505 686.5,383C 689.167,382.333 691.833,382.333 694.5,383C 695.833,384.667 695.833,386.333 694.5,388C 689.84,389.326 685.84,391.659 682.5,395C 677.909,396.864 673.243,398.53 668.5,400C 664.946,404.714 661.613,409.547 658.5,414.5 Z"/>
</svg>
