<svg id="Layer_1" data-name="Layer 1" xmlns="http://www.w3.org/2000/svg" viewBox="0 0 176.09 145.62" height="176" width="176">
    <defs>
        <style>.cls-1{fill:#55b200;}.cls-1,.cls-2{stroke:#000;stroke-miterlimit:10;}.cls-2{fill:#fff;}</style>
    </defs>
    <title>AM</title>
    <path class="cls-1" d="M1027.09,514.33l20.06-4.54q-18.45,32.81-26.36,50.82-11,24.9-11,30.9a3.9,3.9,0,0,0,2.34,3.59q2.34,1.25,15.52,1.24L1015.08,611q-11.86.14-16.55-3t-4.69-10.91a47.25,47.25,0,0,1,3-15.23q3-8.64,11.5-26.51L964,611H949.17l14.65-33.69q3.22-7.17,11.57-28a42.81,42.81,0,0,1-2.78,4q-1,1.61-3.22,4.83a502.52,502.52,0,0,1-44.67,54.19H904.94l13.18-14.94a914.28,914.28,0,0,0,66.64-84.22l19-2.93q-1.17,4.25-13.47,35.88l-4,10.11q-1.32,3.66-4.1,10.84A610.68,610.68,0,0,1,1027.09,514.33Z" transform="translate(-872.04 -467.19)"/>
    <path class="cls-2" d="M880,528.9H895.9q7-17.47,15.85-28.33a109.91,109.91,0,0,1,25.84-23.85q13.95-9,24.66-9a15.38,15.38,0,0,1,12.62,6.09q4.84,6.09,4.84,16.07,0,26.28-25.4,79H936.71l11-25.4H909.11a47.12,47.12,0,0,0-.88,9.25,109.55,109.55,0,0,0,4.84,30.53L895.9,579.4a140.62,140.62,0,0,1-3.08-26.72v-9.25h-20Zm32.73,0h40.66q10.86-28,10.86-37a8.72,8.72,0,0,0-1.91-5.8,6.2,6.2,0,0,0-5-2.28q-3.82,0-11.23,5.06a93.67,93.67,0,0,0-14.61,12.55A100.51,100.51,0,0,0,912.78,528.9Z" transform="translate(-872.04 -467.19)"/>
</svg>