<?xml version="1.0" encoding="utf-8"?>
<svg version="1.1" xmlns="http://www.w3.org/2000/svg" xmlns:xlink="http://www.w3.org/1999/xlink" x="0px" y="0px" viewBox="0 0 256 256" enable-background="new 0 0 256 256" xml:space="preserve">
    <path fill="#000000" d="M48.3,128c0-3.9-3.2-7.1-7.1-7.1H17.1c-3.9,0-7.1,3.2-7.1,7.1c0,3.9,3.2,7.1,7.1,7.1h24.1C45.1,135.1,48.3,131.9,48.3,128"/>
    <path fill="#000000" d="M238.9,120.9h-24.1c-3.9,0-7.1,3.2-7.1,7.1c0,3.9,3.2,7.1,7.1,7.1h24.1c3.9,0,7.1-3.2,7.1-7.1C246,124.1,242.8,120.9,238.9,120.9"/>
    <path fill="#000000" d="M49.3,165.3l-20.9,12.1c-3.4,1.9-4.5,6.3-2.6,9.7c1.3,2.3,3.7,3.5,6.1,3.5c1.2,0,2.4-0.3,3.5-0.9l20.9-12.1c3.4-2,4.6-6.3,2.6-9.7C57,164.5,52.6,163.3,49.3,165.3"/>
    <path fill="#000000" d="M203.2,91.7c1.2,0,2.4-0.3,3.5-0.9l20.9-12.1c3.4-2,4.6-6.3,2.6-9.7c-2-3.4-6.3-4.6-9.7-2.6l-20.9,12.1c-3.4,2-4.6,6.3-2.6,9.7C198.4,90.4,200.8,91.7,203.2,91.7"/>
    <path fill="#000000" d="M88.1,197.1c-3.4-2-7.7-0.8-9.7,2.6l-12.1,20.9c-2,3.4-0.8,7.7,2.6,9.7c1.1,0.6,2.3,0.9,3.5,0.9c2.5,0,4.8-1.3,6.1-3.5l12.1-20.9C92.7,203.4,91.5,199,88.1,197.1"/>
    <path fill="#000000" d="M187,25.8c-3.4-2-7.7-0.8-9.7,2.6l-12,20.9c-2,3.4-0.8,7.7,2.6,9.7c1.1,0.6,2.3,0.9,3.5,0.9c2.5,0,4.8-1.3,6.1-3.5l12-20.9C191.6,32.1,190.4,27.8,187,25.8"/>
    <path fill="#000000" d="M128,207.7L128,207.7c-3.9,0-7.1,3.2-7.1,7.1l0,24.1c0,3.9,3.2,7.1,7.1,7.1l0,0c3.9,0,7.1-3.2,7.1-7.1l0-24.1C135.1,210.9,131.9,207.7,128,207.7"/>
    <path fill="#000000" d="M128,48.3c3.9,0,7.1-3.2,7.1-7.1V17.1c0-3.9-3.2-7.1-7.1-7.1c-3.9,0-7.1,3.2-7.1,7.1v24.1C120.9,45.1,124.1,48.3,128,48.3"/>
    <path fill="#000000" d="M177.5,199.7c-2-3.4-6.3-4.6-9.7-2.6c-3.4,2-4.6,6.3-2.6,9.7l12,20.9c1.3,2.3,3.7,3.5,6.1,3.5c1.2,0,2.4-0.3,3.5-0.9c3.4-2,4.6-6.3,2.6-9.7L177.5,199.7"/>
    <path fill="#000000" d="M78.5,56.4c1.3,2.3,3.7,3.5,6.1,3.5c1.2,0,2.4-0.3,3.5-0.9c3.4-2,4.6-6.3,2.6-9.7L78.7,28.4c-2-3.4-6.3-4.6-9.7-2.6c-3.4,2-4.6,6.3-2.6,9.7L78.5,56.4"/>
    <path fill="#000000" d="M227.6,177.4l-20.9-12.1c-3.4-2-7.7-0.8-9.7,2.6c-1.9,3.4-0.8,7.7,2.6,9.7l20.9,12.1c1.1,0.6,2.3,0.9,3.5,0.9c2.5,0,4.8-1.3,6.1-3.5C232.2,183.7,231,179.3,227.6,177.4"/>
    <path fill="#000000" d="M56.4,78.5l-20.9-12c-3.4-2-7.7-0.8-9.7,2.6c-2,3.4-0.8,7.7,2.6,9.7l20.9,12c1.1,0.6,2.3,0.9,3.5,0.9c2.5,0,4.8-1.3,6.1-3.5C60.9,84.8,59.7,80.4,56.4,78.5"/>
</svg>