<?xml version="1.0" encoding="UTF-8"?>
<!DOCTYPE svg PUBLIC "-//W3C//DTD SVG 1.1//EN" "http://www.w3.org/Graphics/SVG/1.1/DTD/svg11.dtd">
<svg xmlns="http://www.w3.org/2000/svg" version="1.1" width="341px" height="119px" style="shape-rendering:geometricPrecision; text-rendering:geometricPrecision; image-rendering:optimizeQuality; fill-rule:evenodd; clip-rule:evenodd" xmlns:xlink="http://www.w3.org/1999/xlink">
<g><path style="opacity:0.005" fill="#f3f3f3" d="M 37.5,-0.5 C 116.5,-0.5 195.5,-0.5 274.5,-0.5C 282.833,0.166667 291.167,0.833333 299.5,1.5C 290.833,1.5 282.167,1.5 273.5,1.5C 234.5,1.5 195.5,1.5 156.5,1.5C 142.167,1.5 127.833,1.5 113.5,1.5C 88.1667,1.5 62.8333,1.5 37.5,1.5C 35.901,1.76781 34.5676,1.43448 33.5,0.5C 35.099,0.767809 36.4324,0.434475 37.5,-0.5 Z"/></g>
<g><path style="opacity:0.774" fill="#8c8c8c" d="M 156.5,1.5 C 195.5,1.5 234.5,1.5 273.5,1.5C 273.5,1.83333 273.5,2.16667 273.5,2.5C 242.493,2.16682 211.493,2.50015 180.5,3.5C 181.025,4.19238 181.692,4.69238 182.5,5C 181.263,5.23209 180.263,5.73209 179.5,6.5C 178.833,6.5 178.167,6.5 177.5,6.5C 170.359,5.46844 163.359,3.80177 156.5,1.5 Z"/></g>
<g><path style="opacity:0.11" fill="#d1d1d1" d="M 273.5,2.5 C 273.5,2.16667 273.5,1.83333 273.5,1.5C 282.167,1.5 290.833,1.5 299.5,1.5C 302.167,2.16667 304.833,2.83333 307.5,3.5C 296.183,2.7407 284.85,2.40736 273.5,2.5 Z"/></g>
<g><path style="opacity:0.997" fill="#525252" d="M 48.5,8.5 C 48.3505,9.55198 48.5172,10.552 49,11.5C 50.2697,9.42155 51.7697,9.08821 53.5,10.5C 52.209,10.2627 51.209,10.596 50.5,11.5C 49.5592,13.0495 48.8925,14.7162 48.5,16.5C 47.6618,16.8417 47.3284,17.5084 47.5,18.5C 45.8681,21.673 44.5348,25.0063 43.5,28.5C 41.8009,30.5664 40.4676,32.8997 39.5,35.5C 38.0527,36.6222 37.0527,38.1222 36.5,40C 34.0995,40.1858 31.7662,40.6858 29.5,41.5C 32.0324,41.0687 34.3657,41.902 36.5,44C 35.1667,44.3333 33.8333,44.6667 32.5,45C 33.7375,45.2321 34.7375,45.7321 35.5,46.5C 27.16,46.6664 18.8267,46.4997 10.5,46C 7.58898,45.67 5.08898,44.5033 3,42.5C 2.53566,43.0944 2.36899,43.7611 2.5,44.5C 1.38705,43.0536 1.22039,41.3869 2,39.5C 8.25406,28.6601 14.2541,17.6601 20,6.5C 21.4443,4.84464 23.2776,4.17798 25.5,4.5C 26.4959,4.41423 27.3292,4.74756 28,5.5C 28.8388,4.37586 30.0055,3.70919 31.5,3.5C 54.6556,2.07315 59.9889,2.07315 47.5,3.5C 47.6287,5.2161 47.962,6.88277 48.5,8.5 Z"/></g>
<g><path style="opacity:0.992" fill="#606060" d="M 37.5,1.5 C 62.8333,1.5 88.1667,1.5 113.5,1.5C 113.196,2.14987 112.863,2.81654 112.5,3.5C 114.078,4.2978 115.744,4.7978 117.5,5C 115.942,5.21003 114.609,5.71003 113.5,6.5C 97.3246,6.1703 81.3246,6.50364 65.5,7.5C 59.7414,7.21427 54.0748,7.5476 48.5,8.5C 47.962,6.88277 47.6287,5.2161 47.5,3.5C 59.9889,2.07315 54.6556,2.07315 31.5,3.5C 30.0055,3.70919 28.8388,4.37586 28,5.5C 27.3292,4.74756 26.4959,4.41423 25.5,4.5C 29.3596,2.97927 33.3596,1.97927 37.5,1.5 Z"/></g>
<g><path style="opacity:0.996" fill="#747474" d="M 113.5,1.5 C 127.833,1.5 142.167,1.5 156.5,1.5C 163.359,3.80177 170.359,5.46844 177.5,6.5C 172.167,6.5 166.833,6.5 161.5,6.5C 161.03,5.30652 160.03,4.63985 158.5,4.5C 155.685,4.01681 152.852,3.68347 150,3.5C 139.123,3.68983 128.623,4.68983 118.5,6.5C 116.833,6.5 115.167,6.5 113.5,6.5C 114.609,5.71003 115.942,5.21003 117.5,5C 115.744,4.7978 114.078,4.2978 112.5,3.5C 112.863,2.81654 113.196,2.14987 113.5,1.5 Z"/></g>
<g><path style="opacity:0.971" fill="#686868" d="M 273.5,2.5 C 284.85,2.40736 296.183,2.7407 307.5,3.5C 311.736,3.82607 315.402,5.49274 318.5,8.5C 310.648,6.33545 302.314,4.66879 293.5,3.5C 292.167,3.83333 290.833,4.16667 289.5,4.5C 289.709,5.08605 290.043,5.58605 290.5,6C 289.429,6.85175 288.429,7.68509 287.5,8.5C 268.171,7.63659 248.838,6.80326 229.5,6C 227.869,4.16438 227.202,4.66438 227.5,7.5C 221.5,7.5 215.5,7.5 209.5,7.5C 199.681,6.50598 189.681,6.17265 179.5,6.5C 180.263,5.73209 181.263,5.23209 182.5,5C 181.692,4.69238 181.025,4.19238 180.5,3.5C 211.493,2.50015 242.493,2.16682 273.5,2.5 Z"/></g>
<g><path style="opacity:0.998" fill="#595959" d="M 318.5,8.5 C 321.482,13.7935 324.482,19.1269 327.5,24.5C 325.374,24.1501 323.041,24.1501 320.5,24.5C 320.167,28.5 319.833,28.5 319.5,24.5C 318.167,24.5 316.833,24.5 315.5,24.5C 315.227,22.549 315.893,21.049 317.5,20C 316.333,18.8333 315.167,17.6667 314,16.5C 314.451,22.7311 311.951,27.2311 306.5,30C 306.531,31.7209 307.198,33.5542 308.5,35.5C 309.965,34.3913 310.965,34.8913 311.5,37C 308.681,37.9831 306.014,38.4831 303.5,38.5C 302.5,37.1667 301.5,35.8333 300.5,34.5C 299.614,35.325 299.281,36.325 299.5,37.5C 298.167,35.5 296.833,33.5 295.5,31.5C 295.065,28.8427 294.065,26.5093 292.5,24.5C 291.814,19.7351 289.814,15.7351 286.5,12.5C 286.5,12.1667 286.5,11.8333 286.5,11.5C 289.505,10.6247 289.838,9.62473 287.5,8.5C 288.429,7.68509 289.429,6.85175 290.5,6C 290.043,5.58605 289.709,5.08605 289.5,4.5C 290.833,4.16667 292.167,3.83333 293.5,3.5C 302.314,4.66879 310.648,6.33545 318.5,8.5 Z"/></g>
<g><path style="opacity:1" fill="#606060" d="M 161.5,6.5 C 147.167,6.5 132.833,6.5 118.5,6.5C 128.623,4.68983 139.123,3.68983 150,3.5C 152.852,3.68347 155.685,4.01681 158.5,4.5C 160.03,4.63985 161.03,5.30652 161.5,6.5 Z"/></g>
<g><path style="opacity:1" fill="#454545" d="M 65.5,7.5 C 81.3246,6.50364 97.3246,6.1703 113.5,6.5C 115.167,6.5 116.833,6.5 118.5,6.5C 132.833,6.5 147.167,6.5 161.5,6.5C 166.833,6.5 172.167,6.5 177.5,6.5C 178.167,6.5 178.833,6.5 179.5,6.5C 189.681,6.17265 199.681,6.50598 209.5,7.5C 179.995,7.16861 150.662,7.50194 121.5,8.5C 121.167,8.5 120.833,8.5 120.5,8.5C 102.341,7.50316 84.0076,7.16982 65.5,7.5 Z"/></g>
<g><path style="opacity:1" fill="#363636" d="M 65.5,7.5 C 84.0076,7.16982 102.341,7.50316 120.5,8.5C 118.521,10.1675 116.188,10.8342 113.5,10.5C 112.251,10.0092 110.584,9.34256 108.5,8.5C 107.006,8.70919 105.839,9.37586 105,10.5C 88.0963,10.0258 70.9296,10.0258 53.5,10.5C 51.7697,9.08821 50.2697,9.42155 49,11.5C 48.5172,10.552 48.3505,9.55198 48.5,8.5C 54.0748,7.5476 59.7414,7.21427 65.5,7.5 Z"/></g>
<g><path style="opacity:1" fill="#3b3b3b" d="M 287.5,8.5 C 289.838,9.62473 289.505,10.6247 286.5,11.5C 276.965,11.3375 267.632,11.3375 258.5,11.5C 258.167,11.5 257.833,11.5 257.5,11.5C 257.209,10.3509 256.376,9.68423 255,9.5C 253.624,9.68423 252.791,10.3509 252.5,11.5C 251.833,11.5 251.167,11.5 250.5,11.5C 250.209,10.3509 249.376,9.68423 248,9.5C 246,10.8333 244,10.8333 242,9.5C 240.624,9.68423 239.791,10.3509 239.5,11.5C 239.167,11.5 238.833,11.5 238.5,11.5C 236.952,10.2057 234.952,9.53907 232.5,9.5C 229.657,9.97403 226.991,9.97403 224.5,9.5C 223.702,9.95689 223.369,10.6236 223.5,11.5C 223.167,11.5 222.833,11.5 222.5,11.5C 221.666,10.2521 220.333,9.58544 218.5,9.5C 186.706,9.47858 155.373,9.81191 124.5,10.5C 123.261,10.0576 122.261,9.39092 121.5,8.5C 150.662,7.50194 179.995,7.16861 209.5,7.5C 215.5,7.5 221.5,7.5 227.5,7.5C 227.202,4.66438 227.869,4.16438 229.5,6C 248.838,6.80326 268.171,7.63659 287.5,8.5 Z"/></g>
<g><path style="opacity:0.016" fill="#eeeeee" d="M 299.5,1.5 C 307.78,0.689339 314.947,3.02267 321,8.5C 325.333,16.5 329.667,24.5 334,32.5C 335.946,35.4202 338.113,38.0869 340.5,40.5C 340.5,41.8333 340.5,43.1667 340.5,44.5C 338.37,46.1271 336.37,47.9604 334.5,50C 329.987,51.0516 326.153,53.2183 323,56.5C 313.144,71.361 302.144,85.361 290,98.5C 287.959,102.084 285.792,105.584 283.5,109C 285.965,112.276 285.965,115.442 283.5,118.5C 282.167,118.5 280.833,118.5 279.5,118.5C 278.5,117.167 277.5,115.833 276.5,114.5C 277.5,114.5 278.5,114.5 279.5,114.5C 280.183,116.176 281.517,116.843 283.5,116.5C 283.127,113.426 282.461,110.426 281.5,107.5C 281.833,106.5 282.5,105.833 283.5,105.5C 293.066,91.5973 303.399,78.2639 314.5,65.5C 317.603,60.9476 320.936,56.6143 324.5,52.5C 326.368,51.7368 328.035,50.7368 329.5,49.5C 332.226,49.1449 334.226,47.8115 335.5,45.5C 337.926,44.6475 338.76,42.9808 338,40.5C 333.82,35.511 330.32,30.1777 327.5,24.5C 324.482,19.1269 321.482,13.7935 318.5,8.5C 315.402,5.49274 311.736,3.82607 307.5,3.5C 304.833,2.83333 302.167,2.16667 299.5,1.5 Z"/></g>
<g><path style="opacity:1" fill="#7d7d7d" d="M 113.5,10.5 C 113.5,10.8333 113.5,11.1667 113.5,11.5C 92.5,11.5 71.5,11.5 50.5,11.5C 51.209,10.596 52.209,10.2627 53.5,10.5C 70.9296,10.0258 88.0963,10.0258 105,10.5C 105.839,9.37586 107.006,8.70919 108.5,8.5C 110.584,9.34256 112.251,10.0092 113.5,10.5 Z"/></g>
<g><path style="opacity:1" fill="#6d6d6d" d="M 120.5,8.5 C 120.833,8.5 121.167,8.5 121.5,8.5C 122.261,9.39092 123.261,10.0576 124.5,10.5C 155.373,9.81191 186.706,9.47858 218.5,9.5C 220.333,9.58544 221.666,10.2521 222.5,11.5C 186.167,11.5 149.833,11.5 113.5,11.5C 113.5,11.1667 113.5,10.8333 113.5,10.5C 116.188,10.8342 118.521,10.1675 120.5,8.5 Z"/></g>
<g><path style="opacity:1" fill="#7f7f7f" d="M 238.5,11.5 C 233.5,11.5 228.5,11.5 223.5,11.5C 223.369,10.6236 223.702,9.95689 224.5,9.5C 226.991,9.97403 229.657,9.97403 232.5,9.5C 234.952,9.53907 236.952,10.2057 238.5,11.5 Z"/></g>
<g><path style="opacity:1" fill="#8d8d8d" d="M 250.5,11.5 C 246.833,11.5 243.167,11.5 239.5,11.5C 239.791,10.3509 240.624,9.68423 242,9.5C 244,10.8333 246,10.8333 248,9.5C 249.376,9.68423 250.209,10.3509 250.5,11.5 Z"/></g>
<g><path style="opacity:1" fill="#777777" d="M 257.5,11.5 C 255.833,11.5 254.167,11.5 252.5,11.5C 252.791,10.3509 253.624,9.68423 255,9.5C 256.376,9.68423 257.209,10.3509 257.5,11.5 Z"/></g>
<g><path style="opacity:1" fill="#a7a7a7" d="M 258.5,11.5 C 267.632,11.3375 276.965,11.3375 286.5,11.5C 286.5,11.8333 286.5,12.1667 286.5,12.5C 277.083,12.8055 267.75,12.4721 258.5,11.5 Z"/></g>
<g><path style="opacity:1" fill="#e5e5e5" d="M 50.5,11.5 C 71.5,11.5 92.5,11.5 113.5,11.5C 149.833,11.5 186.167,11.5 222.5,11.5C 222.833,11.5 223.167,11.5 223.5,11.5C 228.5,11.5 233.5,11.5 238.5,11.5C 238.833,11.5 239.167,11.5 239.5,11.5C 243.167,11.5 246.833,11.5 250.5,11.5C 251.167,11.5 251.833,11.5 252.5,11.5C 254.167,11.5 255.833,11.5 257.5,11.5C 257.833,11.5 258.167,11.5 258.5,11.5C 267.75,12.4721 277.083,12.8055 286.5,12.5C 286.5,14.1667 286.5,15.8333 286.5,17.5C 275.167,17.5 263.833,17.5 252.5,17.5C 184.331,17.8325 116.331,17.4992 48.5,16.5C 48.8925,14.7162 49.5592,13.0495 50.5,11.5 Z"/></g>
<g><path style="opacity:1" fill="#cacaca" d="M 48.5,16.5 C 116.331,17.4992 184.331,17.8325 252.5,17.5C 252.5,17.8333 252.5,18.1667 252.5,18.5C 235.5,18.5 218.5,18.5 201.5,18.5C 202.053,23.482 202.387,28.482 202.5,33.5C 202.565,33.9382 202.399,34.2716 202,34.5C 201.722,33.5842 201.222,32.9175 200.5,32.5C 200.736,29.3915 200.403,26.3915 199.5,23.5C 199.773,21.549 199.107,20.049 197.5,19C 187.5,18.8333 177.5,18.6667 167.5,18.5C 157.144,18.5014 147.144,19.1681 137.5,20.5C 136.627,24.7685 136.294,29.1018 136.5,33.5C 135.5,34.8333 134.5,34.8333 133.5,33.5C 134.572,28.5951 135.238,23.5951 135.5,18.5C 126.167,18.5 116.833,18.5 107.5,18.5C 107.5,19.5 107.5,20.5 107.5,21.5C 106.542,21.9528 105.708,22.6195 105,23.5C 104.601,23.2716 104.435,22.9382 104.5,22.5C 104.539,21.4168 104.873,20.4168 105.5,19.5C 86.1782,18.5004 66.8448,18.1671 47.5,18.5C 47.3284,17.5084 47.6618,16.8417 48.5,16.5 Z"/></g>
<g><path style="opacity:1" fill="#d8d8d8" d="M 286.5,12.5 C 289.814,15.7351 291.814,19.7351 292.5,24.5C 291.504,24.4142 290.671,24.7476 290,25.5C 289.506,23.8659 289.34,22.1992 289.5,20.5C 277.123,20.1216 264.79,19.4549 252.5,18.5C 252.5,18.1667 252.5,17.8333 252.5,17.5C 263.833,17.5 275.167,17.5 286.5,17.5C 286.5,15.8333 286.5,14.1667 286.5,12.5 Z"/></g>
<g><path style="opacity:1" fill="#ebebeb" d="M 47.5,18.5 C 66.8448,18.1671 86.1782,18.5004 105.5,19.5C 104.873,20.4168 104.539,21.4168 104.5,22.5C 101.279,24.5588 98.9455,27.3921 97.5,31C 98.6341,32.016 98.3008,32.6827 96.5,33C 79.5033,33.4999 62.5033,33.6666 45.5,33.5C 45.1692,31.6776 44.5025,30.0109 43.5,28.5C 44.5348,25.0063 45.8681,21.673 47.5,18.5 Z"/></g>
<g><path style="opacity:1" fill="#eaeaea" d="M 199.5,23.5 C 197.201,22.8621 195.034,21.8621 193,20.5C 190.401,20.6329 187.734,20.6329 185,20.5C 183.758,22.5407 181.925,23.7073 179.5,24C 183.091,24.7886 186.591,24.6219 190,23.5C 192.096,24.7155 191.929,25.5488 189.5,26C 182.842,26.4996 176.175,26.6663 169.5,26.5C 169.799,24.396 169.466,22.396 168.5,20.5C 167.548,22.0453 167.215,23.712 167.5,25.5C 160.646,25.176 153.979,25.5093 147.5,26.5C 145.493,27.6785 145.16,27.1785 146.5,25C 145.24,23.887 144.073,23.7203 143,24.5C 141.549,22.5359 139.716,21.2026 137.5,20.5C 147.144,19.1681 157.144,18.5014 167.5,18.5C 177.5,18.6667 187.5,18.8333 197.5,19C 199.107,20.049 199.773,21.549 199.5,23.5 Z"/></g>
<g><path style="opacity:1" fill="#eaeaea" d="M 252.5,18.5 C 264.79,19.4549 277.123,20.1216 289.5,20.5C 289.34,22.1992 289.506,23.8659 290,25.5C 290.671,24.7476 291.504,24.4142 292.5,24.5C 294.065,26.5093 295.065,28.8427 295.5,31.5C 295.5,32.5 295.5,33.5 295.5,34.5C 271.164,34.3412 246.83,34.0079 222.5,33.5C 215.833,33.5 209.167,33.5 202.5,33.5C 202.387,28.482 202.053,23.482 201.5,18.5C 218.5,18.5 235.5,18.5 252.5,18.5 Z"/></g>
<g><path style="opacity:1" fill="#ededed" d="M 133.5,33.5 C 123.494,33.6665 113.494,33.4998 103.5,33C 104.046,28.8638 105.379,25.0304 107.5,21.5C 107.5,20.5 107.5,19.5 107.5,18.5C 116.833,18.5 126.167,18.5 135.5,18.5C 135.238,23.5951 134.572,28.5951 133.5,33.5 Z"/></g>
<g><path style="opacity:1" fill="#f2f2f2" d="M 137.5,20.5 C 139.716,21.2026 141.549,22.5359 143,24.5C 144.073,23.7203 145.24,23.887 146.5,25C 145.16,27.1785 145.493,27.6785 147.5,26.5C 153.833,26.5 160.167,26.5 166.5,26.5C 166.216,28.4147 166.549,30.0813 167.5,31.5C 169.256,30.4479 169.923,28.7812 169.5,26.5C 176.175,26.6663 182.842,26.4996 189.5,26C 191.929,25.5488 192.096,24.7155 190,23.5C 186.591,24.6219 183.091,24.7886 179.5,24C 181.925,23.7073 183.758,22.5407 185,20.5C 187.734,20.6329 190.401,20.6329 193,20.5C 195.034,21.8621 197.201,22.8621 199.5,23.5C 200.403,26.3915 200.736,29.3915 200.5,32.5C 179.34,33.4973 158.007,33.8306 136.5,33.5C 136.294,29.1018 136.627,24.7685 137.5,20.5 Z"/></g>
<g><path style="opacity:1" fill="#878787" d="M 169.5,26.5 C 169.923,28.7812 169.256,30.4479 167.5,31.5C 167.5,29.5 167.5,27.5 167.5,25.5C 167.215,23.712 167.548,22.0453 168.5,20.5C 169.466,22.396 169.799,24.396 169.5,26.5 Z"/></g>
<g><path style="opacity:1" fill="#c8c8c8" d="M 147.5,26.5 C 153.979,25.5093 160.646,25.176 167.5,25.5C 167.5,27.5 167.5,29.5 167.5,31.5C 166.549,30.0813 166.216,28.4147 166.5,26.5C 160.167,26.5 153.833,26.5 147.5,26.5 Z"/></g>
<g><path style="opacity:1" fill="#e0e0e0" d="M 107.5,21.5 C 105.379,25.0304 104.046,28.8638 103.5,33C 113.494,33.4998 123.494,33.6665 133.5,33.5C 134.5,34.8333 135.5,34.8333 136.5,33.5C 158.007,33.8306 179.34,33.4973 200.5,32.5C 201.222,32.9175 201.722,33.5842 202,34.5C 202.399,34.2716 202.565,33.9382 202.5,33.5C 209.167,33.5 215.833,33.5 222.5,33.5C 221.048,34.3019 219.382,34.8019 217.5,35C 242.5,35.3333 267.5,35.6667 292.5,36C 292.833,36.3333 293.167,36.6667 293.5,37C 284.248,38.4172 274.915,38.9172 265.5,38.5C 252.167,38.5 238.833,38.5 225.5,38.5C 177.373,37.1743 129.373,37.1743 81.5,38.5C 72.1667,38.5 62.8333,38.5 53.5,38.5C 48.6367,38.8195 43.97,38.4861 39.5,37.5C 39.5,36.8333 39.5,36.1667 39.5,35.5C 40.4676,32.8997 41.8009,30.5664 43.5,28.5C 44.5025,30.0109 45.1692,31.6776 45.5,33.5C 62.5033,33.6666 79.5033,33.4999 96.5,33C 98.3008,32.6827 98.6341,32.016 97.5,31C 98.9455,27.3921 101.279,24.5588 104.5,22.5C 104.435,22.9382 104.601,23.2716 105,23.5C 105.708,22.6195 106.542,21.9528 107.5,21.5 Z"/></g>
<g><path style="opacity:1" fill="#d1d1d1" d="M 295.5,31.5 C 296.833,33.5 298.167,35.5 299.5,37.5C 288.549,39.4777 277.216,40.1444 265.5,39.5C 265.5,39.1667 265.5,38.8333 265.5,38.5C 274.915,38.9172 284.248,38.4172 293.5,37C 293.167,36.6667 292.833,36.3333 292.5,36C 267.5,35.6667 242.5,35.3333 217.5,35C 219.382,34.8019 221.048,34.3019 222.5,33.5C 246.83,34.0079 271.164,34.3412 295.5,34.5C 295.5,33.5 295.5,32.5 295.5,31.5 Z"/></g>
<g><path style="opacity:1" fill="#adadad" d="M 39.5,37.5 C 43.97,38.4861 48.6367,38.8195 53.5,38.5C 48.6523,39.8137 43.6523,39.8137 38.5,38.5C 38.6236,37.8933 38.9569,37.56 39.5,37.5 Z"/></g>
<g><path style="opacity:1" fill="#545454" d="M 39.5,35.5 C 39.5,36.1667 39.5,36.8333 39.5,37.5C 38.9569,37.56 38.6236,37.8933 38.5,38.5C 43.6523,39.8137 48.6523,39.8137 53.5,38.5C 62.8333,38.5 72.1667,38.5 81.5,38.5C 92.8382,38.3335 104.172,38.5001 115.5,39C 116.167,39.3333 116.833,39.6667 117.5,40C 115.783,41.9357 114.449,44.1024 113.5,46.5C 112.167,46.5 110.833,46.5 109.5,46.5C 84.8333,46.5 60.1667,46.5 35.5,46.5C 34.7375,45.7321 33.7375,45.2321 32.5,45C 33.8333,44.6667 35.1667,44.3333 36.5,44C 34.3657,41.902 32.0324,41.0687 29.5,41.5C 31.7662,40.6858 34.0995,40.1858 36.5,40C 37.0527,38.1222 38.0527,36.6222 39.5,35.5 Z"/></g>
<g><path style="opacity:1" fill="#6d6d6d" d="M 225.5,38.5 C 238.833,38.5 252.167,38.5 265.5,38.5C 265.5,38.8333 265.5,39.1667 265.5,39.5C 255.532,40.3961 245.532,40.7295 235.5,40.5C 235.66,42.1992 235.494,43.8659 235,45.5C 233.893,44.2881 233.393,44.6214 233.5,46.5C 230.833,46.5 228.167,46.5 225.5,46.5C 225.5,43.8333 225.5,41.1667 225.5,38.5 Z"/></g>
<g><path style="opacity:1" fill="#616161" d="M 81.5,38.5 C 129.373,37.1743 177.373,37.1743 225.5,38.5C 225.5,41.1667 225.5,43.8333 225.5,46.5C 188.167,45.1956 150.834,45.1956 113.5,46.5C 114.449,44.1024 115.783,41.9357 117.5,40C 116.833,39.6667 116.167,39.3333 115.5,39C 104.172,38.5001 92.8382,38.3335 81.5,38.5 Z"/></g>
<g><path style="opacity:1" fill="#565656" d="M 327.5,24.5 C 330.32,30.1777 333.82,35.511 338,40.5C 338.76,42.9808 337.926,44.6475 335.5,45.5C 335.565,45.0618 335.399,44.7284 335,44.5C 330.017,46.1278 324.85,46.9611 319.5,47C 297.329,47.6306 275.162,47.464 253,46.5C 247.42,46.4726 242.086,45.8059 237,44.5C 236.29,45.9733 235.124,46.6399 233.5,46.5C 233.393,44.6214 233.893,44.2881 235,45.5C 235.494,43.8659 235.66,42.1992 235.5,40.5C 245.532,40.7295 255.532,40.3961 265.5,39.5C 277.216,40.1444 288.549,39.4777 299.5,37.5C 299.281,36.325 299.614,35.325 300.5,34.5C 301.5,35.8333 302.5,37.1667 303.5,38.5C 306.014,38.4831 308.681,37.9831 311.5,37C 310.965,34.8913 309.965,34.3913 308.5,35.5C 307.198,33.5542 306.531,31.7209 306.5,30C 311.951,27.2311 314.451,22.7311 314,16.5C 315.167,17.6667 316.333,18.8333 317.5,20C 315.893,21.049 315.227,22.549 315.5,24.5C 316.833,24.5 318.167,24.5 319.5,24.5C 319.833,28.5 320.167,28.5 320.5,24.5C 323.041,24.1501 325.374,24.1501 327.5,24.5 Z"/></g>
<g><path style="opacity:1" fill="#3c3c3c" d="M 35.5,46.5 C 60.1667,46.5 84.8333,46.5 109.5,46.5C 76.3375,47.4983 43.0042,47.8316 9.5,47.5C 8.16667,47.5 6.83333,47.5 5.5,47.5C 4.30646,46.7281 3.30646,45.7281 2.5,44.5C 2.36899,43.7611 2.53566,43.0944 3,42.5C 5.08898,44.5033 7.58898,45.67 10.5,46C 18.8267,46.4997 27.16,46.6664 35.5,46.5 Z"/></g>
<g><path style="opacity:1" fill="#383838" d="M 335.5,45.5 C 334.226,47.8115 332.226,49.1449 329.5,49.5C 316.518,50.3273 303.518,50.6607 290.5,50.5C 277.677,49.5045 264.677,49.1712 251.5,49.5C 237.833,49.5 224.167,49.5 210.5,49.5C 151.5,48.1773 92.4997,48.1773 33.5,49.5C 29.5,49.5 25.5,49.5 21.5,49.5C 19.1667,49.5 16.8333,49.5 14.5,49.5C 12.8333,48.8333 11.1667,48.1667 9.5,47.5C 43.0042,47.8316 76.3375,47.4983 109.5,46.5C 110.833,46.5 112.167,46.5 113.5,46.5C 150.834,45.1956 188.167,45.1956 225.5,46.5C 228.167,46.5 230.833,46.5 233.5,46.5C 235.124,46.6399 236.29,45.9733 237,44.5C 242.086,45.8059 247.42,46.4726 253,46.5C 275.162,47.464 297.329,47.6306 319.5,47C 324.85,46.9611 330.017,46.1278 335,44.5C 335.399,44.7284 335.565,45.0618 335.5,45.5 Z"/></g>
<g><path style="opacity:0.992" fill="#777777" d="M 5.5,47.5 C 6.83333,47.5 8.16667,47.5 9.5,47.5C 11.1667,48.1667 12.8333,48.8333 14.5,49.5C 11.1226,49.9321 8.12262,49.2655 5.5,47.5 Z"/></g>
<g><path style="opacity:0.987" fill="#8a8a8a" d="M 21.5,49.5 C 25.5,49.5 29.5,49.5 33.5,49.5C 33.5,49.8333 33.5,50.1667 33.5,50.5C 29.9878,49.9455 26.9878,50.6122 24.5,52.5C 23.5,51.5 22.5,50.5 21.5,49.5 Z"/></g>
<g><path style="opacity:1" fill="#909090" d="M 133.5,50.5 C 136.061,52.0935 139.061,53.0935 142.5,53.5C 139.572,54.4841 136.572,54.8174 133.5,54.5C 129.366,53.5151 125.032,53.1818 120.5,53.5C 120.5,52.5 120.5,51.5 120.5,50.5C 124.833,50.5 129.167,50.5 133.5,50.5 Z"/></g>
<g><path style="opacity:0.521" fill="#b5b5b5" d="M 329.5,49.5 C 328.035,50.7368 326.368,51.7368 324.5,52.5C 323.652,51.375 322.652,51.375 321.5,52.5C 319.307,51.2031 316.973,51.2031 314.5,52.5C 313.867,54.7855 312.534,56.4522 310.5,57.5C 311.242,55.5742 312.242,53.7409 313.5,52C 303.833,51.3333 294.167,51.3333 284.5,52C 279.309,55.7049 274.309,59.5383 269.5,63.5C 269.672,62.5084 269.338,61.8417 268.5,61.5C 271.296,58.2026 274.296,55.0359 277.5,52C 274.854,51.5026 272.187,51.3359 269.5,51.5C 267.833,51.5 266.167,51.5 264.5,51.5C 261.941,51.1984 259.607,51.5318 257.5,52.5C 256.957,52.44 256.624,52.1067 256.5,51.5C 267.814,50.5012 279.147,50.1678 290.5,50.5C 303.518,50.6607 316.518,50.3273 329.5,49.5 Z"/></g>
<g><path style="opacity:0.996" fill="#afafaf" d="M 210.5,49.5 C 210.5,49.8333 210.5,50.1667 210.5,50.5C 209.833,51.1667 209.167,51.8333 208.5,52.5C 200.684,51.5076 192.684,51.1743 184.5,51.5C 182.393,50.5318 180.059,50.1984 177.5,50.5C 174.612,49.9898 172.279,50.6565 170.5,52.5C 169.167,52.5 167.833,52.5 166.5,52.5C 155.884,50.523 144.884,49.8564 133.5,50.5C 129.167,50.5 124.833,50.5 120.5,50.5C 120.5,51.5 120.5,52.5 120.5,53.5C 125.032,53.1818 129.366,53.5151 133.5,54.5C 128.5,54.5 123.5,54.5 118.5,54.5C 118.5,53.8333 118.5,53.1667 118.5,52.5C 117.486,51.2353 115.986,50.5687 114,50.5C 112.293,50.5085 110.793,50.8418 109.5,51.5C 108.167,51.5 106.833,51.5 105.5,51.5C 98.5988,50.1901 91.5988,50.1901 84.5,51.5C 83.1667,51.5 81.8333,51.5 80.5,51.5C 74.013,50.346 67.3464,50.1794 60.5,51C 63.7322,54.0623 66.7322,57.229 69.5,60.5C 68.5084,60.3284 67.8417,60.6618 67.5,61.5C 62.4524,58.6341 57.7857,55.1341 53.5,51C 46.8417,50.5004 40.175,50.3337 33.5,50.5C 33.5,50.1667 33.5,49.8333 33.5,49.5C 92.4997,48.1773 151.5,48.1773 210.5,49.5 Z"/></g>
<g><path style="opacity:1" fill="#f0f0f0" d="M 118.5,52.5 C 115.287,52.81 112.287,52.4767 109.5,51.5C 110.793,50.8418 112.293,50.5085 114,50.5C 115.986,50.5687 117.486,51.2353 118.5,52.5 Z"/></g>
<g><path style="opacity:1" fill="#8a8a8a" d="M 177.5,50.5 C 180.059,50.1984 182.393,50.5318 184.5,51.5C 183.551,52.1524 182.385,52.4857 181,52.5C 179.319,52.3917 178.152,51.7251 177.5,50.5 Z"/></g>
<g><path style="opacity:0.999" fill="#9e9e9e" d="M 210.5,50.5 C 212.833,50.5 215.167,50.5 217.5,50.5C 217.5,51.5 217.5,52.5 217.5,53.5C 206.674,54.6244 196.008,54.6244 185.5,53.5C 192.982,52.508 200.648,52.1746 208.5,52.5C 209.167,51.8333 209.833,51.1667 210.5,50.5 Z"/></g>
<g><path style="opacity:0.886" fill="#a2a2a2" d="M 251.5,49.5 C 264.677,49.1712 277.677,49.5045 290.5,50.5C 279.147,50.1678 267.814,50.5012 256.5,51.5C 256.624,52.1067 256.957,52.44 257.5,52.5C 260.058,56.325 263.058,59.6583 266.5,62.5C 266.5,62.8333 266.5,63.1667 266.5,63.5C 264.622,64.9345 263.955,66.6011 264.5,68.5C 260.55,62.5487 256.217,56.8821 251.5,51.5C 251.5,50.8333 251.5,50.1667 251.5,49.5 Z"/></g>
<g><path style="opacity:0.744" fill="#d5d5d5" d="M 133.5,50.5 C 144.884,49.8564 155.884,50.523 166.5,52.5C 163.428,52.1826 160.428,52.5159 157.5,53.5C 159.167,53.8333 160.833,54.1667 162.5,54.5C 167.427,54.0641 172.427,53.8975 177.5,54C 175.406,52.6485 173.073,52.1485 170.5,52.5C 172.279,50.6565 174.612,49.9898 177.5,50.5C 178.152,51.7251 179.319,52.3917 181,52.5C 182.385,52.4857 183.551,52.1524 184.5,51.5C 192.684,51.1743 200.684,51.5076 208.5,52.5C 200.648,52.1746 192.982,52.508 185.5,53.5C 183.219,53.0773 181.552,53.744 180.5,55.5C 166.496,55.3334 152.496,55.5001 138.5,56C 135.493,57.4471 132.493,58.4471 129.5,59C 130.833,58 132.167,57 133.5,56C 124.506,55.5002 115.506,55.3336 106.5,55.5C 107.172,54.7326 108.005,54.0659 109,53.5C 112.057,54.4505 115.223,54.7839 118.5,54.5C 123.5,54.5 128.5,54.5 133.5,54.5C 136.572,54.8174 139.572,54.4841 142.5,53.5C 139.061,53.0935 136.061,52.0935 133.5,50.5 Z"/></g>
<g><path style="opacity:0.951" fill="#9e9e9e" d="M 166.5,52.5 C 167.833,52.5 169.167,52.5 170.5,52.5C 173.073,52.1485 175.406,52.6485 177.5,54C 172.427,53.8975 167.427,54.0641 162.5,54.5C 160.833,54.1667 159.167,53.8333 157.5,53.5C 160.428,52.5159 163.428,52.1826 166.5,52.5 Z"/></g>
<g><path style="opacity:0.988" fill="#c0c0c0" d="M 185.5,53.5 C 196.008,54.6244 206.674,54.6244 217.5,53.5C 221.833,54.1667 226.167,54.8333 230.5,55.5C 221.038,55.4016 211.371,55.5682 201.5,56C 202.696,56.6543 202.696,57.1543 201.5,57.5C 200.205,56.9017 198.872,56.4017 197.5,56C 191.843,55.5006 186.176,55.3339 180.5,55.5C 181.552,53.744 183.219,53.0773 185.5,53.5 Z"/></g>
<g><path style="opacity:0.063" fill="#f3f3f3" d="M 264.5,51.5 C 263.048,52.3019 261.382,52.8019 259.5,53C 262.021,55.2198 264.188,57.7198 266,60.5C 269.13,58.372 271.963,55.872 274.5,53C 272.618,52.8019 270.952,52.3019 269.5,51.5C 272.187,51.3359 274.854,51.5026 277.5,52C 274.296,55.0359 271.296,58.2026 268.5,61.5C 267.833,61.8333 267.167,62.1667 266.5,62.5C 263.058,59.6583 260.058,56.325 257.5,52.5C 259.607,51.5318 261.941,51.1984 264.5,51.5 Z M 264.5,51.5 C 266.167,51.5 267.833,51.5 269.5,51.5C 270.952,52.3019 272.618,52.8019 274.5,53C 271.963,55.872 269.13,58.372 266,60.5C 264.188,57.7198 262.021,55.2198 259.5,53C 261.382,52.8019 263.048,52.3019 264.5,51.5 Z"/></g>
<g><path style="opacity:0.035" fill="#f3f3f3" d="M 106.5,55.5 C 115.506,55.3336 124.506,55.5002 133.5,56C 132.167,57 130.833,58 129.5,59C 132.493,58.4471 135.493,57.4471 138.5,56C 152.496,55.5001 166.496,55.3334 180.5,55.5C 186.176,55.3339 191.843,55.5006 197.5,56C 198.872,56.4017 200.205,56.9017 201.5,57.5C 202.696,57.1543 202.696,56.6543 201.5,56C 211.371,55.5682 221.038,55.4016 230.5,55.5C 230.833,56.1667 231.167,56.8333 231.5,57.5C 224.492,57.3337 217.492,57.5004 210.5,58C 216.095,60.0093 221.095,62.8427 225.5,66.5C 218.87,63.5679 212.204,60.5679 205.5,57.5C 203.627,57.4823 203.294,57.9823 204.5,59C 210.053,61.6076 215.387,64.4409 220.5,67.5C 212.801,63.8717 204.801,60.705 196.5,58C 177.833,57.3333 159.167,57.3333 140.5,58C 136.549,58.5362 133.049,60.0362 130,62.5C 127.832,61.3709 127.332,59.8709 128.5,58C 120.5,57.3333 112.5,57.3333 104.5,58C 102.667,60.9985 100.334,63.4985 97.5,65.5C 99.1177,60.8842 102.118,57.5509 106.5,55.5 Z"/></g>
<g><path style="opacity:0.863" fill="#929292" d="M 246.5,69.5 C 245.5,69.5 244.5,69.5 243.5,69.5C 240.856,66.3451 238.356,63.0118 236,59.5C 234.549,57.5359 232.716,56.2026 230.5,55.5C 226.167,54.8333 221.833,54.1667 217.5,53.5C 222.399,53.7113 227.066,53.2113 231.5,52C 236.71,57.7056 241.71,63.539 246.5,69.5 Z"/></g>
<g><path style="opacity:0.945" fill="#848484" d="M 324.5,52.5 C 320.936,56.6143 317.603,60.9476 314.5,65.5C 313.508,65.6716 312.842,65.3382 312.5,64.5C 315.975,60.8962 318.975,56.8962 321.5,52.5C 322.652,51.375 323.652,51.375 324.5,52.5 Z"/></g>
<g><path style="opacity:0.118" fill="#eeeeee" d="M 80.5,51.5 C 79.1182,53.5486 77.4516,55.2153 75.5,56.5C 74.8333,59.1667 73.1667,60.8333 70.5,61.5C 70.5,60.8333 70.1667,60.5 69.5,60.5C 66.7322,57.229 63.7322,54.0623 60.5,51C 67.3464,50.1794 74.013,50.346 80.5,51.5 Z M 75.5,56.5 C 74.1851,57.4756 72.8518,58.4756 71.5,59.5C 68.6826,57.1833 66.0159,54.6833 63.5,52C 68.5,51.3333 73.5,51.3333 78.5,52C 76.8588,53.129 75.8588,54.629 75.5,56.5 Z"/></g>
<g><path style="opacity:0.441" fill="#d6d6d6" d="M 225.5,66.5 C 225.938,66.4346 226.272,66.6012 226.5,67C 224.519,69.967 222.519,70.1336 220.5,67.5C 215.387,64.4409 210.053,61.6076 204.5,59C 203.294,57.9823 203.627,57.4823 205.5,57.5C 212.204,60.5679 218.87,63.5679 225.5,66.5 Z"/></g>
<g><path style="opacity:0.116" fill="#eaeaea" d="M 105.5,51.5 C 99.517,59.1164 92.8503,66.1164 85.5,72.5C 85.1667,72.5 84.8333,72.5 84.5,72.5C 90.4775,65.4136 96.8108,58.5803 103.5,52C 97.8333,51.3333 92.1667,51.3333 86.5,52C 83.6352,55.6919 80.6352,59.1919 77.5,62.5C 79.412,58.5833 81.7454,54.9166 84.5,51.5C 91.5988,50.1901 98.5988,50.1901 105.5,51.5 Z"/></g>
<g><path style="opacity:0.016" fill="#e7e7e7" d="M 33.5,50.5 C 40.175,50.3337 46.8417,50.5004 53.5,51C 57.7857,55.1341 62.4524,58.6341 67.5,61.5C 68.1667,62.1667 68.8333,62.8333 69.5,63.5C 69.8039,64.1499 70.1373,64.8165 70.5,65.5C 68.1459,67.2461 67.1459,69.5794 67.5,72.5C 64.0984,79.398 61.5984,86.7313 60,94.5C 58.9426,97.2719 57.4426,99.6053 55.5,101.5C 54.1667,99.5 52.8333,97.5 51.5,95.5C 52.1667,95.5 52.8333,95.5 53.5,95.5C 54.1217,96.6266 54.955,97.6266 56,98.5C 59.3952,86.9737 63.5618,75.807 68.5,65C 62.8767,61.0454 57.5434,56.7121 52.5,52C 44.1252,51.2615 35.7918,51.5949 27.5,53C 28.056,53.3826 28.3893,53.8826 28.5,54.5C 28.5,55.8333 28.5,57.1667 28.5,58.5C 28.5569,59.609 28.8902,60.609 29.5,61.5C 26.4944,61.0379 25.4944,59.5379 26.5,57C 25.5862,55.5936 24.9195,54.0936 24.5,52.5C 26.9878,50.6122 29.9878,49.9455 33.5,50.5 Z"/></g>
<g><path style="opacity:0.885" fill="#a2a2a2" d="M 84.5,51.5 C 81.7454,54.9166 79.412,58.5833 77.5,62.5C 74.8361,64.4844 73.1695,67.1511 72.5,70.5C 71.6618,70.8417 71.3284,71.5084 71.5,72.5C 70.8333,74.1667 70.1667,75.8333 69.5,77.5C 69.5654,77.0618 69.3988,76.7284 69,76.5C 68.6667,77.1667 68.3333,77.8333 68,78.5C 67.9605,76.2755 67.7938,74.2755 67.5,72.5C 67.1459,69.5794 68.1459,67.2461 70.5,65.5C 70.1373,64.8165 69.8039,64.1499 69.5,63.5C 71.6977,63.5912 72.0311,62.9245 70.5,61.5C 73.1667,60.8333 74.8333,59.1667 75.5,56.5C 77.4516,55.2153 79.1182,53.5486 80.5,51.5C 81.8333,51.5 83.1667,51.5 84.5,51.5 Z"/></g>
<g><path style="opacity:0.998" fill="#3b3b3b" d="M 69.5,60.5 C 70.1667,60.5 70.5,60.8333 70.5,61.5C 72.0311,62.9245 71.6977,63.5912 69.5,63.5C 68.8333,62.8333 68.1667,62.1667 67.5,61.5C 67.8417,60.6618 68.5084,60.3284 69.5,60.5 Z"/></g>
<g><path style="opacity:0.973" fill="#3d3d3d" d="M 268.5,61.5 C 269.338,61.8417 269.672,62.5084 269.5,63.5C 268.833,63.5 268.5,63.8333 268.5,64.5C 267.075,66.0311 266.409,65.6977 266.5,63.5C 266.5,63.1667 266.5,62.8333 266.5,62.5C 267.167,62.1667 267.833,61.8333 268.5,61.5 Z"/></g>
<g><path style="opacity:0.101" fill="#ececec" d="M 251.5,51.5 C 256.217,56.8821 260.55,62.5487 264.5,68.5C 264.5,69.1667 264.5,69.8333 264.5,70.5C 264.672,71.4916 264.338,72.1583 263.5,72.5C 259.505,65.5029 255.505,58.5029 251.5,51.5 Z"/></g>
<g><path style="opacity:0.016" fill="#eeeeee" d="M 77.5,62.5 C 76.1614,65.5029 74.8281,68.5029 73.5,71.5C 72.8333,71.5 72.5,71.1667 72.5,70.5C 73.1695,67.1511 74.8361,64.4844 77.5,62.5 Z"/></g>
<g><path style="opacity:0.992" fill="#949494" d="M 266.5,63.5 C 266.409,65.6977 267.075,66.0311 268.5,64.5C 268.873,67.5739 269.539,70.5739 270.5,73.5C 269.91,75.9905 269.743,78.6571 270,81.5C 269.529,79.7536 268.862,78.087 268,76.5C 267.536,77.0944 267.369,77.7611 267.5,78.5C 266.749,75.754 265.749,73.0873 264.5,70.5C 264.5,69.8333 264.5,69.1667 264.5,68.5C 263.955,66.6011 264.622,64.9345 266.5,63.5 Z"/></g>
<g><path style="opacity:0.999" fill="#f4f4f4" d="M 310.5,57.5 C 312.534,56.4522 313.867,54.7855 314.5,52.5C 316.973,51.2031 319.307,51.2031 321.5,52.5C 318.975,56.8962 315.975,60.8962 312.5,64.5C 308.15,69.187 304.15,74.187 300.5,79.5C 300.077,78.7354 299.743,77.9021 299.5,77C 301.47,73.9013 302.97,70.7346 304,67.5C 299.99,72.8549 296.49,78.5216 293.5,84.5C 289.111,90.2259 285.111,96.2259 281.5,102.5C 281.5,102.833 281.5,103.167 281.5,103.5C 280.503,103.53 279.836,103.03 279.5,102C 276.876,92.3247 273.876,82.8247 270.5,73.5C 269.539,70.5739 268.873,67.5739 268.5,64.5C 268.5,63.8333 268.833,63.5 269.5,63.5C 274.309,59.5383 279.309,55.7049 284.5,52C 294.167,51.3333 303.833,51.3333 313.5,52C 312.242,53.7409 311.242,55.5742 310.5,57.5 Z M 315.5,53.5 C 316.552,53.3505 317.552,53.5172 318.5,54C 317.042,56.46 315.209,58.6266 313,60.5C 313.756,58.2846 314.589,55.9512 315.5,53.5 Z M 291.5,52.5 C 297.898,52.2427 304.231,52.7427 310.5,54C 300.293,68.9111 290.46,84.0778 281,99.5C 277.597,88.4584 274.097,77.4584 270.5,66.5C 273.937,62.2325 277.937,58.3991 282.5,55C 285.579,54.0272 288.579,53.1939 291.5,52.5 Z"/></g>
<g><path style="opacity:0.718" fill="#b1b1b1" d="M 310.5,57.5 C 309.784,60.5976 308.284,63.2643 306,65.5C 306.687,62.468 308.187,59.8013 310.5,57.5 Z"/></g>
<g><path style="opacity:0.125" fill="#dadada" d="M 210.5,50.5 C 210.5,50.1667 210.5,49.8333 210.5,49.5C 224.167,49.5 237.833,49.5 251.5,49.5C 251.5,50.1667 251.5,50.8333 251.5,51.5C 245.738,51.1493 240.072,51.6493 234.5,53C 244.037,62.8681 253.203,73.0348 262,83.5C 262.21,81.9419 262.71,80.6085 263.5,79.5C 265.309,82.839 265.976,86.1723 265.5,89.5C 259.532,82.5308 253.199,75.8641 246.5,69.5C 241.71,63.539 236.71,57.7056 231.5,52C 227.066,53.2113 222.399,53.7113 217.5,53.5C 217.5,52.5 217.5,51.5 217.5,50.5C 215.167,50.5 212.833,50.5 210.5,50.5 Z"/></g>
<g><path style="opacity:0.069" fill="#f2f2f2" d="M 33.5,0.5 C 34.5676,1.43448 35.901,1.76781 37.5,1.5C 33.3596,1.97927 29.3596,2.97927 25.5,4.5C 23.2776,4.17798 21.4443,4.84464 20,6.5C 14.2541,17.6601 8.25406,28.6601 2,39.5C 1.22039,41.3869 1.38705,43.0536 2.5,44.5C 3.30646,45.7281 4.30646,46.7281 5.5,47.5C 8.12262,49.2655 11.1226,49.9321 14.5,49.5C 16.8333,49.5 19.1667,49.5 21.5,49.5C 22.5,50.5 23.5,51.5 24.5,52.5C 24.9195,54.0936 25.5862,55.5936 26.5,57C 25.4944,59.5379 26.4944,61.0379 29.5,61.5C 30.4396,63.6125 31.6063,65.6125 33,67.5C 33.6543,68.6956 34.1543,68.6956 34.5,67.5C 33.2202,63.9173 31.2202,60.9173 28.5,58.5C 28.5,57.1667 28.5,55.8333 28.5,54.5C 37.5964,67.6912 45.9297,81.3578 53.5,95.5C 52.8333,95.5 52.1667,95.5 51.5,95.5C 46.9405,87.3894 42.1072,79.3894 37,71.5C 36.3333,72.5 36.3333,73.5 37,74.5C 40.652,78.7667 43.3187,83.4334 45,88.5C 38.6804,79.6867 31.8471,71.3534 24.5,63.5C 21.5667,58.8948 18.2334,54.5615 14.5,50.5C 16.6373,54.9989 19.6373,59.3322 23.5,63.5C 31.4155,74.3168 39.5821,84.9834 48,95.5C 49.9927,97.8175 51.1594,100.484 51.5,103.5C 38.8635,87.3516 26.3635,71.0183 14,54.5C 10.4052,51.9633 6.57191,49.7966 2.5,48C 1.36362,46.8549 0.363622,45.6883 -0.5,44.5C -0.5,42.8333 -0.5,41.1667 -0.5,39.5C 6.14586,28.8858 12.3125,17.8858 18,6.5C 22.3976,2.64301 27.5643,0.643005 33.5,0.5 Z M 20.5,54.5 C 20.56,53.9569 20.8933,53.6236 21.5,53.5C 23.9588,56.7697 23.6254,57.103 20.5,54.5 Z"/></g>
<g><path style="opacity:0.686" fill="#b7b7b7" d="M 28.5,58.5 C 31.2202,60.9173 33.2202,63.9173 34.5,67.5C 34.1543,68.6956 33.6543,68.6956 33,67.5C 31.6063,65.6125 30.4396,63.6125 29.5,61.5C 28.8902,60.609 28.5569,59.609 28.5,58.5 Z"/></g>
<g><path style="opacity:0.961" fill="#868686" d="M 24.5,63.5 C 24.1667,63.5 23.8333,63.5 23.5,63.5C 19.6373,59.3322 16.6373,54.9989 14.5,50.5C 18.2334,54.5615 21.5667,58.8948 24.5,63.5 Z"/></g>
<g><path style="opacity:0.998" fill="#dadada" d="M 300.5,79.5 C 298.008,82.4691 295.508,85.4691 293,88.5C 292.805,87.1807 292.972,85.8474 293.5,84.5C 296.49,78.5216 299.99,72.8549 304,67.5C 302.97,70.7346 301.47,73.9013 299.5,77C 299.743,77.9021 300.077,78.7354 300.5,79.5 Z"/></g>
<g><path style="opacity:0.312" fill="#cccccc" d="M 72.5,70.5 C 72.5,71.1667 72.8333,71.5 73.5,71.5C 74.3577,75.1269 74.5244,78.7935 74,82.5C 77.3691,78.9626 80.8691,75.6293 84.5,72.5C 84.8333,72.5 85.1667,72.5 85.5,72.5C 80.8943,78.4437 75.8943,84.1104 70.5,89.5C 69.6816,87.8917 69.0149,86.2251 68.5,84.5C 70.7443,80.8564 71.7443,76.8564 71.5,72.5C 71.3284,71.5084 71.6618,70.8417 72.5,70.5 Z"/></g>
<g><path style="opacity:0.865" fill="#a8a8a8" d="M 243.5,69.5 C 244.5,69.5 245.5,69.5 246.5,69.5C 253.199,75.8641 259.532,82.5308 265.5,89.5C 264.762,91.7602 263.762,91.9269 262.5,90C 262.833,89.6667 263.167,89.3333 263.5,89C 262.207,88.51 260.873,88.3433 259.5,88.5C 255.878,85.2784 252.712,81.6118 250,77.5C 249.107,78.7112 248.274,78.7112 247.5,77.5C 247.709,76.914 248.043,76.414 248.5,76C 246.235,74.2419 244.568,72.0752 243.5,69.5 Z"/></g>
<g><path style="opacity:0.99" fill="#7f7f7f" d="M 270.5,73.5 C 273.876,82.8247 276.876,92.3247 279.5,102C 279.836,103.03 280.503,103.53 281.5,103.5C 280.5,104.833 279.5,106.167 278.5,107.5C 275.192,104.55 273.192,100.884 272.5,96.5C 270.833,90.5 269.167,84.5 267.5,78.5C 267.369,77.7611 267.536,77.0944 268,76.5C 268.862,78.087 269.529,79.7536 270,81.5C 269.743,78.6571 269.91,75.9905 270.5,73.5 Z"/></g>
<g><path style="opacity:0.914" fill="#c5c5c5" d="M 312.5,64.5 C 312.842,65.3382 313.508,65.6716 314.5,65.5C 303.399,78.2639 293.066,91.5973 283.5,105.5C 283.573,103.973 282.906,102.973 281.5,102.5C 285.111,96.2259 289.111,90.2259 293.5,84.5C 292.972,85.8474 292.805,87.1807 293,88.5C 295.508,85.4691 298.008,82.4691 300.5,79.5C 304.15,74.187 308.15,69.187 312.5,64.5 Z"/></g>
<g><path style="opacity:0.08" fill="#cfcfcf" d="M 230.5,55.5 C 232.716,56.2026 234.549,57.5359 236,59.5C 238.356,63.0118 240.856,66.3451 243.5,69.5C 244.568,72.0752 246.235,74.2419 248.5,76C 248.043,76.414 247.709,76.914 247.5,77.5C 248.274,78.7112 249.107,78.7112 250,77.5C 252.712,81.6118 255.878,85.2784 259.5,88.5C 262.07,93.4057 265.404,97.7391 269.5,101.5C 271.428,105.357 274.261,108.357 278,110.5C 278.791,111.745 279.291,113.078 279.5,114.5C 278.5,114.5 277.5,114.5 276.5,114.5C 274.983,114.489 273.816,113.823 273,112.5C 266.996,101.834 259.996,91.8345 252,82.5C 248.604,81.5511 245.771,79.7178 243.5,77C 244.517,75.9505 244.684,74.7839 244,73.5C 239.97,67.9804 235.803,62.6471 231.5,57.5C 231.167,56.8333 230.833,56.1667 230.5,55.5 Z"/></g>
<g><path style="opacity:0.882" fill="#c4c4c4" d="M 23.5,63.5 C 23.8333,63.5 24.1667,63.5 24.5,63.5C 31.8471,71.3534 38.6804,79.6867 45,88.5C 43.3187,83.4334 40.652,78.7667 37,74.5C 36.3333,73.5 36.3333,72.5 37,71.5C 42.1072,79.3894 46.9405,87.3894 51.5,95.5C 52.8333,97.5 54.1667,99.5 55.5,101.5C 53.9519,101.821 53.2852,102.821 53.5,104.5C 52.8333,104.167 52.1667,103.833 51.5,103.5C 51.1594,100.484 49.9927,97.8175 48,95.5C 39.5821,84.9834 31.4155,74.3168 23.5,63.5 Z"/></g>
<g><path style="opacity:0.288" fill="#cdcdcd" d="M 92.5,71.5 C 92.2969,73.0443 91.6302,74.3777 90.5,75.5C 91.3256,76.451 91.4922,77.451 91,78.5C 87.6381,80.35 84.6381,82.6833 82,85.5C 78.3455,90.9824 74.1789,95.9824 69.5,100.5C 73.0208,93.8061 77.5208,87.8061 83,82.5C 83.3333,81.5 83.6667,80.5 84,79.5C 85.8254,78.8971 87.6587,78.2304 89.5,77.5C 88.9747,76.8076 88.3081,76.3076 87.5,76C 88.6508,73.7997 90.3175,72.2997 92.5,71.5 Z"/></g>
<g><path style="opacity:0.998" fill="#aeaeae" d="M 105.5,51.5 C 106.833,51.5 108.167,51.5 109.5,51.5C 112.287,52.4767 115.287,52.81 118.5,52.5C 118.5,53.1667 118.5,53.8333 118.5,54.5C 115.223,54.7839 112.057,54.4505 109,53.5C 108.005,54.0659 107.172,54.7326 106.5,55.5C 102.118,57.5509 99.1177,60.8842 97.5,65.5C 96.5806,68.0892 94.914,70.0892 92.5,71.5C 90.3175,72.2997 88.6508,73.7997 87.5,76C 88.3081,76.3076 88.9747,76.8076 89.5,77.5C 87.6587,78.2304 85.8254,78.8971 84,79.5C 83.6667,80.5 83.3333,81.5 83,82.5C 77.5208,87.8061 73.0208,93.8061 69.5,100.5C 68.0692,103.701 66.4025,106.701 64.5,109.5C 62.1069,110.854 59.7736,111.854 57.5,112.5C 58.0476,110.606 59.0476,108.94 60.5,107.5C 59.7997,107.213 59.1331,106.88 58.5,106.5C 58.5,106.167 58.5,105.833 58.5,105.5C 62.9556,101.277 66.9556,96.6107 70.5,91.5C 70.3333,91.1667 70.1667,90.8333 70,90.5C 68.647,91.6853 67.4803,93.0186 66.5,94.5C 66.1667,93.6667 65.8333,92.8333 65.5,92C 66.7618,87.1167 68.0951,82.2833 69.5,77.5C 70.1667,75.8333 70.8333,74.1667 71.5,72.5C 71.7443,76.8564 70.7443,80.8564 68.5,84.5C 69.0149,86.2251 69.6816,87.8917 70.5,89.5C 75.8943,84.1104 80.8943,78.4437 85.5,72.5C 92.8503,66.1164 99.517,59.1164 105.5,51.5 Z"/></g>
<g><path style="opacity:0.935" fill="#b6b6b6" d="M 264.5,70.5 C 265.749,73.0873 266.749,75.754 267.5,78.5C 269.167,84.5 270.833,90.5 272.5,96.5C 270.717,95.8865 269.384,94.7198 268.5,93C 267.833,92.3333 267.167,92.3333 266.5,93C 267.975,95.3092 269.642,97.4759 271.5,99.5C 270.757,100.182 270.091,100.849 269.5,101.5C 265.404,97.7391 262.07,93.4057 259.5,88.5C 260.873,88.3433 262.207,88.51 263.5,89C 263.167,89.3333 262.833,89.6667 262.5,90C 263.762,91.9269 264.762,91.7602 265.5,89.5C 265.976,86.1723 265.309,82.839 263.5,79.5C 263.5,77.1667 263.5,74.8333 263.5,72.5C 264.338,72.1583 264.672,71.4916 264.5,70.5 Z"/></g>
<g><path style="opacity:1" fill="#7f7f7f" d="M 67.5,72.5 C 67.7938,74.2755 67.9605,76.2755 68,78.5C 68.3333,77.8333 68.6667,77.1667 69,76.5C 69.3988,76.7284 69.5654,77.0618 69.5,77.5C 68.0951,82.2833 66.7618,87.1167 65.5,92C 65.8333,92.8333 66.1667,93.6667 66.5,94.5C 67.4803,93.0186 68.647,91.6853 70,90.5C 70.1667,90.8333 70.3333,91.1667 70.5,91.5C 66.9556,96.6107 62.9556,101.277 58.5,105.5C 56.7706,104.764 55.7706,103.43 55.5,101.5C 57.4426,99.6053 58.9426,97.2719 60,94.5C 61.5984,86.7313 64.0984,79.398 67.5,72.5 Z"/></g>
<g><path style="opacity:0.998" fill="#9b9b9b" d="M 272.5,96.5 C 273.192,100.884 275.192,104.55 278.5,107.5C 279.5,108.833 280.5,108.833 281.5,107.5C 282.461,110.426 283.127,113.426 283.5,116.5C 281.517,116.843 280.183,116.176 279.5,114.5C 279.291,113.078 278.791,111.745 278,110.5C 274.261,108.357 271.428,105.357 269.5,101.5C 270.091,100.849 270.757,100.182 271.5,99.5C 269.642,97.4759 267.975,95.3092 266.5,93C 267.167,92.3333 267.833,92.3333 268.5,93C 269.384,94.7198 270.717,95.8865 272.5,96.5 Z"/></g>
<g><path style="opacity:1" fill="#4a4a4a" d="M 55.5,101.5 C 55.7706,103.43 56.7706,104.764 58.5,105.5C 58.5,105.833 58.5,106.167 58.5,106.5C 57.0379,107.471 55.7046,107.138 54.5,105.5C 54.5,104.833 54.1667,104.5 53.5,104.5C 53.2852,102.821 53.9519,101.821 55.5,101.5 Z"/></g>
<g><path style="opacity:1" fill="#484848" d="M 281.5,102.5 C 282.906,102.973 283.573,103.973 283.5,105.5C 282.5,105.833 281.833,106.5 281.5,107.5C 280.5,108.833 279.5,108.833 278.5,107.5C 279.5,106.167 280.5,104.833 281.5,103.5C 281.5,103.167 281.5,102.833 281.5,102.5 Z"/></g>
<g><path style="opacity:0.99" fill="#8f8f8f" d="M 54.5,105.5 C 55.7046,107.138 57.0379,107.471 58.5,106.5C 59.1331,106.88 59.7997,107.213 60.5,107.5C 59.0476,108.94 58.0476,110.606 57.5,112.5C 57.3059,114.912 55.9726,115.912 53.5,115.5C 53.8333,112.167 54.1667,108.833 54.5,105.5 Z"/></g>
<g><path style="opacity:0.723" fill="#e0e0e0" d="M 51.5,103.5 C 52.1667,103.833 52.8333,104.167 53.5,104.5C 54.1667,104.5 54.5,104.833 54.5,105.5C 54.1667,108.833 53.8333,112.167 53.5,115.5C 55.9726,115.912 57.3059,114.912 57.5,112.5C 59.7736,111.854 62.1069,110.854 64.5,109.5C 62.3719,112.13 60.0386,114.63 57.5,117C 54.1432,118.141 52.1432,116.975 51.5,113.5C 51.9397,111.235 52.6064,109.068 53.5,107C 52.1772,106.184 51.5106,105.017 51.5,103.5 Z"/></g>
</svg>
